# WEngine Wavefront OBJ Exporter
# File Created : Sat Dec 24 01:09:02 2016

# Information about the object:
# Vertices: 99
# Textures: 67
# Normals:  35
# Faces:    41

# Vertices
v 4.3070 2.0871 -0.3751
v 4.3070 1.3495 -0.3751
v 8.8005 1.3122 -0.1454
v 8.8005 2.0498 -0.1454
v -9.1948 2.0498 -0.1454
v -9.1948 1.3122 -0.1454
v 8.8005 1.3122 -0.4697
v 4.3070 1.3495 -0.6993
v 4.3070 2.0871 -0.6993
v 8.8005 2.0498 -0.4697
v -9.1948 1.3122 -0.4697
v -9.1948 2.0498 -0.4697
v -2.8947 3.6283 0.0435
v -2.8947 4.4095 0.0435
v -9.1948 4.5128 -0.1454
v -9.1948 3.7316 -0.1454
v 8.8005 3.7316 -0.1454
v 8.8005 4.5128 -0.1454
v -9.1948 4.5128 -0.4697
v -2.8947 4.4095 -0.2808
v -2.8947 3.6283 -0.2808
v -9.1948 3.7316 -0.4697
v 8.8005 4.5128 -0.4697
v 8.8005 3.7316 -0.4697
v -8.1830 -0.0203 0.2527
v -8.5605 -0.0203 0.0963
v -7.8055 -0.0203 0.0963
v -9.1948 4.5128 -0.1454
v -9.1948 3.7316 -0.1454
v -9.1948 4.5128 -0.4697
v -9.1948 3.7316 -0.1454
v -9.1948 4.5128 -0.4697
v -9.1948 3.7316 -0.4697
v -9.1948 4.5128 -0.1454
v -2.8947 4.4095 0.0435
v -2.8947 4.4095 -0.2808
v -9.1948 4.5128 -0.1454
v -2.8947 4.4095 -0.2808
v -9.1948 4.5128 -0.4697
v -2.8947 4.4095 0.0435
v 8.8005 4.5128 -0.1454
v 8.8005 4.5128 -0.4697
v -2.8947 4.4095 0.0435
v -2.8947 4.4095 -0.2808
v 8.8005 4.5128 -0.4697
v 8.8005 4.5128 -0.1454
v 8.8005 3.7316 -0.1454
v 8.8005 3.7316 -0.4697
v 8.8005 4.5128 -0.1454
v 8.8005 3.7316 -0.4697
v 8.8005 4.5128 -0.4697
v -2.8947 3.6283 0.0435
v 8.8005 3.7316 -0.1454
v -2.8947 3.6283 -0.2808
v 8.8005 3.7316 -0.1454
v -2.8947 3.6283 -0.2808
v 8.8005 3.7316 -0.4697
v -2.8947 3.6283 0.0435
v -9.1948 3.7316 -0.1454
v -9.1948 3.7316 -0.4697
v -2.8947 3.6283 0.0435
v -2.8947 3.6283 -0.2808
v -9.1948 3.7316 -0.4697
v 8.8005 1.3122 -0.1454
v 8.8005 2.0498 -0.1454
v 8.8005 1.3122 -0.4697
v 8.8005 2.0498 -0.1454
v 8.8005 1.3122 -0.4697
v 8.8005 2.0498 -0.4697
v 8.8005 1.3122 -0.1454
v 4.3070 1.3495 -0.3751
v 4.3070 1.3495 -0.6993
v 8.8005 1.3122 -0.1454
v 4.3070 1.3495 -0.6993
v 8.8005 1.3122 -0.4697
v 4.3070 1.3495 -0.3751
v -9.1948 1.3122 -0.1454
v -9.1948 1.3122 -0.4697
v 4.3070 1.3495 -0.3751
v 4.3070 1.3495 -0.6993
v -9.1948 1.3122 -0.4697
v -9.1948 1.3122 -0.1454
v -9.1948 2.0498 -0.1454
v -9.1948 2.0498 -0.4697
v -9.1948 1.3122 -0.1454
v -9.1948 2.0498 -0.4697
v -9.1948 1.3122 -0.4697
v 4.3070 2.0871 -0.3751
v -9.1948 2.0498 -0.1454
v 4.3070 2.0871 -0.6993
v -9.1948 2.0498 -0.1454
v 4.3070 2.0871 -0.6993
v -9.1948 2.0498 -0.4697
v 4.3070 2.0871 -0.3751
v 8.8005 2.0498 -0.1454
v 8.8005 2.0498 -0.4697
v 4.3070 2.0871 -0.3751
v 4.3070 2.0871 -0.6993
v 8.8005 2.0498 -0.4697
# 99 Vertices

# Texture coordinates
vt 1.9455 0.2351 0.0000
vt 1.9455 -0.0016 0.0000
vt 3.3876 -0.0136 0.0000
vt 3.3876 0.2231 0.0000
vt -2.3876 0.2231 0.0000
vt -2.3876 -0.0136 0.0000
vt -2.3876 -0.0136 0.0000
vt -0.9455 -0.0016 0.0000
vt -0.9455 0.2351 0.0000
vt -2.3876 0.2231 0.0000
vt 3.3876 -0.0136 0.0000
vt 3.3876 0.2231 0.0000
vt 3.3876 0.5455 0.0000
vt 1.9455 0.6192 0.0000
vt 1.9455 0.5151 0.0000
vt 3.3876 0.4414 0.0000
vt -2.3876 0.5455 0.0000
vt -2.3876 0.4414 0.0000
vt 0.4545 0.2231 0.0000
vt 0.4545 -0.0136 0.0000
vt 0.5586 -0.0136 0.0000
vt 0.5586 0.2231 0.0000
vt 3.3876 0.5455 0.0000
vt -0.9455 0.6192 0.0000
vt -0.9455 0.5151 0.0000
vt 3.3876 0.4414 0.0000
vt -2.3876 0.5455 0.0000
vt -2.3876 0.4414 0.0000
vt 0.5455 -0.0136 0.0000
vt 0.5455 0.2231 0.0000
vt 0.4414 0.2231 0.0000
vt 0.4414 -0.0136 0.0000
vt -0.3657 0.7297 0.0000
vt -0.3657 0.9804 0.0000
vt -2.3876 1.0136 0.0000
vt -2.3876 0.7629 0.0000
vt 3.3876 0.7629 0.0000
vt 3.3876 1.0136 0.0000
vt 3.3876 1.0136 0.0000
vt 1.3657 0.9804 0.0000
vt 1.3657 0.7297 0.0000
vt 3.3876 0.7629 0.0000
vt -2.3876 1.0136 0.0000
vt -2.3876 0.7629 0.0000
vt 3.3876 0.5455 0.0000
vt 1.3657 0.4849 0.0000
vt 1.3657 0.3808 0.0000
vt 3.3876 0.4414 0.0000
vt -2.3876 0.5455 0.0000
vt -2.3876 0.4414 0.0000
vt 0.5455 0.7629 0.0000
vt 0.5455 1.0136 0.0000
vt 0.4414 1.0136 0.0000
vt 0.4414 0.7629 0.0000
vt 3.3876 0.5455 0.0000
vt -0.3657 0.4849 0.0000
vt -0.3657 0.3808 0.0000
vt 3.3876 0.4414 0.0000
vt -2.3876 0.5455 0.0000
vt -2.3876 0.4414 0.0000
vt 0.4545 1.0136 0.0000
vt 0.4545 0.7629 0.0000
vt 0.5586 0.7629 0.0000
vt 0.5586 1.0136 0.0000
vt 0.5000 -0.0015 0.0000
vt 0.1699 0.1378 0.0000
vt 0.8301 0.1378 0.0000
# 67 texture coords

# Vertex normals
vn -0.0170 0.0000 0.9999
vn -0.0171 0.0000 0.9999
vn -0.0510 0.0000 0.9987
vn 0.0170 0.0000 0.9999
vn 0.0510 0.0000 -0.9987
vn 0.0171 0.0000 -0.9999
vn 0.0170 0.0000 -0.9999
vn -0.0170 0.0000 -0.9999
vn 0.0083 1.0000 -0.0000
vn 0.0027 1.0000 -0.0000
vn 0.0028 1.0000 -0.0000
vn -0.0028 1.0000 -0.0000
vn -1.0000 0.0000 -0.0000
vn 0.0028 -1.0000 -0.0000
vn -0.0027 -1.0000 -0.0000
vn -0.0028 -1.0000 -0.0000
vn -0.0083 -1.0000 -0.0000
vn 1.0000 0.0000 -0.0000
vn -0.0069 0.0000 1.0000
vn -0.0070 0.0000 1.0000
vn -0.0300 0.0000 0.9996
vn 0.0162 0.0000 0.9999
vn 0.0300 0.0000 -0.9996
vn 0.0070 0.0000 -1.0000
vn 0.0069 0.0000 -1.0000
vn -0.0162 0.0000 -0.9999
vn -0.0164 -0.9999 -0.0000
vn -0.0038 -1.0000 -0.0000
vn -0.0037 -1.0000 -0.0000
vn 0.0088 -1.0000 -0.0000
vn -0.0088 1.0000 -0.0000
vn 0.0038 1.0000 -0.0000
vn 0.0037 1.0000 -0.0000
vn 0.0164 0.9999 -0.0000
vn 0.0000 -1.0000 -0.0000
# 35 normals

# Faces
f 1/1/1 2/2/2 3/3/3
f 3/3/3 4/4/3 1/1/1
f 5/5/4 6/6/4 2/2/2
f 2/2/2 1/1/1 5/5/4
f 7/7/5 8/8/6 9/9/7
f 9/9/7 10/10/5 7/7/5
f 8/8/6 11/11/8 12/12/8
f 12/12/8 9/9/7 8/8/6
f 99/13/9 98/14/10 97/15/11
f 94/15/11 95/16/9 96/13/9
f 92/14/10 93/17/12 91/18/12
f 89/18/12 88/15/11 90/14/10
f 86/19/13 87/20/13 85/21/13
f 82/21/13 83/22/13 84/19/13
f 81/23/14 80/24/15 79/25/16
f 76/25/16 77/26/14 78/23/14
f 74/24/15 75/27/17 73/28/17
f 70/28/17 71/25/16 72/24/15
f 68/29/18 69/30/18 67/31/18
f 65/31/18 64/32/18 66/29/18
f 13/33/19 14/34/20 15/35/21
f 15/35/21 16/36/21 13/33/19
f 17/37/22 18/38/22 14/34/20
f 14/34/20 13/33/19 17/37/22
f 19/39/23 20/40/24 21/41/25
f 21/41/25 22/42/23 19/39/23
f 20/40/24 23/43/26 24/44/26
f 24/44/26 21/41/25 20/40/24
f 63/45/27 62/46/28 61/47/29
f 58/47/29 59/48/27 60/45/27
f 56/46/28 57/49/30 55/50/30
f 53/50/30 52/47/29 54/46/28
f 50/51/18 51/52/18 49/53/18
f 46/53/18 47/54/18 48/51/18
f 45/55/31 44/56/32 43/57/33
f 40/57/33 41/58/31 42/55/31
f 38/56/32 39/59/34 37/60/34
f 34/60/34 35/57/33 36/56/32
f 32/61/13 33/62/13 31/63/13
f 29/63/13 28/64/13 30/61/13
f 25/65/35 26/66/35 27/67/35
# 41 faces