# WEngine Wavefront OBJ Exporter
# File Created : Sat Dec 24 01:09:02 2016

# Information about the object:
# Vertices: 32
# Textures: 32
# Normals:  2
# Faces:    24

# Vertices
v -8.5605 -0.0203 0.0963
v -8.7168 -0.0203 -0.2812
v -8.5605 -0.0203 -0.6586
v -8.1830 -0.0203 -0.8150
v -7.8055 -0.0203 -0.6586
v -7.6492 -0.0203 -0.2812
v -7.8055 -0.0203 0.0963
v -8.1830 -0.0203 0.2527
v -8.1830 5.5818 -0.8150
v -8.5605 5.5818 -0.6586
v -8.7168 5.5818 -0.2812
v -8.5605 5.5818 0.0963
v -8.1830 5.5818 0.2526
v -7.8055 5.5818 0.0963
v -7.6492 5.5818 -0.2812
v -7.8055 5.5818 -0.6586
v 8.1334 5.3604 0.0764
v 8.2897 5.3604 -0.3011
v 8.1334 5.3604 -0.6786
v 7.7559 5.3604 -0.8349
v 7.3784 5.3604 -0.6786
v 7.2221 5.3604 -0.3011
v 7.3784 5.3604 0.0764
v 7.7559 5.3604 0.2327
v 8.2897 0.0269 -0.3011
v 8.1334 0.0269 0.0764
v 7.7559 0.0269 0.2327
v 8.1334 0.0269 -0.6786
v 7.7559 0.0269 -0.8349
v 7.3784 0.0269 -0.6786
v 7.3784 0.0269 0.0764
v 7.2221 0.0269 -0.3011
# 32 Vertices

# Texture coordinates
vt 0.1699 0.1378 0.0000
vt 0.0332 0.4742 0.0000
vt 0.1699 0.8106 0.0000
vt 0.5000 0.9499 0.0000
vt 0.8301 0.8106 0.0000
vt 0.9668 0.4742 0.0000
vt 0.8301 0.1378 0.0000
vt 0.5000 -0.0015 0.0000
vt 0.7305 0.1054 0.0000
vt 0.9396 0.3853 0.0000
vt 0.8913 0.7324 0.0000
vt 0.6137 0.9433 0.0000
vt 0.2695 0.8946 0.0000
vt 0.0604 0.6147 0.0000
vt 0.1087 0.2676 0.0000
vt 0.3863 0.0567 0.0000
vt 0.8194 0.1448 0.0000
vt 0.9403 0.4546 0.0000
vt 0.8194 0.7644 0.0000
vt 0.5275 0.8927 0.0000
vt 0.2356 0.7644 0.0000
vt 0.1147 0.4546 0.0000
vt 0.2356 0.1448 0.0000
vt 0.5275 0.0164 0.0000
vt 0.9343 0.5000 0.0000
vt 0.8071 0.1699 0.0000
vt 0.5000 0.0332 0.0000
vt 0.8071 0.8301 0.0000
vt 0.5000 0.9668 0.0000
vt 0.1929 0.8301 0.0000
vt 0.1929 0.1699 0.0000
vt 0.0657 0.5000 0.0000
# 32 texture coords

# Vertex normals
vn 0.0000 -1.0000 -0.0000
vn 0.0000 1.0000 -0.0000
# 2 normals

# Faces
f 1/1/1 2/2/1 3/3/1
f 3/3/1 4/4/1 5/5/1
f 5/5/1 6/6/1 7/7/1
f 3/3/1 5/5/1 7/7/1
f 1/1/1 3/3/1 7/7/1
f 8/8/1 1/1/1 7/7/1
f 9/9/2 10/10/2 11/11/2
f 11/11/2 12/12/2 13/13/2
f 13/13/2 14/14/2 15/15/2
f 11/11/2 13/13/2 15/15/2
f 9/9/2 11/11/2 15/15/2
f 16/16/2 9/9/2 15/15/2
f 17/17/2 18/18/2 19/19/2
f 20/20/2 21/21/2 22/22/2
f 19/19/2 20/20/2 22/22/2
f 17/17/2 19/19/2 22/22/2
f 17/17/2 22/22/2 23/23/2
f 24/24/2 17/17/2 23/23/2
f 25/25/1 26/26/1 27/27/1
f 28/28/1 25/25/1 27/27/1
f 29/29/1 28/28/1 27/27/1
f 30/30/1 29/29/1 27/27/1
f 27/27/1 31/31/1 32/32/1
f 30/30/1 27/27/1 32/32/1
# 24 faces