# WEngine Wavefront OBJ Exporter
# File Created : Sat Dec 24 01:09:02 2016

# Information about the object:
# Vertices: 69
# Textures: 47
# Normals:  56
# Faces:    64

# Vertices
v -7.5600 1.7824 -0.2261
v -7.6492 -0.0203 -0.2812
v -7.8055 -0.0203 -0.6586
v -7.7163 1.7824 -0.6036
v -8.1830 -0.0203 -0.8150
v -8.0938 1.7824 -0.7599
v -8.5605 -0.0203 -0.6586
v -8.4713 1.7824 -0.6036
v -8.7168 -0.0203 -0.2812
v -8.6276 1.7824 -0.2261
v -8.4712 1.7824 0.1513
v -8.5605 -0.0203 0.0963
v -8.0938 1.7824 0.3077
v -8.1830 -0.0203 0.2527
v -7.8055 -0.0203 0.0963
v -7.7163 1.7824 0.1513
v -7.8055 5.5818 -0.6586
v -7.6492 5.5818 -0.2812
v -8.1830 5.5818 -0.8150
v -8.5605 5.5818 -0.6586
v -8.7168 5.5818 -0.2812
v -8.5605 5.5818 0.0963
v -8.1830 5.5818 0.2526
v -7.8055 5.5818 0.0963
v 7.3784 5.3604 -0.6786
v 7.2892 2.7177 -0.7165
v 7.1329 2.7177 -0.3390
v 7.2221 5.3604 -0.3011
v 7.6667 2.7177 -0.8728
v 7.7559 5.3604 -0.8349
v 8.1334 5.3604 -0.6786
v 8.0442 2.7177 -0.7165
v 8.2897 5.3604 -0.3011
v 8.2005 2.7177 -0.3390
v 8.1334 5.3604 0.0764
v 8.0442 2.7177 0.0385
v 7.7559 5.3604 0.2327
v 7.6667 2.7177 0.1948
v 7.3784 5.3604 0.0764
v 7.2892 2.7177 0.0385
v 7.2221 0.0269 -0.3011
v 7.3784 0.0269 -0.6786
v 7.7559 0.0269 -0.8349
v 8.1334 0.0269 -0.6786
v 8.2897 0.0269 -0.3011
v 8.1334 0.0269 0.0764
v 7.7559 0.0269 0.2327
v 7.3784 0.0269 0.0764
v 8.1334 0.0269 -0.6786
v 8.0442 2.7177 -0.7165
v 8.1334 0.0269 -0.6786
v 7.6667 2.7177 -0.8728
v 7.6667 2.7177 -0.8728
v 8.0442 2.7177 -0.7165
v 7.6667 2.7177 -0.8728
v 7.6667 2.7177 -0.8728
v 7.6667 2.7177 -0.8728
v 7.7559 5.3604 -0.8349
v 7.6667 2.7177 -0.8728
v -8.5605 5.5818 -0.6586
v -8.5605 5.5818 -0.6586
v -8.4713 1.7824 -0.6036
v -8.0938 1.7824 -0.7599
v -8.4713 1.7824 -0.6036
v -8.0938 1.7824 -0.7599
v -8.0938 1.7824 -0.7599
v -8.0938 1.7824 -0.7599
v -8.1830 -0.0203 -0.8150
v -8.0938 1.7824 -0.7599
# 69 Vertices

# Texture coordinates
vt 0.7298 0.3642 0.0000
vt 0.7438 0.1481 0.0000
vt 0.8809 0.1481 0.0000
vt 0.8492 0.3642 0.0000
vt 1.0138 0.1481 0.0000
vt 0.9846 0.3642 0.0000
vt -0.0154 0.3642 0.0000
vt 0.0138 0.1481 0.0000
vt 0.1379 0.1481 0.0000
vt 0.1323 0.3642 0.0000
vt 0.2552 0.1481 0.0000
vt 0.2739 0.3642 0.0000
vt 0.3989 0.3642 0.0000
vt 0.3700 0.1481 0.0000
vt 0.5117 0.3642 0.0000
vt 0.4872 0.1481 0.0000
vt 0.6112 0.1481 0.0000
vt 0.6196 0.3642 0.0000
vt 0.8809 0.8197 0.0000
vt 0.7438 0.8197 0.0000
vt 1.0138 0.8197 0.0000
vt 1.1379 0.8197 0.0000
vt 1.1323 0.3642 0.0000
vt 0.1379 0.8197 0.0000
vt 0.2552 0.8197 0.0000
vt 0.3700 0.8197 0.0000
vt 0.4872 0.8197 0.0000
vt 0.6112 0.8197 0.0000
vt 0.8809 0.1803 0.0000
vt 0.8700 0.4971 0.0000
vt 0.7552 0.4971 0.0000
vt 0.7438 0.1803 0.0000
vt 0.9872 0.4971 0.0000
vt 1.0138 0.1803 0.0000
vt 0.1379 0.1803 0.0000
vt 0.1112 0.4971 0.0000
vt -0.0128 0.4971 0.0000
vt 0.0138 0.1803 0.0000
vt 0.2552 0.1803 0.0000
vt 0.2438 0.4971 0.0000
vt 0.3700 0.1803 0.0000
vt 0.3809 0.4971 0.0000
vt 0.4872 0.1803 0.0000
vt 0.5138 0.4971 0.0000
vt 0.6112 0.1803 0.0000
vt 0.6379 0.4971 0.0000
vt 1.1112 0.4971 0.0000
# 47 texture coords

# Vertex normals
vn 0.9999 -0.0130 0.0054
vn 0.9988 -0.0492 -0.0076
vn 0.9233 -0.0340 -0.3825
vn 0.9238 -0.0091 -0.3827
vn 0.3827 0.0024 -0.9239
vn 0.3827 0.0093 -0.9238
vn 0.3827 0.0025 -0.9239
vn -0.3827 0.0122 -0.9238
vn -0.3823 0.0471 -0.9229
vn -0.7082 0.0565 -0.7037
vn -0.7053 0.0150 -0.7088
vn -0.9987 0.0496 -0.0073
vn -0.9999 0.0130 0.0056
vn -0.9238 0.0087 0.3827
vn -0.9233 0.0340 0.3825
vn -0.3827 -0.0024 0.9239
vn -0.3827 -0.0025 0.9239
vn -0.3827 -0.0093 0.9238
vn 0.3827 -0.0126 0.9238
vn 0.3823 -0.0471 0.9229
vn 0.7036 -0.0564 0.7083
vn 0.7087 -0.0147 0.7054
vn 0.9238 0.0161 -0.3826
vn 0.9997 0.0234 -0.0036
vn 0.3827 -0.0044 -0.9239
vn -0.7079 -0.0268 -0.7058
vn -0.3826 -0.0224 -0.9236
vn -0.9997 -0.0235 -0.0035
vn -0.9238 -0.0161 0.3826
vn -0.3827 0.0044 0.9239
vn 0.3826 0.0224 0.9236
vn 0.7057 0.0268 0.7080
vn -0.7043 0.0339 -0.7091
vn -0.7094 0.0003 -0.7048
vn -1.0000 0.0003 -0.0034
vn -0.9994 0.0337 0.0035
vn -0.0081 0.0001 -1.0000
vn 0.0083 0.0141 -0.9999
vn 0.7128 -0.0140 -0.7012
vn 0.7013 -0.0001 -0.7129
vn 0.9994 -0.0338 0.0034
vn 1.0000 -0.0003 -0.0035
vn 0.7090 -0.0340 0.7044
vn 0.7047 -0.0003 0.7095
vn 0.0082 -0.0146 0.9999
vn -0.0082 -0.0001 1.0000
vn -0.7011 0.0134 0.7129
vn -0.7129 0.0001 0.7013
vn -0.9994 -0.0331 0.0035
vn -0.7044 -0.0333 -0.7091
vn 0.0081 -0.0138 -0.9999
vn 0.7127 0.0138 -0.7013
vn 0.9994 0.0332 0.0034
vn 0.7090 0.0334 0.7044
vn 0.0080 0.0143 0.9999
vn -0.7012 -0.0132 0.7128
# 56 normals

# Faces
f 1/1/1 2/2/2 3/3/3
f 3/3/3 4/4/4 1/1/1
f 4/4/5 3/3/6 5/5/6
f 5/5/6 6/6/7 4/4/5
f 69/7/8 68/8/9 7/9/10
f 7/9/10 8/10/11 67/7/8
f 8/10/11 7/9/10 9/11/12
f 9/11/12 10/12/13 8/10/11
f 11/13/14 10/12/13 9/11/12
f 9/11/12 12/14/15 11/13/14
f 13/15/16 11/13/17 12/14/18
f 12/14/18 14/16/18 13/15/16
f 13/15/19 14/16/20 15/17/21
f 15/17/21 16/18/22 13/15/19
f 16/18/22 15/17/21 2/2/2
f 2/2/2 1/1/1 16/18/22
f 17/19/23 18/20/24 1/1/1
f 1/1/1 4/4/4 17/19/23
f 19/21/25 17/19/25 4/4/5
f 4/4/5 66/6/7 19/21/25
f 20/22/26 19/21/27 65/6/8
f 63/6/8 64/23/11 20/22/26
f 61/24/26 62/10/11 10/12/13
f 10/12/13 21/25/28 60/24/26
f 21/25/28 10/12/13 11/13/14
f 11/13/14 22/26/29 21/25/28
f 22/26/30 11/13/17 13/15/16
f 13/15/16 23/27/30 22/26/30
f 23/27/31 13/15/19 16/18/22
f 16/18/22 24/28/32 23/27/31
f 18/20/24 24/28/32 16/18/22
f 16/18/22 1/1/1 18/20/24
f 25/29/33 26/30/34 27/31/35
f 27/31/35 28/32/36 25/29/33
f 29/33/37 26/30/34 25/29/33
f 25/29/33 30/34/38 29/33/37
f 31/35/39 32/36/40 59/37/37
f 57/37/37 58/38/38 31/35/39
f 33/39/41 34/40/42 32/36/40
f 32/36/40 31/35/39 33/39/41
f 33/39/41 35/41/43 36/42/44
f 36/42/44 34/40/42 33/39/41
f 36/42/44 35/41/43 37/43/45
f 37/43/45 38/44/46 36/42/44
f 38/44/46 37/43/45 39/45/47
f 39/45/47 40/46/48 38/44/46
f 39/45/47 28/32/36 27/31/35
f 27/31/35 40/46/48 39/45/47
f 41/20/49 27/31/35 26/30/34
f 26/30/34 42/19/50 41/20/49
f 42/19/50 26/30/34 56/33/37
f 55/33/37 43/21/51 42/19/50
f 53/33/37 54/47/40 44/22/52
f 44/22/52 43/21/51 52/33/37
f 34/40/42 45/25/53 51/24/52
f 49/24/52 50/36/40 34/40/42
f 36/42/44 46/26/54 45/25/53
f 45/25/53 34/40/42 36/42/44
f 47/27/55 46/26/54 36/42/44
f 36/42/44 38/44/46 47/27/55
f 38/44/46 40/46/48 48/28/56
f 48/28/56 47/27/55 38/44/46
f 40/46/48 27/31/35 41/20/49
f 41/20/49 48/28/56 40/46/48
# 64 faces