# WEngine Wavefront OBJ Exporter
# File Created : Sat Dec 24 01:03:56 2016

# Information about the object:
# Vertices: 4
# Textures: 4
# Normals:  1
# Faces:    2

# Vertices
v -12.0467 0.0000 -19.4954
v -12.0467 0.0000 19.4954
v 12.0467 0.0000 -19.4954
v 12.0467 0.0000 19.4954
# 4 Vertices

# Texture coordinates
vt 0.0000 1.0000 0.0000
vt 0.0000 0.0000 0.0000
vt 1.0000 1.0000 0.0000
vt 1.0000 0.0000 0.0000
# 4 texture coords

# Vertex normals
vn 0.0000 1.0000 -0.0000
# 1 normals

# Faces
f 1/1/1 2/2/1 3/3/1
f 4/4/1 3/3/1 2/2/1
# 2 faces