# WEngine Wavefront OBJ Exporter
# File Created : Sat Dec 24 01:09:35 2016

# Information about the object:
# Vertices: 193
# Textures: 126
# Normals:  22
# Faces:    160

# Vertices
v -3.1403 14.8561 -0.1814
v -3.1403 14.8611 -0.1814
v -3.0965 14.8611 -0.0954
v -3.0965 14.8561 -0.0954
v -3.2086 14.8561 -0.2497
v -3.2086 14.8611 -0.2497
v -3.2946 14.8561 -0.2935
v -3.2946 14.8611 -0.2935
v -3.3900 14.8561 -0.3086
v -3.3900 14.8611 -0.3086
v -3.4854 14.8561 -0.2935
v -3.4854 14.8611 -0.2935
v -3.5714 14.8561 -0.2497
v -3.5714 14.8611 -0.2497
v -3.6397 14.8561 -0.1814
v -3.6397 14.8611 -0.1814
v -3.6835 14.8611 -0.0954
v -3.6835 14.8561 -0.0954
v -3.6986 14.8561 -0.0000
v -3.6986 14.8611 -0.0000
v -3.6835 14.8561 0.0954
v -3.6835 14.8611 0.0954
v -3.6397 14.8561 0.1814
v -3.6397 14.8611 0.1814
v -3.5714 14.8561 0.2497
v -3.5714 14.8611 0.2497
v -3.4854 14.8561 0.2935
v -3.4854 14.8611 0.2935
v -3.3900 14.8561 0.3086
v -3.3900 14.8611 0.3086
v -3.2946 14.8561 0.2935
v -3.2946 14.8611 0.2935
v -3.2086 14.8561 0.2497
v -3.2086 14.8611 0.2497
v -3.1403 14.8561 0.1814
v -3.1403 14.8611 0.1814
v -3.0965 14.8611 0.0954
v -3.0965 14.8561 0.0954
v -3.0814 14.8561 -0.0000
v -3.0814 14.8611 -0.0000
v -3.3900 14.8561 -0.0000
v -3.0965 15.3440 -0.0954
v -3.1403 15.3440 -0.1814
v -3.3900 15.3440 -0.0000
v -3.2086 15.3440 -0.2497
v -3.2946 15.3440 -0.2935
v -3.3900 15.3440 -0.3086
v -3.4854 15.3440 -0.2935
v -3.5714 15.3440 -0.2497
v -3.6397 15.3440 -0.1814
v -3.6835 15.3440 -0.0954
v -3.6986 15.3440 -0.0000
v -3.6835 15.3440 0.0954
v -3.6397 15.3440 0.1814
v -3.5714 15.3440 0.2497
v -3.4854 15.3440 0.2935
v -3.3900 15.3440 0.3086
v -3.2946 15.3440 0.2935
v -3.2086 15.3440 0.2497
v -3.1403 15.3440 0.1814
v -3.0965 15.3440 0.0954
v -3.0814 15.3440 -0.0000
v -3.2946 15.3372 0.2935
v -3.3900 15.3372 0.3086
v -3.4854 15.3372 0.2935
v -3.5714 15.3372 0.2497
v -3.6397 15.3372 0.1814
v -3.6835 15.3372 0.0954
v -3.6986 15.3372 -0.0000
v -3.6835 15.3372 -0.0954
v -3.6397 15.3372 -0.1814
v -3.5714 15.3372 -0.2497
v -3.4854 15.3372 -0.2935
v -3.3900 15.3372 -0.3086
v -3.2946 15.3372 -0.2935
v -3.2086 15.3372 -0.2497
v -3.1403 15.3372 -0.1814
v -3.0965 15.3372 -0.0954
v -3.0814 15.3372 -0.0000
v -3.0965 15.3372 0.0954
v -3.1403 15.3372 0.1814
v -3.2086 15.3372 0.2497
v -3.0965 14.8611 -0.0954
v -3.0965 14.8611 -0.0954
v -3.0965 15.3372 -0.0954
v -3.0965 14.8611 -0.0954
v -3.0965 15.3372 -0.0954
v -3.0965 15.3372 -0.0954
v -3.2946 15.3440 0.2935
v -3.2946 15.3440 0.2935
v -3.2086 15.3440 0.2497
v -3.2086 15.3440 0.2497
v -3.2086 15.3440 0.2497
v -3.1403 15.3440 0.1814
v -3.1403 15.3440 0.1814
v -3.0965 15.3440 0.0954
v -3.1403 15.3440 0.1814
v -3.0814 15.3440 -0.0000
v -3.0965 15.3440 0.0954
v -3.0814 15.3440 -0.0000
v -3.0814 15.3440 -0.0000
v -3.0965 15.3372 -0.0954
v -3.0965 15.3440 -0.0954
v -3.0814 15.3440 -0.0000
v -3.0965 15.3372 -0.0954
v -3.0965 15.3440 -0.0954
v -3.1403 15.3440 -0.1814
v -3.0965 15.3440 -0.0954
v -3.1403 15.3440 -0.1814
v -3.1403 15.3440 -0.1814
v -3.2086 15.3440 -0.2497
v -3.2086 15.3440 -0.2497
v -3.2086 15.3440 -0.2497
v -3.2946 15.3440 -0.2935
v -3.2946 15.3440 -0.2935
v -3.2946 15.3440 -0.2935
v -3.3900 15.3440 -0.3086
v -3.3900 15.3440 -0.3086
v -3.3900 15.3440 -0.3086
v -3.4854 15.3440 -0.2935
v -3.4854 15.3440 -0.2935
v -3.4854 15.3440 -0.2935
v -3.5714 15.3440 -0.2497
v -3.5714 15.3440 -0.2497
v -3.5714 15.3440 -0.2497
v -3.6397 15.3440 -0.1814
v -3.6397 15.3440 -0.1814
v -3.6835 15.3440 -0.0954
v -3.6397 15.3440 -0.1814
v -3.6986 15.3440 -0.0000
v -3.6835 15.3440 -0.0954
v -3.6986 15.3440 -0.0000
v -3.6986 15.3440 -0.0000
v -3.6986 15.3440 -0.0000
v -3.6835 15.3440 0.0954
v -3.6835 15.3440 0.0954
v -3.6835 15.3440 0.0954
v -3.6397 15.3440 0.1814
v -3.6397 15.3440 0.1814
v -3.6397 15.3440 0.1814
v -3.5714 15.3440 0.2497
v -3.5714 15.3440 0.2497
v -3.5714 15.3440 0.2497
v -3.4854 15.3440 0.2935
v -3.4854 15.3440 0.2935
v -3.4854 15.3440 0.2935
v -3.3900 15.3440 0.3086
v -3.3900 15.3440 0.3086
v -3.3900 15.3440 0.3086
v -3.2946 15.3440 0.2935
v -3.0965 14.8561 -0.0954
v -3.0814 14.8561 -0.0000
v -3.0965 14.8561 0.0954
v -3.0814 14.8561 -0.0000
v -3.1403 14.8561 0.1814
v -3.0965 14.8561 0.0954
v -3.2086 14.8561 0.2497
v -3.1403 14.8561 0.1814
v -3.2946 14.8561 0.2935
v -3.2086 14.8561 0.2497
v -3.3900 14.8561 0.3086
v -3.2946 14.8561 0.2935
v -3.4854 14.8561 0.2935
v -3.3900 14.8561 0.3086
v -3.5714 14.8561 0.2497
v -3.4854 14.8561 0.2935
v -3.6397 14.8561 0.1814
v -3.5714 14.8561 0.2497
v -3.6835 14.8561 0.0954
v -3.6397 14.8561 0.1814
v -3.6986 14.8561 -0.0000
v -3.6835 14.8561 0.0954
v -3.6835 14.8561 -0.0954
v -3.6986 14.8561 -0.0000
v -3.6397 14.8561 -0.1814
v -3.6835 14.8561 -0.0954
v -3.5714 14.8561 -0.2497
v -3.6397 14.8561 -0.1814
v -3.4854 14.8561 -0.2935
v -3.5714 14.8561 -0.2497
v -3.3900 14.8561 -0.3086
v -3.4854 14.8561 -0.2935
v -3.2946 14.8561 -0.2935
v -3.3900 14.8561 -0.3086
v -3.2086 14.8561 -0.2497
v -3.2946 14.8561 -0.2935
v -3.1403 14.8561 -0.1814
v -3.2086 14.8561 -0.2497
v -3.1403 14.8561 -0.1814
v -3.0965 14.8561 -0.0954
v -3.0965 14.8561 -0.0954
v -3.0965 14.8611 -0.0954
v -3.0965 14.8561 -0.0954
# 193 Vertices

# Texture coordinates
vt 0.2469 0.4455 0.0000
vt 0.2472 0.4472 0.0000
vt 0.2203 0.4507 0.0000
vt 0.2201 0.4489 0.0000
vt 0.2738 0.4420 0.0000
vt 0.2741 0.4438 0.0000
vt 0.3007 0.4385 0.0000
vt 0.3010 0.4403 0.0000
vt 0.3276 0.4351 0.0000
vt 0.3278 0.4368 0.0000
vt 0.3545 0.4316 0.0000
vt 0.3547 0.4334 0.0000
vt 0.3814 0.4282 0.0000
vt 0.3816 0.4299 0.0000
vt 0.4083 0.4247 0.0000
vt 0.4085 0.4265 0.0000
vt 0.4354 0.4230 0.0000
vt 0.4352 0.4212 0.0000
vt 0.4621 0.4178 0.0000
vt 0.4623 0.4196 0.0000
vt 0.4890 0.4143 0.0000
vt 0.4892 0.4161 0.0000
vt 0.5159 0.4109 0.0000
vt 0.5161 0.4126 0.0000
vt 0.5428 0.4074 0.0000
vt 0.5430 0.4092 0.0000
vt 0.5696 0.4040 0.0000
vt 0.5699 0.4057 0.0000
vt 0.5965 0.4005 0.0000
vt 0.5968 0.4023 0.0000
vt 0.6234 0.3970 0.0000
vt 0.6237 0.3988 0.0000
vt 0.6503 0.3936 0.0000
vt 0.6505 0.3954 0.0000
vt 0.6772 0.3901 0.0000
vt 0.6774 0.3919 0.0000
vt 0.7043 0.3884 0.0000
vt 0.7041 0.3867 0.0000
vt 0.7310 0.3832 0.0000
vt 0.7312 0.3850 0.0000
vt 0.7579 0.3798 0.0000
vt 0.7581 0.3815 0.0000
vt 0.6274 0.0646 0.0000
vt 0.6492 0.1086 0.0000
vt 0.5000 0.1545 0.0000
vt 0.5928 0.0294 0.0000
vt 0.5489 0.0067 0.0000
vt 0.5001 -0.0012 0.0000
vt 0.4512 0.0066 0.0000
vt 0.4073 0.0293 0.0000
vt 0.3727 0.0644 0.0000
vt 0.3509 0.1085 0.0000
vt 0.3438 0.1569 0.0000
vt 0.3520 0.2050 0.0000
vt 0.3745 0.2481 0.0000
vt 0.4090 0.2821 0.0000
vt 0.4522 0.3038 0.0000
vt 0.4999 0.3113 0.0000
vt 0.5477 0.3039 0.0000
vt 0.5909 0.2822 0.0000
vt 0.6255 0.2482 0.0000
vt 0.6480 0.2051 0.0000
vt 0.6562 0.1571 0.0000
vt 0.6480 0.8927 0.0000
vt 0.6254 0.9357 0.0000
vt 0.5000 0.8420 0.0000
vt 0.5909 0.9697 0.0000
vt 0.5476 0.9914 0.0000
vt 0.4999 0.9988 0.0000
vt 0.4522 0.9913 0.0000
vt 0.4090 0.9696 0.0000
vt 0.3744 0.9356 0.0000
vt 0.3519 0.8925 0.0000
vt 0.3438 0.8444 0.0000
vt 0.3509 0.7959 0.0000
vt 0.3727 0.7519 0.0000
vt 0.4073 0.7168 0.0000
vt 0.4512 0.6941 0.0000
vt 0.5001 0.6863 0.0000
vt 0.5490 0.6942 0.0000
vt 0.5928 0.7169 0.0000
vt 0.6274 0.7521 0.0000
vt 0.6492 0.7961 0.0000
vt 0.6562 0.8446 0.0000
vt 0.6452 0.5666 0.0000
vt 0.6455 0.5689 0.0000
vt 0.6186 0.5724 0.0000
vt 0.6183 0.5700 0.0000
vt 0.5917 0.5759 0.0000
vt 0.5914 0.5735 0.0000
vt 0.5649 0.5793 0.0000
vt 0.5645 0.5769 0.0000
vt 0.5380 0.5828 0.0000
vt 0.5377 0.5804 0.0000
vt 0.5111 0.5862 0.0000
vt 0.5108 0.5839 0.0000
vt 0.4842 0.5897 0.0000
vt 0.4839 0.5873 0.0000
vt 0.4573 0.5932 0.0000
vt 0.4570 0.5908 0.0000
vt 0.4304 0.5966 0.0000
vt 0.4301 0.5942 0.0000
vt 0.4035 0.6001 0.0000
vt 0.4032 0.5977 0.0000
vt 0.3766 0.6035 0.0000
vt 0.3763 0.6011 0.0000
vt 0.3497 0.6070 0.0000
vt 0.3494 0.6046 0.0000
vt 0.3228 0.6104 0.0000
vt 0.3225 0.6081 0.0000
vt 0.2959 0.6139 0.0000
vt 0.2956 0.6115 0.0000
vt 0.2690 0.6174 0.0000
vt 0.2687 0.6150 0.0000
vt 0.2422 0.6208 0.0000
vt 0.2418 0.6184 0.0000
vt 0.7797 0.5493 0.0000
vt 0.7800 0.5517 0.0000
vt 0.7531 0.5551 0.0000
vt 0.7528 0.5527 0.0000
vt 0.7262 0.5586 0.0000
vt 0.7259 0.5562 0.0000
vt 0.6993 0.5620 0.0000
vt 0.6990 0.5596 0.0000
vt 0.6724 0.5655 0.0000
vt 0.6721 0.5631 0.0000
# 126 texture coords

# Vertex normals
vn 0.8090 0.0000 -0.5878
vn 0.9511 0.0000 -0.3090
vn 0.5878 0.0000 -0.8090
vn 0.3090 0.0000 -0.9511
vn 0.0000 0.0000 -1.0000
vn -0.3090 0.0000 -0.9511
vn -0.5878 0.0000 -0.8090
vn -0.8090 0.0000 -0.5878
vn -0.9511 0.0000 -0.3090
vn -1.0000 0.0000 -0.0000
vn -0.9511 0.0000 0.3090
vn -0.8090 0.0000 0.5878
vn -0.5878 0.0000 0.8090
vn -0.3090 0.0000 0.9511
vn 0.0000 0.0000 1.0000
vn 0.3090 0.0000 0.9511
vn 0.5878 0.0000 0.8090
vn 0.8090 0.0000 0.5878
vn 0.9511 0.0000 0.3090
vn 1.0000 0.0000 0.0000
vn 0.0000 -1.0000 -0.0000
vn 0.0000 1.0000 -0.0000
# 22 normals

# Faces
f 1/1/1 2/2/1 3/3/2
f 3/3/2 4/4/2 1/1/1
f 5/5/3 6/6/3 2/2/1
f 2/2/1 1/1/1 5/5/3
f 7/7/4 8/8/4 6/6/3
f 6/6/3 5/5/3 7/7/4
f 9/9/5 10/10/5 8/8/4
f 8/8/4 7/7/4 9/9/5
f 11/11/6 12/12/6 10/10/5
f 10/10/5 9/9/5 11/11/6
f 13/13/7 14/14/7 12/12/6
f 12/12/6 11/11/6 13/13/7
f 15/15/8 16/16/8 14/14/7
f 14/14/7 13/13/7 15/15/8
f 17/17/9 16/16/8 15/15/8
f 15/15/8 18/18/9 17/17/9
f 17/17/9 18/18/9 19/19/10
f 19/19/10 20/20/10 17/17/9
f 21/21/11 22/22/11 20/20/10
f 20/20/10 19/19/10 21/21/11
f 23/23/12 24/24/12 22/22/11
f 22/22/11 21/21/11 23/23/12
f 25/25/13 26/26/13 24/24/12
f 24/24/12 23/23/12 25/25/13
f 27/27/14 28/28/14 26/26/13
f 26/26/13 25/25/13 27/27/14
f 29/29/15 30/30/15 28/28/14
f 28/28/14 27/27/14 29/29/15
f 31/31/16 32/32/16 30/30/15
f 30/30/15 29/29/15 31/31/16
f 33/33/17 34/34/17 32/32/16
f 32/32/16 31/31/16 33/33/17
f 33/33/17 35/35/18 36/36/18
f 36/36/18 34/34/17 33/33/17
f 37/37/19 36/36/18 35/35/18
f 35/35/18 38/38/19 37/37/19
f 37/37/19 38/38/19 39/39/20
f 39/39/20 40/40/20 37/37/19
f 193/41/2 192/42/2 40/40/20
f 40/40/20 39/39/20 191/41/2
f 189/43/21 190/44/21 41/45/21
f 188/46/21 187/43/21 41/45/21
f 186/47/21 185/46/21 41/45/21
f 184/48/21 183/47/21 41/45/21
f 182/49/21 181/48/21 41/45/21
f 180/50/21 179/49/21 41/45/21
f 178/51/21 177/50/21 41/45/21
f 176/52/21 175/51/21 41/45/21
f 174/53/21 173/52/21 41/45/21
f 172/54/21 171/53/21 41/45/21
f 170/55/21 169/54/21 41/45/21
f 168/56/21 167/55/21 41/45/21
f 166/57/21 165/56/21 41/45/21
f 164/58/21 163/57/21 41/45/21
f 162/59/21 161/58/21 41/45/21
f 160/60/21 159/59/21 41/45/21
f 158/61/21 157/60/21 41/45/21
f 156/62/21 155/61/21 41/45/21
f 154/63/21 153/62/21 41/45/21
f 151/44/21 152/63/21 41/45/21
f 42/64/22 43/65/22 44/66/22
f 43/65/22 45/67/22 44/66/22
f 45/67/22 46/68/22 44/66/22
f 46/68/22 47/69/22 44/66/22
f 47/69/22 48/70/22 44/66/22
f 48/70/22 49/71/22 44/66/22
f 49/71/22 50/72/22 44/66/22
f 50/72/22 51/73/22 44/66/22
f 51/73/22 52/74/22 44/66/22
f 52/74/22 53/75/22 44/66/22
f 53/75/22 54/76/22 44/66/22
f 54/76/22 55/77/22 44/66/22
f 55/77/22 56/78/22 44/66/22
f 56/78/22 57/79/22 44/66/22
f 57/79/22 58/80/22 44/66/22
f 58/80/22 59/81/22 44/66/22
f 59/81/22 60/82/22 44/66/22
f 60/82/22 61/83/22 44/66/22
f 61/83/22 62/84/22 44/66/22
f 62/84/22 42/64/22 44/66/22
f 63/85/16 150/86/16 149/87/15
f 148/87/15 64/88/15 63/85/16
f 64/88/15 147/87/15 146/89/14
f 145/89/14 65/90/14 64/88/15
f 65/90/14 144/89/14 143/91/13
f 142/91/13 66/92/13 65/90/14
f 66/92/13 141/91/13 140/93/12
f 139/93/12 67/94/12 66/92/13
f 67/94/12 138/93/12 137/95/11
f 136/95/11 68/96/11 67/94/12
f 68/96/11 135/95/11 134/97/10
f 133/97/10 69/98/10 68/96/11
f 132/97/10 131/99/9 70/100/9
f 70/100/9 69/98/10 130/97/10
f 129/101/8 71/102/8 70/100/9
f 70/100/9 128/99/9 127/101/8
f 71/102/8 126/101/8 125/103/7
f 124/103/7 72/104/7 71/102/8
f 72/104/7 123/103/7 122/105/6
f 121/105/6 73/106/6 72/104/7
f 73/106/6 120/105/6 119/107/5
f 118/107/5 74/108/5 73/106/6
f 74/108/5 117/107/5 116/109/4
f 115/109/4 75/110/4 74/108/5
f 75/110/4 114/109/4 113/111/3
f 112/111/3 76/112/3 75/110/4
f 76/112/3 111/111/3 110/113/1
f 109/113/1 77/114/1 76/112/3
f 77/114/1 107/113/1 108/115/2
f 106/115/2 78/116/2 77/114/1
f 105/117/2 103/118/2 104/119/20
f 101/119/20 79/120/20 102/117/2
f 100/119/20 99/121/19 80/122/19
f 80/122/19 79/120/20 98/119/20
f 97/123/18 81/124/18 80/122/19
f 80/122/19 96/121/19 95/123/18
f 81/124/18 94/123/18 93/125/17
f 92/125/17 82/126/17 81/124/18
f 82/126/17 91/125/17 90/86/16
f 89/86/16 63/85/16 82/126/17
f 32/32/16 63/85/16 64/88/15
f 64/88/15 30/30/15 32/32/16
f 30/30/15 64/88/15 65/90/14
f 65/90/14 28/28/14 30/30/15
f 28/28/14 65/90/14 66/92/13
f 66/92/13 26/26/13 28/28/14
f 26/26/13 66/92/13 67/94/12
f 67/94/12 24/24/12 26/26/13
f 24/24/12 67/94/12 68/96/11
f 68/96/11 22/22/11 24/24/12
f 22/22/11 68/96/11 69/98/10
f 69/98/10 20/20/10 22/22/11
f 20/20/10 69/98/10 70/100/9
f 70/100/9 17/17/9 20/20/10
f 17/17/9 70/100/9 71/102/8
f 71/102/8 16/16/8 17/17/9
f 16/16/8 71/102/8 72/104/7
f 72/104/7 14/14/7 16/16/8
f 14/14/7 72/104/7 73/106/6
f 73/106/6 12/12/6 14/14/7
f 12/12/6 73/106/6 74/108/5
f 74/108/5 10/10/5 12/12/6
f 10/10/5 74/108/5 75/110/4
f 75/110/4 8/8/4 10/10/5
f 8/8/4 75/110/4 76/112/3
f 76/112/3 6/6/3 8/8/4
f 6/6/3 76/112/3 77/114/1
f 77/114/1 2/2/1 6/6/3
f 2/2/1 77/114/1 88/116/2
f 87/116/2 86/3/2 2/2/1
f 84/42/2 85/117/2 79/120/20
f 79/120/20 40/40/20 83/42/2
f 40/40/20 79/120/20 80/122/19
f 80/122/19 37/37/19 40/40/20
f 37/37/19 80/122/19 81/124/18
f 81/124/18 36/36/18 37/37/19
f 36/36/18 81/124/18 82/126/17
f 82/126/17 34/34/17 36/36/18
f 32/32/16 34/34/17 82/126/17
f 82/126/17 63/85/16 32/32/16
# 160 faces