# 3ds Max Wavefront OBJ Exporter v0.97b - (c)2007 guruware
# File Created: 02.01.2017 22:26:49

mtllib TRoad.mtl

#
# object Plane003
#

v  -13.2127 0.0000 451.4013
v  -13.2127 0.0000 463.7685
v  13.2126 0.0000 451.4013
v  13.2126 0.0000 463.7685
v  -13.2127 0.0000 439.0342
v  13.2126 0.0000 439.0342
v  -13.2127 0.0000 426.6670
v  13.2126 0.0000 426.6670
v  -13.2127 0.0000 414.2998
v  13.2126 0.0000 414.2998
v  -13.2127 0.0000 401.9327
v  13.2126 0.0000 401.9327
v  -13.2127 0.0000 389.5655
v  13.2126 0.0000 389.5655
v  -13.2127 0.0000 377.1983
v  13.2126 0.0000 377.1983
v  -13.2127 0.0000 364.8312
v  13.2126 0.0000 364.8312
v  -13.2127 0.0000 352.4640
v  13.2126 0.0000 352.4640
v  -13.2127 0.0000 340.0968
v  13.2126 0.0000 340.0968
v  -13.2127 0.0000 327.7296
v  13.2126 0.0000 327.7296
v  -13.2127 0.0000 315.3625
v  13.2126 0.0000 315.3625
v  -13.2127 0.0000 302.9953
v  13.2126 0.0000 302.9953
v  -13.2127 0.0000 290.6281
v  13.2126 0.0000 290.6281
v  -13.2127 0.0000 278.2610
v  13.2126 0.0000 278.2610
v  -13.2127 0.0000 265.8938
v  13.2126 0.0000 265.8938
v  -13.2127 0.0000 253.5266
v  13.2126 0.0000 253.5266
v  -13.2127 0.0000 241.1595
v  13.2126 0.0000 241.1595
v  -13.2127 0.0000 228.7923
v  13.2126 0.0000 228.7923
v  -13.2127 0.0000 216.4251
v  13.2126 0.0000 216.4251
v  -13.2127 0.0000 204.0580
v  13.2126 0.0000 204.0580
v  -13.2127 0.0000 191.6908
v  13.2126 0.0000 191.6908
v  -13.2127 0.0000 179.3236
v  13.2126 0.0000 179.3236
v  -13.2127 0.0000 166.9565
v  13.2126 0.0000 166.9565
v  -13.2126 0.0000 154.5893
v  13.2126 0.0000 154.5893
v  -13.2126 0.0000 142.2222
v  13.2126 0.0000 142.2222
v  -13.2126 0.0000 129.8550
v  13.2126 0.0000 129.8550
v  -13.2126 0.0000 117.4878
v  13.2126 0.0000 117.4878
v  -13.2126 0.0000 105.1207
v  13.2126 0.0000 105.1207
v  -13.2126 0.0000 92.7535
v  13.2126 0.0000 92.7535
v  -13.2126 0.0000 80.3864
v  13.2126 0.0000 80.3864
v  -13.2126 0.0000 68.0192
v  13.2126 0.0000 68.0192
v  -13.2126 0.0000 55.6521
v  13.2126 0.0000 55.6521
v  -13.2126 0.0000 43.2849
v  13.2126 0.0000 43.2849
v  -13.2126 0.0000 30.9177
v  13.2126 0.0000 30.9177
v  -13.2126 0.0000 18.5506
v  13.2126 0.0000 18.5506
v  -13.2126 0.0000 6.1834
v  13.2126 0.0000 6.1834
v  -13.2126 0.0000 -6.1838
v  13.2126 0.0000 -6.1838
v  -13.2126 0.0000 -18.5509
v  13.2126 0.0000 -18.5509
v  -13.2126 0.0000 -30.9181
v  13.2126 0.0000 -30.9181
v  -13.2126 0.0000 -43.2852
v  13.2126 0.0000 -43.2852
v  -13.2126 0.0000 -55.6524
v  13.2126 0.0000 -55.6524
v  -13.2126 0.0000 -68.0196
v  13.2126 0.0000 -68.0196
v  -13.2126 0.0000 -80.3867
v  13.2126 0.0000 -80.3867
v  -13.2126 0.0000 -92.7539
v  13.2126 0.0000 -92.7539
v  -13.2126 0.0000 -105.1210
v  13.2126 0.0000 -105.1210
v  -13.2126 0.0000 -117.4882
v  13.2126 0.0000 -117.4882
v  -13.2126 0.0000 -129.8553
v  13.2126 0.0000 -129.8553
v  -13.2126 0.0000 -142.2225
v  13.2126 0.0000 -142.2225
v  -13.2126 0.0000 -154.5897
v  13.2126 0.0000 -154.5897
v  -13.2126 0.0000 -166.9568
v  13.2127 0.0000 -166.9568
v  -13.2126 0.0000 -179.3240
v  13.2127 0.0000 -179.3240
v  -13.2126 0.0000 -191.6912
v  13.2127 0.0000 -191.6912
v  -13.2126 0.0000 -204.0583
v  13.2127 0.0000 -204.0583
v  -13.2126 0.0000 -216.4255
v  13.2127 0.0000 -216.4255
v  -13.2126 0.0000 -228.7927
v  13.2127 0.0000 -228.7927
v  -13.2126 0.0000 -241.1598
v  13.2127 0.0000 -241.1598
v  -13.2126 0.0000 -253.5270
v  13.2127 0.0000 -253.5270
v  -13.2126 0.0000 -265.8942
v  13.2127 0.0000 -265.8942
v  -13.2126 0.0000 -278.2613
v  13.2127 0.0000 -278.2613
v  -13.2126 0.0000 -290.6285
v  13.2127 0.0000 -290.6285
v  -13.2126 0.0000 -302.9957
v  13.2127 0.0000 -302.9957
v  -13.2126 0.0000 -315.3629
v  13.2127 0.0000 -315.3629
v  -13.2126 0.0000 -327.7300
v  13.2127 0.0000 -327.7300
v  -13.2126 0.0000 -340.0972
v  13.2127 0.0000 -340.0972
v  -13.2126 0.0000 -352.4643
v  13.2127 0.0000 -352.4643
v  -13.2126 0.0000 -364.8315
v  13.2127 0.0000 -364.8315
v  -13.2126 0.0000 -377.1987
v  13.2127 0.0000 -377.1987
v  -13.2126 0.0000 -389.5658
v  13.2127 0.0000 -389.5658
v  -13.2126 0.0000 -401.9330
v  13.2127 0.0000 -401.9330
v  -13.2126 0.0000 -414.3002
v  13.2127 0.0000 -414.3002
v  -13.2126 0.0000 -426.6673
v  13.2127 0.0000 -426.6673
v  -13.2126 0.0000 -439.0345
v  13.2127 0.0000 -439.0345
v  -13.2126 0.0000 -451.4017
v  13.2127 0.0000 -451.4017
v  -13.2126 0.0000 -463.7689
v  13.2127 0.0000 -463.7689
# 152 vertices

vn 0.0000 1.0000 -0.0000
# 1 vertex normals

vt 0.0000 0.0133 0.0000
vt 0.0000 0.0000 0.0000
vt 1.0000 0.0133 0.0000
vt 1.0000 0.0000 0.0000
vt 0.0000 0.0267 0.0000
vt 1.0000 0.0267 0.0000
vt 0.0000 0.0400 0.0000
vt 1.0000 0.0400 0.0000
vt 0.0000 0.0533 0.0000
vt 1.0000 0.0533 0.0000
vt 0.0000 0.0667 0.0000
vt 1.0000 0.0667 0.0000
vt 0.0000 0.0800 0.0000
vt 1.0000 0.0800 0.0000
vt 0.0000 0.0933 0.0000
vt 1.0000 0.0933 0.0000
vt 0.0000 0.1067 0.0000
vt 1.0000 0.1067 0.0000
vt 0.0000 0.1200 0.0000
vt 1.0000 0.1200 0.0000
vt 0.0000 0.1333 0.0000
vt 1.0000 0.1333 0.0000
vt 0.0000 0.1467 0.0000
vt 1.0000 0.1467 0.0000
vt 0.0000 0.1600 0.0000
vt 1.0000 0.1600 0.0000
vt 0.0000 0.1733 0.0000
vt 1.0000 0.1733 0.0000
vt 0.0000 0.1867 0.0000
vt 1.0000 0.1867 0.0000
vt 0.0000 0.2000 0.0000
vt 1.0000 0.2000 0.0000
vt 0.0000 0.2133 0.0000
vt 1.0000 0.2133 0.0000
vt 0.0000 0.2267 0.0000
vt 1.0000 0.2267 0.0000
vt 0.0000 0.2400 0.0000
vt 1.0000 0.2400 0.0000
vt 0.0000 0.2533 0.0000
vt 1.0000 0.2533 0.0000
vt 0.0000 0.2667 0.0000
vt 1.0000 0.2667 0.0000
vt 0.0000 0.2800 0.0000
vt 1.0000 0.2800 0.0000
vt 0.0000 0.2933 0.0000
vt 1.0000 0.2933 0.0000
vt 0.0000 0.3067 0.0000
vt 1.0000 0.3067 0.0000
vt 0.0000 0.3200 0.0000
vt 1.0000 0.3200 0.0000
vt 0.0000 0.3333 0.0000
vt 1.0000 0.3333 0.0000
vt 0.0000 0.3467 0.0000
vt 1.0000 0.3467 0.0000
vt 0.0000 0.3600 0.0000
vt 1.0000 0.3600 0.0000
vt 0.0000 0.3733 0.0000
vt 1.0000 0.3733 0.0000
vt 0.0000 0.3867 0.0000
vt 1.0000 0.3867 0.0000
vt 0.0000 0.4000 0.0000
vt 1.0000 0.4000 0.0000
vt 0.0000 0.4133 0.0000
vt 1.0000 0.4133 0.0000
vt 0.0000 0.4267 0.0000
vt 1.0000 0.4267 0.0000
vt 0.0000 0.4400 0.0000
vt 1.0000 0.4400 0.0000
vt 0.0000 0.4533 0.0000
vt 1.0000 0.4533 0.0000
vt 0.0000 0.4667 0.0000
vt 1.0000 0.4667 0.0000
vt 0.0000 0.4800 0.0000
vt 1.0000 0.4800 0.0000
vt 0.0000 0.4933 0.0000
vt 1.0000 0.4933 0.0000
vt 0.0000 0.5067 0.0000
vt 1.0000 0.5067 0.0000
vt 0.0000 0.5200 0.0000
vt 1.0000 0.5200 0.0000
vt 0.0000 0.5333 0.0000
vt 1.0000 0.5333 0.0000
vt 0.0000 0.5467 0.0000
vt 1.0000 0.5467 0.0000
vt 0.0000 0.5600 0.0000
vt 1.0000 0.5600 0.0000
vt 0.0000 0.5733 0.0000
vt 1.0000 0.5733 0.0000
vt 0.0000 0.5867 0.0000
vt 1.0000 0.5867 0.0000
vt 0.0000 0.6000 0.0000
vt 1.0000 0.6000 0.0000
vt 0.0000 0.6133 0.0000
vt 1.0000 0.6133 0.0000
vt 0.0000 0.6267 0.0000
vt 1.0000 0.6267 0.0000
vt 0.0000 0.6400 0.0000
vt 1.0000 0.6400 0.0000
vt 0.0000 0.6533 0.0000
vt 1.0000 0.6533 0.0000
vt 0.0000 0.6667 0.0000
vt 1.0000 0.6667 0.0000
vt 0.0000 0.6800 0.0000
vt 1.0000 0.6800 0.0000
vt 0.0000 0.6933 0.0000
vt 1.0000 0.6933 0.0000
vt 0.0000 0.7067 0.0000
vt 1.0000 0.7067 0.0000
vt 0.0000 0.7200 0.0000
vt 1.0000 0.7200 0.0000
vt 0.0000 0.7333 0.0000
vt 1.0000 0.7333 0.0000
vt 0.0000 0.7467 0.0000
vt 1.0000 0.7467 0.0000
vt 0.0000 0.7600 0.0000
vt 1.0000 0.7600 0.0000
vt 0.0000 0.7733 0.0000
vt 1.0000 0.7733 0.0000
vt 0.0000 0.7867 0.0000
vt 1.0000 0.7867 0.0000
vt 0.0000 0.8000 0.0000
vt 1.0000 0.8000 0.0000
vt 0.0000 0.8133 0.0000
vt 1.0000 0.8133 0.0000
vt 0.0000 0.8267 0.0000
vt 1.0000 0.8267 0.0000
vt 0.0000 0.8400 0.0000
vt 1.0000 0.8400 0.0000
vt 0.0000 0.8533 0.0000
vt 1.0000 0.8533 0.0000
vt 0.0000 0.8667 0.0000
vt 1.0000 0.8667 0.0000
vt 0.0000 0.8800 0.0000
vt 1.0000 0.8800 0.0000
vt 0.0000 0.8933 0.0000
vt 1.0000 0.8933 0.0000
vt 0.0000 0.9067 0.0000
vt 1.0000 0.9067 0.0000
vt 0.0000 0.9200 0.0000
vt 1.0000 0.9200 0.0000
vt 0.0000 0.9333 0.0000
vt 1.0000 0.9333 0.0000
vt 0.0000 0.9467 0.0000
vt 1.0000 0.9467 0.0000
vt 0.0000 0.9600 0.0000
vt 1.0000 0.9600 0.0000
vt 0.0000 0.9733 0.0000
vt 1.0000 0.9733 0.0000
vt 0.0000 0.9867 0.0000
vt 1.0000 0.9867 0.0000
vt 0.0000 1.0000 0.0000
vt 1.0000 1.0000 0.0000
# 152 texture coords

g Plane003
usemtl Material__78
f 1/1/1 2/2/1 3/3/1 
f 4/4/1 3/3/1 2/2/1 
f 5/5/1 1/1/1 6/6/1 
f 3/3/1 6/6/1 1/1/1 
f 7/7/1 5/5/1 8/8/1 
f 6/6/1 8/8/1 5/5/1 
f 9/9/1 7/7/1 10/10/1 
f 8/8/1 10/10/1 7/7/1 
f 11/11/1 9/9/1 12/12/1 
f 10/10/1 12/12/1 9/9/1 
f 13/13/1 11/11/1 14/14/1 
f 12/12/1 14/14/1 11/11/1 
f 15/15/1 13/13/1 16/16/1 
f 14/14/1 16/16/1 13/13/1 
f 17/17/1 15/15/1 18/18/1 
f 16/16/1 18/18/1 15/15/1 
f 19/19/1 17/17/1 20/20/1 
f 18/18/1 20/20/1 17/17/1 
f 21/21/1 19/19/1 22/22/1 
f 20/20/1 22/22/1 19/19/1 
f 23/23/1 21/21/1 24/24/1 
f 22/22/1 24/24/1 21/21/1 
f 25/25/1 23/23/1 26/26/1 
f 24/24/1 26/26/1 23/23/1 
f 27/27/1 25/25/1 28/28/1 
f 26/26/1 28/28/1 25/25/1 
f 29/29/1 27/27/1 30/30/1 
f 28/28/1 30/30/1 27/27/1 
f 31/31/1 29/29/1 32/32/1 
f 30/30/1 32/32/1 29/29/1 
f 33/33/1 31/31/1 34/34/1 
f 32/32/1 34/34/1 31/31/1 
f 35/35/1 33/33/1 36/36/1 
f 34/34/1 36/36/1 33/33/1 
f 37/37/1 35/35/1 38/38/1 
f 36/36/1 38/38/1 35/35/1 
f 39/39/1 37/37/1 40/40/1 
f 38/38/1 40/40/1 37/37/1 
f 41/41/1 39/39/1 42/42/1 
f 40/40/1 42/42/1 39/39/1 
f 43/43/1 41/41/1 44/44/1 
f 42/42/1 44/44/1 41/41/1 
f 45/45/1 43/43/1 46/46/1 
f 44/44/1 46/46/1 43/43/1 
f 47/47/1 45/45/1 48/48/1 
f 46/46/1 48/48/1 45/45/1 
f 49/49/1 47/47/1 50/50/1 
f 48/48/1 50/50/1 47/47/1 
f 51/51/1 49/49/1 52/52/1 
f 50/50/1 52/52/1 49/49/1 
f 53/53/1 51/51/1 54/54/1 
f 52/52/1 54/54/1 51/51/1 
f 55/55/1 53/53/1 56/56/1 
f 54/54/1 56/56/1 53/53/1 
f 57/57/1 55/55/1 58/58/1 
f 56/56/1 58/58/1 55/55/1 
f 59/59/1 57/57/1 60/60/1 
f 58/58/1 60/60/1 57/57/1 
f 61/61/1 59/59/1 62/62/1 
f 60/60/1 62/62/1 59/59/1 
f 63/63/1 61/61/1 64/64/1 
f 62/62/1 64/64/1 61/61/1 
f 65/65/1 63/63/1 66/66/1 
f 64/64/1 66/66/1 63/63/1 
f 67/67/1 65/65/1 68/68/1 
f 66/66/1 68/68/1 65/65/1 
f 69/69/1 67/67/1 70/70/1 
f 68/68/1 70/70/1 67/67/1 
f 71/71/1 69/69/1 72/72/1 
f 70/70/1 72/72/1 69/69/1 
f 73/73/1 71/71/1 74/74/1 
f 72/72/1 74/74/1 71/71/1 
f 75/75/1 73/73/1 76/76/1 
f 74/74/1 76/76/1 73/73/1 
f 77/77/1 75/75/1 78/78/1 
f 76/76/1 78/78/1 75/75/1 
f 79/79/1 77/77/1 80/80/1 
f 78/78/1 80/80/1 77/77/1 
f 81/81/1 79/79/1 82/82/1 
f 80/80/1 82/82/1 79/79/1 
f 83/83/1 81/81/1 84/84/1 
f 82/82/1 84/84/1 81/81/1 
f 85/85/1 83/83/1 86/86/1 
f 84/84/1 86/86/1 83/83/1 
f 87/87/1 85/85/1 88/88/1 
f 86/86/1 88/88/1 85/85/1 
f 89/89/1 87/87/1 90/90/1 
f 88/88/1 90/90/1 87/87/1 
f 91/91/1 89/89/1 92/92/1 
f 90/90/1 92/92/1 89/89/1 
f 93/93/1 91/91/1 94/94/1 
f 92/92/1 94/94/1 91/91/1 
f 95/95/1 93/93/1 96/96/1 
f 94/94/1 96/96/1 93/93/1 
f 97/97/1 95/95/1 98/98/1 
f 96/96/1 98/98/1 95/95/1 
f 99/99/1 97/97/1 100/100/1 
f 98/98/1 100/100/1 97/97/1 
f 101/101/1 99/99/1 102/102/1 
f 100/100/1 102/102/1 99/99/1 
f 103/103/1 101/101/1 104/104/1 
f 102/102/1 104/104/1 101/101/1 
f 105/105/1 103/103/1 106/106/1 
f 104/104/1 106/106/1 103/103/1 
f 107/107/1 105/105/1 108/108/1 
f 106/106/1 108/108/1 105/105/1 
f 109/109/1 107/107/1 110/110/1 
f 108/108/1 110/110/1 107/107/1 
f 111/111/1 109/109/1 112/112/1 
f 110/110/1 112/112/1 109/109/1 
f 113/113/1 111/111/1 114/114/1 
f 112/112/1 114/114/1 111/111/1 
f 115/115/1 113/113/1 116/116/1 
f 114/114/1 116/116/1 113/113/1 
f 117/117/1 115/115/1 118/118/1 
f 116/116/1 118/118/1 115/115/1 
f 119/119/1 117/117/1 120/120/1 
f 118/118/1 120/120/1 117/117/1 
f 121/121/1 119/119/1 122/122/1 
f 120/120/1 122/122/1 119/119/1 
f 123/123/1 121/121/1 124/124/1 
f 122/122/1 124/124/1 121/121/1 
f 125/125/1 123/123/1 126/126/1 
f 124/124/1 126/126/1 123/123/1 
f 127/127/1 125/125/1 128/128/1 
f 126/126/1 128/128/1 125/125/1 
f 129/129/1 127/127/1 130/130/1 
f 128/128/1 130/130/1 127/127/1 
f 131/131/1 129/129/1 132/132/1 
f 130/130/1 132/132/1 129/129/1 
f 133/133/1 131/131/1 134/134/1 
f 132/132/1 134/134/1 131/131/1 
f 135/135/1 133/133/1 136/136/1 
f 134/134/1 136/136/1 133/133/1 
f 137/137/1 135/135/1 138/138/1 
f 136/136/1 138/138/1 135/135/1 
f 139/139/1 137/137/1 140/140/1 
f 138/138/1 140/140/1 137/137/1 
f 141/141/1 139/139/1 142/142/1 
f 140/140/1 142/142/1 139/139/1 
f 143/143/1 141/141/1 144/144/1 
f 142/142/1 144/144/1 141/141/1 
f 145/145/1 143/143/1 146/146/1 
f 144/144/1 146/146/1 143/143/1 
f 147/147/1 145/145/1 148/148/1 
f 146/146/1 148/148/1 145/145/1 
f 149/149/1 147/147/1 150/150/1 
f 148/148/1 150/150/1 147/147/1 
f 151/151/1 149/149/1 152/152/1 
f 150/150/1 152/152/1 149/149/1 
# 150 faces

