# 3ds Max Wavefront OBJ Exporter v0.97b - (c)2007 guruware
# File Created: 09.12.2016 18:25:26

mtllib WoodBox.mtl

#
# object Wood_container007
#

v  1.0540 -1.0540 1.2191
v  1.0540 1.0540 1.2191
v  -1.0540 1.0540 1.2191
v  -1.0540 -1.0540 1.2191
v  -1.0540 1.0540 -1.2191
v  1.0540 1.0540 -1.2191
v  1.0540 -1.0540 -1.2191
v  -1.0540 -1.0540 -1.2191
v  -1.0540 -1.2191 -1.0540
v  1.0540 -1.2191 -1.0540
v  1.0540 -1.2191 1.0540
v  -1.0540 -1.2191 1.0540
v  1.2191 -1.0540 -1.0540
v  1.2191 1.0540 -1.0540
v  1.2191 1.0540 1.0540
v  1.2191 -1.0540 1.0540
v  1.0540 1.2191 -1.0540
v  -1.0540 1.2191 -1.0540
v  -1.0540 1.2191 1.0540
v  1.0540 1.2191 1.0540
v  -1.2191 1.0540 -1.0540
v  -1.2191 -1.0540 -1.0540
v  -1.2191 -1.0540 1.0540
v  -1.2191 1.0540 1.0540
v  1.2699 -1.2699 1.2699
v  1.0540 -1.0540 1.2699
v  -1.0540 -1.0540 1.2699
v  -1.2699 -1.2699 1.2699
v  1.2699 1.2699 1.2699
v  1.0540 1.0540 1.2699
v  -1.2699 1.2699 1.2699
v  -1.0540 1.0540 1.2699
v  -1.2699 1.2699 -1.2699
v  -1.0540 1.0540 -1.2699
v  -1.0540 -1.0540 -1.2699
v  -1.2699 -1.2699 -1.2699
v  1.2699 1.2699 -1.2699
v  1.0540 1.0540 -1.2699
v  1.2699 -1.2699 -1.2699
v  1.0540 -1.0540 -1.2699
v  -1.0540 -1.2699 -1.0540
v  -1.0540 -1.2699 1.0540
v  1.0540 -1.2699 -1.0540
v  1.0540 -1.2699 1.0540
v  1.2699 -1.0540 -1.0540
v  1.2699 -1.0540 1.0540
v  1.2699 1.0540 -1.0540
v  1.2699 1.0540 1.0540
v  1.0540 1.2699 -1.0540
v  1.0540 1.2699 1.0540
v  -1.0540 1.2699 -1.0540
v  -1.0540 1.2699 1.0540
v  -1.2699 1.0540 -1.0540
v  -1.2699 1.0540 1.0540
v  -1.2699 -1.0540 -1.0540
v  -1.2699 -1.0540 1.0540
# 56 vertices

vn 0.0000 0.0000 1.0000
vn -0.0000 0.0000 -1.0000
vn 0.0000 -1.0000 -0.0000
vn 1.0000 0.0000 -0.0000
vn 0.0000 1.0000 -0.0000
vn -1.0000 0.0000 0.0000
# 6 vertex normals

vt 0.4543 0.5490 0.9800
vt 0.4543 0.9471 0.9800
vt 0.0562 0.9471 0.9800
vt 0.0562 0.5490 0.9800
vt 0.4543 0.9471 0.0200
vt 0.0562 0.9471 0.0200
vt 0.0562 0.5490 0.0200
vt 0.4543 0.5490 0.0200
vt 0.9476 0.0582 0.0200
vt 0.5534 0.0582 0.0200
vt 0.5534 0.4524 0.0200
vt 0.9476 0.4524 0.0200
vt 0.9477 0.5509 0.9800
vt 0.9477 0.9452 0.9800
vt 0.5534 0.9452 0.9800
vt 0.5534 0.5509 0.9800
vt 0.0581 0.0582 0.9800
vt 0.4523 0.0582 0.9800
vt 0.4523 0.4524 0.9800
vt 0.0581 0.4524 0.9800
vt 0.9477 0.9452 0.0200
vt 0.9477 0.5509 0.0200
vt 0.5534 0.5509 0.0200
vt 0.5534 0.9452 0.0200
vt 0.4975 0.5058 1.0000
vt 0.4563 0.5470 1.0000
vt 0.0542 0.5470 1.0000
vt 0.0130 0.5058 1.0000
vt 0.4975 0.9903 1.0000
vt 0.4563 0.9491 1.0000
vt 0.0130 0.9903 1.0000
vt 0.0542 0.9491 1.0000
vt 0.4975 0.9903 0.0000
vt 0.4563 0.9491 0.0000
vt 0.4563 0.5470 0.0000
vt 0.4975 0.5058 0.0000
vt 0.0130 0.9903 0.0000
vt 0.0542 0.9491 0.0000
vt 0.0130 0.5058 0.0000
vt 0.0542 0.5470 0.0000
vt 0.9928 0.0131 0.0000
vt 0.9516 0.0542 0.0000
vt 0.9516 0.4564 0.0000
vt 0.9928 0.4976 0.0000
vt 0.5083 0.0131 0.0000
vt 0.5494 0.0542 0.0000
vt 0.5083 0.4976 0.0000
vt 0.5494 0.4564 0.0000
vt 0.9928 0.5058 1.0000
vt 0.9516 0.5470 1.0000
vt 0.5495 0.5470 1.0000
vt 0.5083 0.5058 1.0000
vt 0.9928 0.9903 1.0000
vt 0.9516 0.9491 1.0000
vt 0.5083 0.9903 1.0000
vt 0.5495 0.9491 1.0000
vt 0.0129 0.0131 1.0000
vt 0.0541 0.0542 1.0000
vt 0.0541 0.4564 1.0000
vt 0.0129 0.4976 1.0000
vt 0.4974 0.0131 1.0000
vt 0.4563 0.0542 1.0000
vt 0.4974 0.4976 1.0000
vt 0.4563 0.4564 1.0000
vt 0.9928 0.9903 0.0000
vt 0.9516 0.9491 0.0000
vt 0.5495 0.9491 0.0000
vt 0.5083 0.9903 0.0000
vt 0.9928 0.5058 0.0000
vt 0.9516 0.5470 0.0000
vt 0.5083 0.5058 0.0000
vt 0.5495 0.5470 0.0000
vt 0.4899 0.5103 0.0000
vt 0.4899 0.5285 0.0000
vt 0.0144 0.5285 0.0000
vt 0.0144 0.5103 0.0000
vt 0.0144 0.5286 0.0000
vt 0.0144 0.5104 0.0000
vt 0.4899 0.5104 0.0000
vt 0.4899 0.5286 0.0000
# 80 texture coords

g Wood_container007
usemtl Material__235
f 1/1/1 2/2/1 3/3/1 
f 3/3/1 4/4/1 1/1/1 
f 5/5/2 6/6/2 7/7/2 
f 7/7/2 8/8/2 5/5/2 
f 9/9/3 10/10/3 11/11/3 
f 11/11/3 12/12/3 9/9/3 
f 13/13/4 14/14/4 15/15/4 
f 15/15/4 16/16/4 13/13/4 
f 17/17/5 18/18/5 19/19/5 
f 19/19/5 20/20/5 17/17/5 
f 21/21/6 22/22/6 23/23/6 
f 23/23/6 24/24/6 21/21/6 
f 25/25/1 26/26/1 27/27/1 
f 27/27/1 28/28/1 25/25/1 
f 29/29/1 30/30/1 26/26/1 
f 26/26/1 25/25/1 29/29/1 
f 31/31/1 32/32/1 30/30/1 
f 30/30/1 29/29/1 31/31/1 
f 28/28/1 27/27/1 32/32/1 
f 32/32/1 31/31/1 28/28/1 
f 33/33/2 34/34/2 35/35/2 
f 35/35/2 36/36/2 33/33/2 
f 37/37/2 38/38/2 34/34/2 
f 34/34/2 33/33/2 37/37/2 
f 39/39/2 40/40/2 38/38/2 
f 38/38/2 37/37/2 39/39/2 
f 36/36/2 35/35/2 40/40/2 
f 40/40/2 39/39/2 36/36/2 
f 36/41/3 41/42/3 42/43/3 
f 42/43/3 28/44/3 36/41/3 
f 39/45/3 43/46/3 41/42/3 
f 41/42/3 36/41/3 39/45/3 
f 25/47/3 44/48/3 43/46/3 
f 43/46/3 39/45/3 25/47/3 
f 28/44/3 42/43/3 44/48/3 
f 44/48/3 25/47/3 28/44/3 
f 39/49/4 45/50/4 46/51/4 
f 46/51/4 25/52/4 39/49/4 
f 37/53/4 47/54/4 45/50/4 
f 45/50/4 39/49/4 37/53/4 
f 29/55/4 48/56/4 47/54/4 
f 47/54/4 37/53/4 29/55/4 
f 25/52/4 46/51/4 48/56/4 
f 48/56/4 29/55/4 25/52/4 
f 37/57/5 49/58/5 50/59/5 
f 50/59/5 29/60/5 37/57/5 
f 33/61/5 51/62/5 49/58/5 
f 49/58/5 37/57/5 33/61/5 
f 31/63/5 52/64/5 51/62/5 
f 51/62/5 33/61/5 31/63/5 
f 29/60/5 50/59/5 52/64/5 
f 52/64/5 31/63/5 29/60/5 
f 33/65/6 53/66/6 54/67/6 
f 54/67/6 31/68/6 33/65/6 
f 36/69/6 55/70/6 53/66/6 
f 53/66/6 33/65/6 36/69/6 
f 28/71/6 56/72/6 55/70/6 
f 55/70/6 36/69/6 28/71/6 
f 31/68/6 54/67/6 56/72/6 
f 56/72/6 28/71/6 31/68/6 
f 26/73/5 1/74/5 4/75/5 
f 4/75/5 27/76/5 26/73/5 
f 30/73/6 2/74/6 1/75/6 
f 1/75/6 26/76/6 30/73/6 
f 32/73/3 3/74/3 2/75/3 
f 2/75/3 30/76/3 32/73/3 
f 27/73/4 4/74/4 3/75/4 
f 3/75/4 32/76/4 27/73/4 
f 34/77/4 5/78/4 8/79/4 
f 8/79/4 35/80/4 34/77/4 
f 38/75/3 6/78/3 5/79/3 
f 5/79/3 34/74/3 38/75/3 
f 40/77/6 7/78/6 6/79/6 
f 6/79/6 38/80/6 40/77/6 
f 35/77/5 8/78/5 7/79/5 
f 7/79/5 40/80/5 35/77/5 
f 41/77/4 9/78/4 12/79/4 
f 12/79/4 42/80/4 41/77/4 
f 43/75/1 10/76/1 9/73/1 
f 9/73/1 41/74/1 43/75/1 
f 44/79/6 11/80/6 10/77/6 
f 10/77/6 43/78/6 44/79/6 
f 42/79/2 12/80/2 11/77/2 
f 11/77/2 44/78/2 42/79/2 
f 45/75/5 13/76/5 16/73/5 
f 16/73/5 46/74/5 45/75/5 
f 47/79/1 14/80/1 13/77/1 
f 13/77/1 45/78/1 47/79/1 
f 48/79/3 15/80/3 14/77/3 
f 14/77/3 47/78/3 48/79/3 
f 46/79/2 16/80/2 15/77/2 
f 15/77/2 48/78/2 46/79/2 
f 49/75/6 17/76/6 20/73/6 
f 20/73/6 50/74/6 49/75/6 
f 51/79/1 18/80/1 17/77/1 
f 17/77/1 49/78/1 51/79/1 
f 52/79/4 19/80/4 18/77/4 
f 18/77/4 51/78/4 52/79/4 
f 50/77/2 20/78/2 19/79/2 
f 19/79/2 52/80/2 50/77/2 
f 53/77/3 21/78/3 24/79/3 
f 24/79/3 54/80/3 53/77/3 
f 55/77/1 22/78/1 21/79/1 
f 21/79/1 53/80/1 55/77/1 
f 56/79/5 23/80/5 22/77/5 
f 22/77/5 55/78/5 56/79/5 
f 54/75/2 24/78/2 23/79/2 
f 23/79/2 56/74/2 54/75/2 
# 108 faces

