# 3ds Max Wavefront OBJ Exporter v0.97b - (c)2007 guruware
# File Created: 22.01.2017 22:23:49

mtllib muzzleFlashObj.mtl

#
# object Plane001
#

v  -3.3242 0.9400 -0.4227
v  -3.3242 0.9400 0.2391
v  -3.3242 0.2782 -0.4227
v  -3.3242 0.2782 0.2391
# 4 vertices

vn 1.0000 0.0000 -0.0000
# 1 vertex normals

vt 0.0000 1.0000 0.0000
vt 0.0000 0.0000 0.0000
vt 1.0000 1.0000 0.0000
vt 1.0000 0.0000 0.0000
# 4 texture coords

g Plane001
usemtl _muzzleFlashObjMaterial__25
f 1/1/1 2/2/1 3/3/1 
f 4/4/1 3/3/1 2/2/1 
# 2 faces

