# 3ds Max Wavefront OBJ Exporter v0.97b - (c)2007 guruware
# File Created: 02.01.2017 16:30:17

mtllib Broken2.mtl

#
# object wooden_fence_small_broken_1poleR001
#

v  -4.3449 0.8342 -0.2747
v  -4.7737 0.6818 -0.2936
v  -4.9938 0.5064 -0.2936
v  -4.3873 0.0127 -0.2747
v  -4.7532 0.0120 -0.2936
v  -4.7881 0.4494 -0.2936
v  -4.7371 0.1372 -0.2936
v  -4.9598 0.3540 -0.2936
v  0.1198 1.0324 -0.0949
v  4.7427 1.4626 -0.2936
v  4.7427 2.2841 -0.2936
v  0.1198 1.8539 -0.0949
v  -4.9598 0.3540 -0.6346
v  -4.7881 0.4494 -0.6346
v  -4.9938 0.5064 -0.6346
v  -4.7371 0.1372 -0.6346
v  -4.7737 0.6818 -0.6346
v  -4.3449 0.8342 -0.6157
v  -4.3873 0.0127 -0.6157
v  -4.7532 0.0120 -0.6346
v  4.7427 2.2841 -0.6346
v  4.7427 1.4626 -0.6346
v  0.1198 1.0324 -0.4359
v  0.1198 1.8539 -0.4359
v  -5.0215 2.9507 -0.2936
v  -4.7812 2.8374 -0.2936
v  -4.2172 2.8995 -0.2747
v  -4.8650 3.0872 -0.2936
v  -4.9319 3.1638 -0.2936
v  -4.7618 3.3038 -0.2936
v  -4.4708 3.6821 -0.2747
v  -4.9920 3.4047 -0.2936
v  4.8137 4.4963 -0.2936
v  -1.2808 3.9288 -0.0949
v  -1.2092 3.1104 -0.0949
v  4.8137 3.6748 -0.2936
v  -4.9920 3.4047 -0.6346
v  -4.4708 3.6821 -0.6157
v  -4.2172 2.8995 -0.6157
v  -4.7618 3.3038 -0.6346
v  -4.7812 2.8374 -0.6346
v  -5.0215 2.9507 -0.6346
v  -4.8650 3.0872 -0.6346
v  -4.9319 3.1638 -0.6346
v  4.8137 3.6748 -0.6346
v  -1.2092 3.1104 -0.4359
v  -1.2808 3.9288 -0.4359
v  4.8137 4.4963 -0.6346
v  3.2597 2.0120 -0.8772
v  3.0953 2.0120 -0.4802
v  3.1445 5.6341 -0.3791
v  3.3089 5.6341 -0.7761
v  3.7059 5.6341 -0.9405
v  3.6567 2.0120 -1.0416
v  4.1029 5.6341 -0.7761
v  4.0537 2.0120 -0.8772
v  4.2673 5.6341 -0.3791
v  4.2181 2.0120 -0.4802
v  4.1029 5.6341 0.0179
v  4.0537 2.0120 -0.0832
v  3.7059 5.6341 0.1823
v  3.6567 2.0120 0.0812
v  3.3089 5.6341 0.0179
v  3.2597 2.0120 -0.0832
v  3.3089 0.0250 -0.7761
v  3.1445 0.0250 -0.3791
v  3.7059 0.0250 -0.9405
v  4.1029 0.0250 -0.7761
v  4.2673 0.0250 -0.3791
v  4.1029 0.0250 0.0179
v  3.7059 0.0250 0.1823
v  3.3089 0.0250 0.0179
# 72 vertices

vn -0.0427 0.0013 0.9991
vn -0.0316 0.0020 0.9995
vn 0.0000 0.0000 1.0000
vn -0.0473 0.0028 0.9989
vn -0.0515 0.0066 0.9986
vn -0.0209 -0.0019 0.9998
vn -0.0416 0.0021 0.9991
vn -0.0025 0.0000 1.0000
vn 0.0429 0.0000 0.9991
vn 0.0059 0.0001 1.0000
vn 0.0000 0.0000 -1.0000
vn 0.0226 0.0149 -0.9996
vn 0.0253 0.0074 -0.9997
vn 0.0464 0.0025 -0.9989
vn 0.0788 -0.0989 -0.9920
vn 0.0406 -0.0029 -0.9992
vn 0.0456 -0.0008 -0.9990
vn 0.0515 -0.0066 -0.9986
vn -0.0429 0.0000 -0.9991
vn 0.0027 -0.0001 -1.0000
vn -0.0057 0.0000 -1.0000
vn -0.4877 0.8730 -0.0000
vn -0.4839 0.8751 -0.0000
vn -0.2778 0.9606 -0.0000
vn -0.2807 0.9598 -0.0000
vn -0.0927 0.9957 -0.0000
vn -0.1579 0.9875 -0.0000
vn -0.1581 0.9874 -0.0000
vn 1.0000 0.0000 -0.0000
vn 0.1571 -0.9876 -0.0000
vn 0.1569 -0.9876 -0.0000
vn 0.0927 -0.9957 -0.0000
vn 0.1152 -0.9933 -0.0000
vn 0.1089 -0.9941 -0.0000
vn -0.4855 0.8742 -0.0000
vn -0.6233 0.7820 -0.0000
vn -0.9918 0.1279 -0.0000
vn -0.2673 -0.9636 -0.0000
vn -0.6976 -0.7165 -0.0000
vn 0.0020 -1.0000 -0.0000
vn -0.0221 -0.0073 0.9997
vn -0.0471 -0.0153 0.9988
vn -0.0201 -0.0026 0.9998
vn -0.1008 0.0321 0.9944
vn -0.0458 -0.0151 0.9988
vn -0.0163 -0.0373 0.9992
vn 0.0329 0.0003 0.9995
vn -0.0119 -0.0010 0.9999
vn -0.0118 -0.0022 0.9999
vn 0.0330 0.0000 0.9995
vn 0.0163 0.0373 -0.9992
vn 0.0444 0.0159 -0.9989
vn 0.0456 0.0136 -0.9989
vn 0.1008 -0.0321 -0.9944
vn 0.0221 0.0073 -0.9997
vn 0.0201 0.0026 -0.9998
vn -0.0330 0.0000 -0.9995
vn 0.0133 0.0013 -0.9999
vn 0.0132 0.0022 -0.9999
vn -0.0329 -0.0003 -0.9995
vn -0.1618 -0.9868 -0.0000
vn -0.1677 -0.9858 -0.0000
vn 0.0903 -0.9959 -0.0000
vn 0.0891 -0.9960 -0.0000
vn 0.0815 -0.9967 -0.0000
vn 0.0933 -0.9956 -0.0000
vn 0.0817 -0.9967 -0.0000
vn -0.0849 0.9964 -0.0000
vn -0.0850 0.9964 -0.0000
vn -0.2850 0.9585 -0.0000
vn -0.2738 0.9618 -0.0000
vn -0.7529 -0.6582 -0.0000
vn -0.4265 -0.9045 -0.0000
vn -0.4012 -0.9160 -0.0000
vn -0.6571 0.7538 -0.0000
vn -0.6357 0.7720 -0.0000
vn -0.4698 0.8828 -0.0000
vn -0.7046 -0.0120 -0.7095
vn -0.9999 -0.0058 -0.0095
vn -0.9999 0.0134 0.0068
vn -0.7086 0.0293 -0.7050
vn 0.0033 0.0279 -0.9996
vn -0.0046 -0.0114 -0.9999
vn 0.7121 0.0099 -0.7020
vn 0.7000 -0.0044 -0.7142
vn 0.9999 -0.0138 0.0068
vn 0.9999 0.0054 -0.0097
vn 0.7051 -0.0294 0.7085
vn 0.7096 0.0121 0.7045
vn 0.0033 -0.0279 0.9996
vn -0.0047 0.0115 0.9999
vn -0.7020 -0.0103 0.7121
vn -0.7142 0.0039 0.6999
vn -0.7093 -0.0533 -0.7029
vn -0.9996 -0.0241 0.0125
vn 0.0061 -0.0507 -0.9987
vn 0.7162 -0.0178 -0.6977
vn 0.9996 0.0254 0.0123
vn 0.7030 0.0535 0.7092
vn 0.0059 0.0510 0.9987
vn -0.6978 0.0192 0.7161
vn 0.0000 1.0000 -0.0000
vn 0.0000 -1.0000 -0.0000
# 103 vertex normals

vt 7.2256 -0.2266 -1.4401
vt 7.0947 -0.2731 -1.4343
vt 7.0276 -0.3266 -1.4343
vt 7.2126 -0.4773 -1.4401
vt 7.1010 -0.4775 -1.4343
vt 7.0903 -0.3441 -1.4343
vt 7.1059 -0.4393 -1.4343
vt 7.0379 -0.3731 -1.4343
vt 8.5880 -0.1661 -1.4950
vt 9.9987 -0.0349 -1.4343
vt 9.9987 0.2158 -1.4343
vt 8.5880 0.0845 -1.4950
vt -6.0379 -0.3731 -1.3303
vt -6.0903 -0.3441 -1.3303
vt -6.0276 -0.3266 -1.3303
vt -6.1059 -0.4393 -1.3303
vt -6.0947 -0.2731 -1.3303
vt -6.2256 -0.2266 -1.3360
vt -6.2126 -0.4773 -1.3360
vt -6.1010 -0.4775 -1.3303
vt -8.9987 0.2158 -1.3303
vt -8.9987 -0.0349 -1.3303
vt -7.5880 -0.1661 -1.3909
vt -7.5880 0.0845 -1.3909
vt 7.0947 -1.3303 -0.2731
vt 7.0947 -1.4343 -0.2731
vt 7.2256 -1.4401 -0.2266
vt 7.2256 -1.3360 -0.2266
vt 9.9987 -1.4343 0.2158
vt 9.9987 -1.3303 0.2158
vt 8.5880 -1.3909 0.0845
vt 8.5880 -1.4950 0.0845
vt -1.4343 -0.0349 9.9987
vt -1.3303 -0.0349 9.9987
vt -1.3303 0.2158 9.9987
vt -1.4343 0.2158 9.9987
vt -7.5880 -1.4950 -0.1661
vt -7.5880 -1.3909 -0.1661
vt -8.9987 -1.3303 -0.0349
vt -8.9987 -1.4343 -0.0349
vt -6.2126 -1.4401 -0.4773
vt -6.2126 -1.3360 -0.4773
vt 7.0903 -1.4343 -0.3441
vt 7.0903 -1.3303 -0.3441
vt 7.0379 -1.3303 -0.3731
vt 7.0379 -1.4343 -0.3731
vt 7.0276 -1.3303 -0.3266
vt 7.0276 -1.4343 -0.3266
vt 2.4343 -0.4393 7.1059
vt 2.3303 -0.4393 7.1059
vt 2.3303 -0.4775 7.1010
vt 2.4343 -0.4775 7.1010
vt -6.0276 -1.4343 -0.3266
vt -6.0276 -1.3303 -0.3266
vt -6.0903 -1.3303 -0.3441
vt -6.0903 -1.4343 -0.3441
vt -6.1059 -1.4343 -0.4393
vt -6.0379 -1.4343 -0.3731
vt -6.0379 -1.3303 -0.3731
vt -6.1059 -1.3303 -0.4393
vt -6.1010 -1.4343 -0.4775
vt -6.1010 -1.3303 -0.4775
vt 7.0191 0.4193 -1.4343
vt 7.0924 0.3847 -1.4343
vt 7.2645 0.4036 -1.4401
vt 7.0669 0.4609 -1.4343
vt 7.0464 0.4843 -1.4343
vt 7.0983 0.5270 -1.4343
vt 7.1871 0.6424 -1.4401
vt 7.0281 0.5578 -1.4343
vt 10.0204 0.8909 -1.4343
vt 8.1606 0.7177 -1.4950
vt 8.1824 0.4680 -1.4950
vt 10.0204 0.6402 -1.4343
vt -6.0281 0.5578 -1.3303
vt -6.1871 0.6424 -1.3360
vt -6.2645 0.4036 -1.3360
vt -6.0983 0.5270 -1.3303
vt -6.0924 0.3847 -1.3303
vt -6.0191 0.4193 -1.3303
vt -6.0669 0.4609 -1.3303
vt -6.0464 0.4843 -1.3303
vt -9.0204 0.6402 -1.3303
vt -7.1824 0.4680 -1.3909
vt -7.1606 0.7177 -1.3909
vt -9.0204 0.8909 -1.3303
vt -6.0924 -1.4343 0.3847
vt -6.0924 -1.3303 0.3847
vt -6.2645 -1.3360 0.4036
vt -6.2645 -1.4401 0.4036
vt -7.1824 -1.3909 0.4680
vt -9.0204 -1.3303 0.6402
vt -9.0204 -1.4343 0.6402
vt -7.1824 -1.4950 0.4680
vt -1.4343 0.6402 10.0204
vt -1.3303 0.6402 10.0204
vt -1.3303 0.8909 10.0204
vt -1.4343 0.8909 10.0204
vt 10.0204 -1.3303 0.8909
vt 8.1606 -1.3909 0.7177
vt 8.1606 -1.4950 0.7177
vt 10.0204 -1.4343 0.8909
vt 7.1871 -1.3360 0.6424
vt 7.1871 -1.4401 0.6424
vt 2.4343 0.4609 7.0669
vt 2.4343 0.4843 7.0464
vt 2.3303 0.4843 7.0464
vt 2.3303 0.4609 7.0669
vt -6.0191 -1.4343 0.4193
vt -6.0191 -1.3303 0.4193
vt -6.0281 -1.3303 0.5578
vt -6.0983 -1.3303 0.5270
vt -6.0983 -1.4343 0.5270
vt -6.0281 -1.4343 0.5578
vt 7.0669 -1.4343 0.4609
vt 7.0669 -1.3303 0.4609
vt 7.0191 -1.3303 0.4193
vt 7.0191 -1.4343 0.4193
vt 7.0464 -1.4343 0.4843
vt 7.0983 -1.4343 0.5270
vt 7.0983 -1.3303 0.5270
vt 7.0464 -1.3303 0.4843
vt 7.0281 -1.3303 0.5578
vt 7.0281 -1.4343 0.5578
vt 0.8893 0.5932 0.1844
vt 0.7728 0.5932 0.1686
vt 0.7438 0.1803 0.1524
vt 0.8809 0.1803 0.1523
vt 1.0138 0.1803 0.1609
vt 0.9994 0.5932 0.1902
vt -0.0006 0.5932 0.1902
vt 0.0138 0.1803 0.1609
vt 0.1379 0.1803 0.1724
vt 0.1098 0.5932 0.1835
vt 0.2552 0.1803 0.1802
vt 0.2271 0.5932 0.1672
vt 0.3700 0.1803 0.1803
vt 0.3574 0.5932 0.1496
vt 0.4872 0.1803 0.1726
vt 0.5008 0.5932 0.1422
vt 0.6112 0.1803 0.1612
vt 0.6435 0.5932 0.1507
vt 0.8809 0.8197 0.1523
vt 0.7438 0.8197 0.1524
vt 1.0138 0.8197 0.1609
vt 1.1098 0.5932 0.1835
vt 1.1379 0.8197 0.1724
vt 0.1379 0.8197 0.1724
vt 0.2552 0.8197 0.1802
vt 0.3700 0.8197 0.1803
vt 0.4872 0.8197 0.1726
vt 0.6112 0.8197 0.1612
vt 0.5000 0.9269 0.5000
vt 0.1846 0.8019 1.5000
vt 0.0540 0.5000 1.5000
vt 0.1846 0.1981 1.5000
vt 0.5000 0.0731 0.5000
vt 0.8154 0.1981 0.5000
vt 0.9460 0.5000 0.5000
vt 0.8154 0.8019 0.5000
vt 0.5000 0.0580 0.5000
vt 0.1846 0.1874 0.5000
vt 0.0540 0.5000 0.5000
vt 0.1846 0.8126 0.5000
vt 0.5000 0.9420 0.5000
vt 0.8154 0.8126 0.5000
vt 0.8154 0.1874 0.5000
# 167 texture coords

g wooden_fence_small_broken_1poleR001
usemtl _wooden_fence_without_proxyplanks
f 1/1/1 2/2/2 3/3/3 
f 4/4/4 1/1/1 3/3/3 
f 5/5/5 4/4/4 3/3/3 
f 5/5/5 3/3/3 6/6/6 
f 7/7/7 5/5/5 6/6/6 
f 7/7/7 6/6/6 8/8/3 
f 9/9/8 10/10/9 11/11/9 
f 11/11/9 12/12/10 9/9/8 
f 13/13/11 14/14/12 15/15/13 
f 16/16/14 13/13/11 15/15/13 
f 17/17/15 18/18/16 19/19/17 
f 17/17/15 19/19/17 20/20/18 
f 15/15/13 17/17/15 20/20/18 
f 16/16/14 15/15/13 20/20/18 
f 21/21/19 22/22/19 23/23/20 
f 23/23/20 24/24/21 21/21/19 
f 17/25/22 2/26/23 1/27/24 
f 1/27/24 18/28/25 17/25/22 
f 11/29/26 21/30/26 24/31/27 
f 24/31/27 12/32/28 11/29/26 
f 10/33/29 22/34/29 21/35/29 
f 21/35/29 11/36/29 10/33/29 
f 9/37/30 23/38/31 22/39/32 
f 22/39/32 10/40/32 9/37/30 
f 9/37/30 4/41/33 19/42/34 
f 19/42/34 23/38/31 9/37/30 
f 6/43/35 14/44/35 13/45/35 
f 13/45/35 8/46/35 6/43/35 
f 15/47/36 3/48/36 2/26/23 
f 2/26/23 17/25/22 15/47/36 
f 7/49/37 16/50/37 20/51/37 
f 20/51/37 5/52/37 7/49/37 
f 3/53/38 15/54/38 14/55/38 
f 14/55/38 6/56/38 3/53/38 
f 7/57/39 8/58/39 13/59/39 
f 13/59/39 16/60/39 7/57/39 
f 4/4/4 9/9/8 12/12/10 
f 12/12/10 1/1/1 4/4/4 
f 24/24/21 23/23/20 19/19/17 
f 19/19/17 18/18/16 24/24/21 
f 24/31/27 18/28/25 1/27/24 
f 1/27/24 12/32/28 24/31/27 
f 19/42/34 4/41/33 5/61/40 
f 5/61/40 20/62/40 19/42/34 
f 25/63/3 26/64/41 27/65/42 
f 28/66/43 25/63/3 27/65/42 
f 29/67/3 28/66/43 27/65/42 
f 30/68/44 29/67/3 27/65/42 
f 30/68/44 27/65/42 31/69/45 
f 30/68/44 31/69/45 32/70/46 
f 33/71/47 34/72/48 35/73/49 
f 35/73/49 36/74/50 33/71/47 
f 37/75/51 38/76/52 39/77/53 
f 40/78/54 37/75/51 39/77/53 
f 40/78/54 39/77/53 41/79/55 
f 40/78/54 41/79/55 42/80/11 
f 40/78/54 42/80/11 43/81/56 
f 40/78/54 43/81/56 44/82/11 
f 45/83/57 46/84/58 47/85/59 
f 47/85/59 48/86/60 45/83/57 
f 26/87/61 41/88/62 39/89/63 
f 39/89/63 27/90/64 26/87/61 
f 46/91/65 45/92/66 36/93/66 
f 36/93/66 35/94/67 46/91/65 
f 36/95/29 45/96/29 48/97/29 
f 48/97/29 33/98/29 36/95/29 
f 48/99/26 47/100/68 34/101/69 
f 34/101/69 33/102/26 48/99/26 
f 47/100/68 38/103/70 31/104/71 
f 31/104/71 34/101/69 47/100/68 
f 28/105/72 29/106/72 44/107/72 
f 44/107/72 43/108/72 28/105/72 
f 41/88/62 26/87/61 25/109/73 
f 25/109/73 42/110/73 41/88/62 
f 37/111/74 40/112/74 30/113/74 
f 30/113/74 32/114/74 37/111/74 
f 28/115/75 43/116/75 42/117/75 
f 42/117/75 25/118/75 28/115/75 
f 29/119/76 30/120/76 40/121/76 
f 40/121/76 44/122/76 29/119/76 
f 34/72/48 31/69/45 27/65/42 
f 27/65/42 35/73/49 34/72/48 
f 47/85/59 46/84/58 39/77/53 
f 39/77/53 38/76/52 47/85/59 
f 35/94/67 27/90/64 39/89/63 
f 39/89/63 46/91/65 35/94/67 
f 37/123/77 32/124/77 31/104/71 
f 31/104/71 38/103/70 37/123/77 
usemtl _wooden_fence_without_proxylog
f 49/125/78 50/126/79 51/127/80 
f 51/127/80 52/128/81 49/125/78 
f 52/128/81 53/129/82 54/130/83 
f 54/130/83 49/125/78 52/128/81 
f 54/131/83 53/132/82 55/133/84 
f 55/133/84 56/134/85 54/131/83 
f 56/134/85 55/133/84 57/135/86 
f 57/135/86 58/136/87 56/134/85 
f 58/136/87 57/135/86 59/137/88 
f 59/137/88 60/138/89 58/136/87 
f 61/139/90 62/140/91 60/138/89 
f 60/138/89 59/137/88 61/139/90 
f 63/141/92 64/142/93 62/140/91 
f 62/140/91 61/139/90 63/141/92 
f 50/126/79 64/142/93 63/141/92 
f 63/141/92 51/127/80 50/126/79 
f 49/125/78 65/143/94 66/144/95 
f 66/144/95 50/126/79 49/125/78 
f 54/130/83 67/145/96 65/143/94 
f 65/143/94 49/125/78 54/130/83 
f 67/145/96 54/130/83 56/146/85 
f 56/146/85 68/147/97 67/145/96 
f 68/148/97 56/134/85 58/136/87 
f 58/136/87 69/149/98 68/148/97 
f 69/149/98 58/136/87 60/138/89 
f 60/138/89 70/150/99 69/149/98 
f 60/138/89 62/140/91 71/151/100 
f 71/151/100 70/150/99 60/138/89 
f 71/151/100 62/140/91 64/142/93 
f 64/142/93 72/152/101 71/151/100 
f 66/144/95 72/152/101 64/142/93 
f 64/142/93 50/126/79 66/144/95 
usemtl _wooden_fence_without_proxylogends
f 53/153/102 52/154/102 51/155/102 
f 63/156/102 61/157/102 59/158/102 
f 51/155/102 63/156/102 59/158/102 
f 59/158/102 57/159/102 55/160/102 
f 51/155/102 59/158/102 55/160/102 
f 53/153/102 51/155/102 55/160/102 
f 71/161/103 72/162/103 66/163/103 
f 71/161/103 66/163/103 65/164/103 
f 71/161/103 65/164/103 67/165/103 
f 71/161/103 67/165/103 68/166/103 
f 71/161/103 68/166/103 69/159/103 
f 70/167/103 71/161/103 69/159/103 
# 132 faces

