# WEngine Wavefront OBJ Exporter
# File Created : Mon Jan  2 16:56:20 2017

# Information about the object:
# Vertices: 216
# Textures: 124
# Normals:  77
# Faces:    88

# Vertices
v -4.3449 0.8342 -0.2747
v -4.7737 0.6818 -0.2936
v -4.9938 0.5064 -0.2936
v -4.3873 0.0127 -0.2747
v -4.7532 0.0120 -0.2936
v -4.7881 0.4494 -0.2936
v -4.7371 0.1372 -0.2936
v -4.9598 0.3540 -0.2936
v 0.1198 1.0324 -0.0949
v 4.7427 1.4626 -0.2936
v 4.7427 2.2841 -0.2936
v 0.1198 1.8539 -0.0949
v -4.9598 0.3540 -0.6346
v -4.7881 0.4494 -0.6346
v -4.9938 0.5064 -0.6346
v -4.7371 0.1372 -0.6346
v -4.7737 0.6818 -0.6346
v -4.3449 0.8342 -0.6157
v -4.3873 0.0127 -0.6157
v -4.7532 0.0120 -0.6346
v 4.7427 2.2841 -0.6346
v 4.7427 1.4626 -0.6346
v 0.1198 1.0324 -0.4359
v 0.1198 1.8539 -0.4359
v -5.0215 2.9507 -0.2936
v -4.7812 2.8374 -0.2936
v -4.2172 2.8995 -0.2747
v -4.8650 3.0872 -0.2936
v -4.9319 3.1638 -0.2936
v -4.7618 3.3038 -0.2936
v -4.4708 3.6821 -0.2747
v -4.9920 3.4047 -0.2936
v 4.8137 4.4963 -0.2936
v -1.2808 3.9288 -0.0949
v -1.2092 3.1104 -0.0949
v 4.8137 3.6748 -0.2936
v -4.9920 3.4047 -0.6346
v -4.4708 3.6821 -0.6157
v -4.2172 2.8995 -0.6157
v -4.7618 3.3038 -0.6346
v -4.7812 2.8374 -0.6346
v -5.0215 2.9507 -0.6346
v -4.8650 3.0872 -0.6346
v -4.9319 3.1638 -0.6346
v 4.8137 3.6748 -0.6346
v -1.2092 3.1104 -0.4359
v -1.2808 3.9288 -0.4359
v 4.8137 4.4963 -0.6346
v -4.4708 3.6821 -0.2747
v -4.4708 3.6821 -0.6157
v -4.9920 3.4047 -0.6346
v -4.4708 3.6821 -0.2747
v -4.9920 3.4047 -0.2936
v -4.9920 3.4047 -0.6346
v -1.2092 3.1104 -0.0949
v -4.2172 2.8995 -0.6157
v -1.2092 3.1104 -0.4359
v -4.2172 2.8995 -0.2747
v -1.2092 3.1104 -0.0949
v -4.2172 2.8995 -0.6157
v -4.2172 2.8995 -0.6157
v -1.2808 3.9288 -0.4359
v -4.4708 3.6821 -0.6157
v -4.2172 2.8995 -0.6157
v -1.2092 3.1104 -0.4359
v -1.2808 3.9288 -0.4359
v -4.2172 2.8995 -0.2747
v -1.2092 3.1104 -0.0949
v -1.2808 3.9288 -0.0949
v -4.2172 2.8995 -0.2747
v -1.2808 3.9288 -0.0949
v -4.4708 3.6821 -0.2747
v -4.9319 3.1638 -0.2936
v -4.7618 3.3038 -0.6346
v -4.9319 3.1638 -0.6346
v -4.9319 3.1638 -0.2936
v -4.7618 3.3038 -0.2936
v -4.7618 3.3038 -0.6346
v -5.0215 2.9507 -0.2936
v -4.8650 3.0872 -0.2936
v -5.0215 2.9507 -0.6346
v -4.8650 3.0872 -0.2936
v -5.0215 2.9507 -0.6346
v -4.8650 3.0872 -0.6346
v -4.7618 3.3038 -0.2936
v -4.9920 3.4047 -0.2936
v -4.9920 3.4047 -0.6346
v -4.7618 3.3038 -0.2936
v -4.9920 3.4047 -0.6346
v -4.7618 3.3038 -0.6346
v -5.0215 2.9507 -0.2936
v -4.7812 2.8374 -0.6346
v -5.0215 2.9507 -0.6346
v -4.7812 2.8374 -0.2936
v -5.0215 2.9507 -0.2936
v -4.7812 2.8374 -0.6346
v -4.8650 3.0872 -0.2936
v -4.8650 3.0872 -0.6346
v -4.9319 3.1638 -0.6346
v -4.8650 3.0872 -0.2936
v -4.9319 3.1638 -0.2936
v -4.9319 3.1638 -0.6346
v -4.4708 3.6821 -0.2747
v -1.2808 3.9288 -0.0949
v -1.2808 3.9288 -0.4359
v -4.4708 3.6821 -0.2747
v -4.4708 3.6821 -0.6157
v -1.2808 3.9288 -0.4359
v -1.2808 3.9288 -0.0949
v 4.8137 4.4963 -0.2936
v 4.8137 4.4963 -0.6346
v -1.2808 3.9288 -0.0949
v -1.2808 3.9288 -0.4359
v 4.8137 4.4963 -0.6346
v 4.8137 4.4963 -0.2936
v 4.8137 3.6748 -0.2936
v 4.8137 4.4963 -0.6346
v 4.8137 3.6748 -0.2936
v 4.8137 3.6748 -0.6346
v 4.8137 4.4963 -0.6346
v -1.2092 3.1104 -0.0949
v 4.8137 3.6748 -0.2936
v -1.2092 3.1104 -0.4359
v 4.8137 3.6748 -0.2936
v -1.2092 3.1104 -0.4359
v 4.8137 3.6748 -0.6346
v -4.2172 2.8995 -0.2747
v -4.7812 2.8374 -0.2936
v -4.2172 2.8995 -0.6157
v -4.7812 2.8374 -0.2936
v -4.2172 2.8995 -0.6157
v -4.7812 2.8374 -0.6346
v -4.7532 0.0120 -0.2936
v -4.3873 0.0127 -0.6157
v -4.7532 0.0120 -0.6346
v -4.3873 0.0127 -0.2747
v -4.7532 0.0120 -0.2936
v -4.3873 0.0127 -0.6157
v -4.3449 0.8342 -0.2747
v 0.1198 1.8539 -0.0949
v 0.1198 1.8539 -0.4359
v -4.3449 0.8342 -0.2747
v -4.3449 0.8342 -0.6157
v 0.1198 1.8539 -0.4359
v -4.3449 0.8342 -0.6157
v 0.1198 1.8539 -0.4359
v -4.3873 0.0127 -0.6157
v 0.1198 1.8539 -0.4359
v 0.1198 1.0324 -0.4359
v -4.3873 0.0127 -0.6157
v -4.3449 0.8342 -0.2747
v 0.1198 1.8539 -0.0949
v -4.3873 0.0127 -0.2747
v 0.1198 1.8539 -0.0949
v 0.1198 1.0324 -0.0949
v -4.3873 0.0127 -0.2747
v -4.7371 0.1372 -0.2936
v -4.9598 0.3540 -0.6346
v -4.7371 0.1372 -0.6346
v -4.7371 0.1372 -0.2936
v -4.9598 0.3540 -0.2936
v -4.9598 0.3540 -0.6346
v -4.9938 0.5064 -0.2936
v -4.7881 0.4494 -0.2936
v -4.7881 0.4494 -0.6346
v -4.9938 0.5064 -0.2936
v -4.9938 0.5064 -0.6346
v -4.7881 0.4494 -0.6346
v -4.7532 0.0120 -0.2936
v -4.7371 0.1372 -0.2936
v -4.7532 0.0120 -0.6346
v -4.7371 0.1372 -0.2936
v -4.7371 0.1372 -0.6346
v -4.7532 0.0120 -0.6346
v -4.7737 0.6818 -0.2936
v -4.9938 0.5064 -0.6346
v -4.7737 0.6818 -0.6346
v -4.9938 0.5064 -0.2936
v -4.7737 0.6818 -0.2936
v -4.9938 0.5064 -0.6346
v -4.7881 0.4494 -0.2936
v -4.9598 0.3540 -0.2936
v -4.9598 0.3540 -0.6346
v -4.7881 0.4494 -0.2936
v -4.7881 0.4494 -0.6346
v -4.9598 0.3540 -0.6346
v 0.1198 1.0324 -0.0949
v -4.3873 0.0127 -0.6157
v 0.1198 1.0324 -0.4359
v -4.3873 0.0127 -0.2747
v 0.1198 1.0324 -0.0949
v -4.3873 0.0127 -0.6157
v 4.7427 1.4626 -0.2936
v 0.1198 1.0324 -0.0949
v 4.7427 1.4626 -0.6346
v 0.1198 1.0324 -0.0949
v 0.1198 1.0324 -0.4359
v 4.7427 1.4626 -0.6346
v 4.7427 2.2841 -0.2936
v 4.7427 1.4626 -0.2936
v 4.7427 2.2841 -0.6346
v 4.7427 1.4626 -0.2936
v 4.7427 1.4626 -0.6346
v 4.7427 2.2841 -0.6346
v 4.7427 2.2841 -0.2936
v 0.1198 1.8539 -0.0949
v 0.1198 1.8539 -0.4359
v 4.7427 2.2841 -0.2936
v 4.7427 2.2841 -0.6346
v 0.1198 1.8539 -0.4359
v -4.3449 0.8342 -0.2747
v -4.3449 0.8342 -0.6157
v -4.7737 0.6818 -0.6346
v -4.7737 0.6818 -0.2936
v -4.3449 0.8342 -0.2747
v -4.7737 0.6818 -0.6346
# 216 Vertices

# Texture coordinates
vt 7.2256 -0.2266 0.0000
vt 7.0947 -0.2731 0.0000
vt 7.0276 -0.3266 0.0000
vt 7.2126 -0.4773 0.0000
vt 7.1010 -0.4775 0.0000
vt 7.0903 -0.3441 0.0000
vt 7.1059 -0.4393 0.0000
vt 7.0379 -0.3731 0.0000
vt 8.5880 -0.1661 0.0000
vt 9.9987 -0.0349 0.0000
vt 9.9987 0.2158 0.0000
vt 8.5880 0.0845 0.0000
vt -6.0379 -0.3731 0.0000
vt -6.0903 -0.3441 0.0000
vt -6.0276 -0.3266 0.0000
vt -6.1059 -0.4393 0.0000
vt -6.0947 -0.2731 0.0000
vt -6.2256 -0.2266 0.0000
vt -6.2126 -0.4773 0.0000
vt -6.1010 -0.4775 0.0000
vt -8.9987 0.2158 0.0000
vt -8.9987 -0.0349 0.0000
vt -7.5880 -0.1661 0.0000
vt -7.5880 0.0845 0.0000
vt 7.0947 -1.3303 0.0000
vt 7.0947 -1.4343 0.0000
vt 7.2256 -1.4401 0.0000
vt 7.2256 -1.3360 0.0000
vt 9.9987 -1.4343 0.0000
vt 9.9987 -1.3303 0.0000
vt 8.5880 -1.3909 0.0000
vt 8.5880 -1.4950 0.0000
vt -1.4343 -0.0349 0.0000
vt -1.3303 -0.0349 0.0000
vt -1.3303 0.2158 0.0000
vt -1.4343 0.2158 0.0000
vt -7.5880 -1.4950 0.0000
vt -7.5880 -1.3909 0.0000
vt -8.9987 -1.3303 0.0000
vt -8.9987 -1.4343 0.0000
vt -6.2126 -1.4401 0.0000
vt -6.2126 -1.3360 0.0000
vt 7.0903 -1.4343 0.0000
vt 7.0903 -1.3303 0.0000
vt 7.0379 -1.3303 0.0000
vt 7.0379 -1.4343 0.0000
vt 7.0276 -1.3303 0.0000
vt 7.0276 -1.4343 0.0000
vt 2.4343 -0.4393 0.0000
vt 2.3303 -0.4393 0.0000
vt 2.3303 -0.4775 0.0000
vt 2.4343 -0.4775 0.0000
vt -6.0276 -1.4343 0.0000
vt -6.0276 -1.3303 0.0000
vt -6.0903 -1.3303 0.0000
vt -6.0903 -1.4343 0.0000
vt -6.1059 -1.4343 0.0000
vt -6.0379 -1.4343 0.0000
vt -6.0379 -1.3303 0.0000
vt -6.1059 -1.3303 0.0000
vt -6.1010 -1.4343 0.0000
vt -6.1010 -1.3303 0.0000
vt 7.0191 0.4193 0.0000
vt 7.0924 0.3847 0.0000
vt 7.2645 0.4036 0.0000
vt 7.0669 0.4609 0.0000
vt 7.0464 0.4843 0.0000
vt 7.0983 0.5270 0.0000
vt 7.1871 0.6424 0.0000
vt 7.0281 0.5578 0.0000
vt 10.0204 0.8909 0.0000
vt 8.1606 0.7177 0.0000
vt 8.1824 0.4680 0.0000
vt 10.0204 0.6402 0.0000
vt -6.0281 0.5578 0.0000
vt -6.1871 0.6424 0.0000
vt -6.2645 0.4036 0.0000
vt -6.0983 0.5270 0.0000
vt -6.0924 0.3847 0.0000
vt -6.0191 0.4193 0.0000
vt -6.0669 0.4609 0.0000
vt -6.0464 0.4843 0.0000
vt -9.0204 0.6402 0.0000
vt -7.1824 0.4680 0.0000
vt -7.1606 0.7177 0.0000
vt -9.0204 0.8909 0.0000
vt -6.0924 -1.4343 0.0000
vt -6.0924 -1.3303 0.0000
vt -6.2645 -1.3360 0.0000
vt -6.2645 -1.4401 0.0000
vt -7.1824 -1.3909 0.0000
vt -9.0204 -1.3303 0.0000
vt -9.0204 -1.4343 0.0000
vt -7.1824 -1.4950 0.0000
vt -1.4343 0.6402 0.0000
vt -1.3303 0.6402 0.0000
vt -1.3303 0.8909 0.0000
vt -1.4343 0.8909 0.0000
vt 10.0204 -1.3303 0.0000
vt 8.1606 -1.3909 0.0000
vt 8.1606 -1.4950 0.0000
vt 10.0204 -1.4343 0.0000
vt 7.1871 -1.3360 0.0000
vt 7.1871 -1.4401 0.0000
vt 2.4343 0.4609 0.0000
vt 2.4343 0.4843 0.0000
vt 2.3303 0.4843 0.0000
vt 2.3303 0.4609 0.0000
vt -6.0191 -1.4343 0.0000
vt -6.0191 -1.3303 0.0000
vt -6.0281 -1.3303 0.0000
vt -6.0983 -1.3303 0.0000
vt -6.0983 -1.4343 0.0000
vt -6.0281 -1.4343 0.0000
vt 7.0669 -1.4343 0.0000
vt 7.0669 -1.3303 0.0000
vt 7.0191 -1.3303 0.0000
vt 7.0191 -1.4343 0.0000
vt 7.0464 -1.4343 0.0000
vt 7.0983 -1.4343 0.0000
vt 7.0983 -1.3303 0.0000
vt 7.0464 -1.3303 0.0000
vt 7.0281 -1.3303 0.0000
vt 7.0281 -1.4343 0.0000
# 124 texture coords

# Vertex normals
vn -0.0427 0.0013 0.9991
vn -0.0316 0.0020 0.9995
vn 0.0000 0.0000 1.0000
vn -0.0473 0.0028 0.9989
vn -0.0515 0.0066 0.9986
vn -0.0209 -0.0019 0.9998
vn -0.0416 0.0021 0.9991
vn -0.0025 0.0000 1.0000
vn 0.0429 0.0000 0.9991
vn 0.0059 0.0001 1.0000
vn 0.0000 0.0000 -1.0000
vn 0.0226 0.0149 -0.9996
vn 0.0253 0.0074 -0.9997
vn 0.0464 0.0025 -0.9989
vn 0.0788 -0.0989 -0.9920
vn 0.0406 -0.0029 -0.9992
vn 0.0456 -0.0008 -0.9990
vn 0.0515 -0.0066 -0.9986
vn -0.0429 0.0000 -0.9991
vn 0.0027 -0.0001 -1.0000
vn -0.0057 0.0000 -1.0000
vn -0.4877 0.8730 -0.0000
vn -0.4839 0.8751 -0.0000
vn -0.2778 0.9606 -0.0000
vn -0.2807 0.9598 -0.0000
vn -0.0927 0.9957 -0.0000
vn -0.1579 0.9875 -0.0000
vn -0.1581 0.9874 -0.0000
vn 1.0000 0.0000 -0.0000
vn 0.1571 -0.9876 -0.0000
vn 0.1569 -0.9876 -0.0000
vn 0.0927 -0.9957 -0.0000
vn 0.1152 -0.9933 -0.0000
vn 0.1089 -0.9941 -0.0000
vn -0.4855 0.8742 -0.0000
vn -0.6233 0.7820 -0.0000
vn -0.9918 0.1279 -0.0000
vn -0.2673 -0.9636 -0.0000
vn -0.6976 -0.7165 -0.0000
vn 0.0020 -1.0000 -0.0000
vn -0.0221 -0.0073 0.9997
vn -0.0471 -0.0153 0.9988
vn -0.0201 -0.0026 0.9998
vn -0.1008 0.0321 0.9944
vn -0.0458 -0.0151 0.9988
vn -0.0163 -0.0373 0.9992
vn 0.0329 0.0003 0.9995
vn -0.0119 -0.0010 0.9999
vn -0.0118 -0.0022 0.9999
vn 0.0330 0.0000 0.9995
vn 0.0163 0.0373 -0.9992
vn 0.0444 0.0159 -0.9989
vn 0.0456 0.0136 -0.9989
vn 0.1008 -0.0321 -0.9944
vn 0.0221 0.0073 -0.9997
vn 0.0201 0.0026 -0.9998
vn -0.0330 0.0000 -0.9995
vn 0.0133 0.0013 -0.9999
vn 0.0132 0.0022 -0.9999
vn -0.0329 -0.0003 -0.9995
vn -0.1618 -0.9868 -0.0000
vn -0.1677 -0.9858 -0.0000
vn 0.0903 -0.9959 -0.0000
vn 0.0891 -0.9960 -0.0000
vn 0.0815 -0.9967 -0.0000
vn 0.0933 -0.9956 -0.0000
vn 0.0817 -0.9967 -0.0000
vn -0.0849 0.9964 -0.0000
vn -0.0850 0.9964 -0.0000
vn -0.2850 0.9585 -0.0000
vn -0.2738 0.9618 -0.0000
vn -0.7529 -0.6582 -0.0000
vn -0.4265 -0.9045 -0.0000
vn -0.4012 -0.9160 -0.0000
vn -0.6571 0.7538 -0.0000
vn -0.6357 0.7720 -0.0000
vn -0.4698 0.8828 -0.0000
# 77 normals

# Faces
f 1/1/1 2/2/2 3/3/3
f 4/4/4 1/1/1 3/3/3
f 5/5/5 4/4/4 3/3/3
f 5/5/5 3/3/3 6/6/6
f 7/7/7 5/5/5 6/6/6
f 7/7/7 6/6/6 8/8/3
f 9/9/8 10/10/9 11/11/9
f 11/11/9 12/12/10 9/9/8
f 13/13/11 14/14/12 15/15/13
f 16/16/14 13/13/11 15/15/13
f 17/17/15 18/18/16 19/19/17
f 17/17/15 19/19/17 20/20/18
f 15/15/13 17/17/15 20/20/18
f 16/16/14 15/15/13 20/20/18
f 21/21/19 22/22/19 23/23/20
f 23/23/20 24/24/21 21/21/19
f 216/25/22 214/26/23 215/27/24
f 211/27/24 212/28/25 213/25/22
f 208/29/26 209/30/26 210/31/27
f 207/31/27 206/32/28 205/29/26
f 202/33/29 203/34/29 204/35/29
f 201/35/29 199/36/29 200/33/29
f 196/37/30 197/38/31 198/39/32
f 195/39/32 193/40/32 194/37/30
f 191/37/30 190/41/33 192/42/34
f 188/42/34 189/38/31 187/37/30
f 184/43/35 185/44/35 186/45/35
f 183/45/35 182/46/35 181/43/35
f 180/47/36 178/48/36 179/26/23
f 175/26/23 177/25/22 176/47/36
f 172/49/37 173/50/37 174/51/37
f 171/51/37 169/52/37 170/49/37
f 166/53/38 167/54/38 168/55/38
f 165/55/38 164/56/38 163/53/38
f 160/57/39 161/58/39 162/59/39
f 158/59/39 159/60/39 157/57/39
f 156/4/4 155/9/8 154/12/10
f 152/12/10 151/1/1 153/4/4
f 148/24/21 149/23/20 150/19/17
f 147/19/17 145/18/16 146/24/21
f 144/31/27 143/28/25 142/27/24
f 139/27/24 140/32/28 141/31/27
f 138/42/34 136/41/33 137/61/40
f 133/61/40 135/62/40 134/42/34
f 25/63/3 26/64/41 27/65/42
f 28/66/43 25/63/3 27/65/42
f 29/67/3 28/66/43 27/65/42
f 30/68/44 29/67/3 27/65/42
f 30/68/44 27/65/42 31/69/45
f 30/68/44 31/69/45 32/70/46
f 33/71/47 34/72/48 35/73/49
f 35/73/49 36/74/50 33/71/47
f 37/75/51 38/76/52 39/77/53
f 40/78/54 37/75/51 39/77/53
f 40/78/54 39/77/53 41/79/55
f 40/78/54 41/79/55 42/80/11
f 40/78/54 42/80/11 43/81/56
f 40/78/54 43/81/56 44/82/11
f 45/83/57 46/84/58 47/85/59
f 47/85/59 48/86/60 45/83/57
f 130/87/61 132/88/62 131/89/63
f 129/89/63 127/90/64 128/87/61
f 125/91/65 126/92/66 124/93/66
f 122/93/66 121/94/67 123/91/65
f 118/95/29 119/96/29 120/97/29
f 117/97/29 115/98/29 116/95/29
f 114/99/26 113/100/68 112/101/69
f 109/101/69 110/102/26 111/99/26
f 108/100/68 107/103/70 106/104/71
f 103/104/71 104/101/69 105/100/68
f 100/105/72 101/106/72 102/107/72
f 99/107/72 98/108/72 97/105/72
f 96/88/62 94/87/61 95/109/73
f 91/109/73 93/110/73 92/88/62
f 89/111/74 90/112/74 88/113/74
f 85/113/74 86/114/74 87/111/74
f 82/115/75 84/116/75 83/117/75
f 81/117/75 79/118/75 80/115/75
f 76/119/76 77/120/76 78/121/76
f 74/121/76 75/122/76 73/119/76
f 71/72/48 72/69/45 70/65/42
f 67/65/42 68/73/49 69/72/48
f 66/85/59 65/84/58 64/77/53
f 61/77/53 63/76/52 62/85/59
f 59/94/67 58/90/64 60/89/63
f 56/89/63 57/91/65 55/94/67
f 54/123/77 53/124/77 52/104/71
f 49/104/71 50/103/70 51/123/77
# 88 faces