# WEngine Wavefront OBJ Exporter
# File Created : Sat Dec 24 01:07:28 2016

# Information about the object:
# Vertices: 46
# Textures: 46
# Normals:  36
# Faces:    34

# Vertices
v -4.3569 4.9483 2.7202
v -4.2965 4.6435 4.8617
v -4.2335 5.0637 4.8342
v -4.4170 4.5079 2.7502
v -4.3113 3.8108 4.9158
v -4.4149 3.6721 2.8052
v -4.2940 3.3843 4.9433
v -4.3988 3.2490 2.8335
v -4.3941 3.1315 2.8411
v -4.3785 2.7324 2.8673
v -4.2720 2.8639 4.9767
v -4.2889 3.2659 4.9509
v -4.3422 3.1911 2.8373
v -4.2369 3.3264 4.9471
v 4.6664 8.0498 -2.6314
v 4.6917 6.4836 -2.5278
v 4.6879 5.9366 -10.7260
v 4.6621 7.5066 -10.8300
v -5.0891 8.9075 -6.0381
v -5.0921 8.4937 -12.2842
v -5.0481 5.8195 -12.1075
v -5.0451 6.2330 -5.8614
v 4.6710 8.0042 -0.0347
v 4.6977 6.3801 0.0727
v 4.6968 6.2617 -1.7162
v 4.6702 7.8854 -1.8236
v 4.1346 5.0857 2.7067
v 4.0137 5.1977 4.8211
v 4.0906 4.7797 4.8486
v 4.2090 4.6474 2.7367
v 4.1325 3.9473 4.9027
v 4.2339 3.8125 2.7916
v 4.1291 3.5208 4.9302
v 4.2314 3.3889 2.8199
v 4.2310 3.2714 2.8276
v 4.1240 3.0000 4.9635
v 4.2280 2.8719 2.8542
v 4.1278 3.4025 4.9378
v 4.1769 3.3293 2.8238
v 4.0741 3.4608 4.9340
v 2.1943 4.0556 -14.1526
v 2.2941 2.4839 -14.1475
v 1.3404 2.4294 -14.0913
v 1.2217 3.9985 -14.0714
v 0.4819 2.3803 -14.1762
v 0.3618 3.9482 -14.1336
# 46 Vertices

# Texture coordinates
vt 0.6298 0.3216 0.0000
vt 0.9433 0.2610 0.0000
vt 0.9443 0.3206 0.0000
vt 0.6308 0.2591 0.0000
vt 0.9433 0.1438 0.0000
vt 0.6318 0.1429 0.0000
vt 0.9443 0.0804 0.0000
vt 0.6318 0.0794 0.0000
vt 0.6318 0.0628 0.0000
vt 0.6318 0.0110 0.0000
vt 0.9443 0.0120 0.0000
vt 0.9443 0.0638 0.0000
vt 0.6318 0.0706 0.0000
vt 0.9443 0.0725 0.0000
vt 0.0156 0.5042 0.0000
vt 0.0156 0.3577 0.0000
vt 0.7802 0.3577 0.0000
vt 0.7802 0.5042 0.0000
vt 0.9599 0.9934 0.0000
vt 0.0956 0.9934 0.0000
vt 0.0956 0.6272 0.0000
vt 0.9599 0.6272 0.0000
vt 0.0937 0.3225 0.0000
vt 0.0937 0.0042 0.0000
vt 0.4433 0.0042 0.0000
vt 0.4433 0.3225 0.0000
vt 0.9189 0.3216 0.0000
vt 0.6054 0.3206 0.0000
vt 0.6064 0.2610 0.0000
vt 0.9189 0.2591 0.0000
vt 0.6064 0.1438 0.0000
vt 0.9179 0.1429 0.0000
vt 0.6054 0.0804 0.0000
vt 0.9179 0.0794 0.0000
vt 0.9179 0.0628 0.0000
vt 0.6044 0.0120 0.0000
vt 0.9179 0.0110 0.0000
vt 0.6054 0.0638 0.0000
vt 0.9179 0.0706 0.0000
vt 0.6054 0.0725 0.0000
vt 0.0995 0.3255 0.0000
vt 0.0995 0.0120 0.0000
vt 0.2802 0.0120 0.0000
vt 0.2822 0.3255 0.0000
vt 0.4443 0.0120 0.0000
vt 0.4443 0.3255 0.0000
# 46 texture coords

# Vertex normals
vn -0.9890 0.1400 0.0479
vn -0.9949 0.0859 0.0525
vn -0.9872 0.1515 0.0494
vn -0.9962 0.0721 0.0493
vn -0.9985 -0.0105 0.0528
vn -0.9986 -0.0173 0.0505
vn -0.9159 -0.3951 0.0707
vn -0.9195 -0.3867 0.0705
vn -0.9432 0.3312 0.0262
vn -0.9980 -0.0361 0.0526
vn -0.9979 -0.0385 0.0523
vn -0.9421 0.3344 0.0256
vn -0.9983 -0.0269 0.0516
vn -0.9983 -0.0260 0.0514
vn 0.9999 0.0162 -0.0016
vn -0.9999 -0.0162 0.0016
vn 0.9841 0.1720 0.0448
vn 0.9819 0.1835 0.0464
vn 0.9918 0.1181 0.0494
vn 0.9935 0.1044 0.0461
vn 0.9985 0.0219 0.0497
vn 0.9988 0.0151 0.0473
vn 0.9284 -0.3652 0.0678
vn 0.9318 -0.3567 0.0676
vn 0.9320 0.3617 0.0232
vn 0.9988 -0.0061 0.0492
vn 0.9988 -0.0038 0.0495
vn 0.9308 0.3648 0.0226
vn 0.9988 0.0056 0.0484
vn 0.9988 0.0063 0.0483
vn -0.0749 0.0017 -0.9972
vn -0.0584 -0.0070 -0.9983
vn 0.0143 0.0088 -0.9999
vn -0.0014 0.0176 -0.9998
vn 0.0890 0.0240 -0.9957
vn 0.0705 0.0326 -0.9970
# 36 normals

# Faces
f 1/1/1 2/2/2 3/3/3
f 2/2/2 1/1/1 4/4/4
f 2/2/2 4/4/4 5/5/5
f 4/4/4 6/6/6 5/5/5
f 6/6/6 7/7/7 5/5/5
f 7/7/7 6/6/6 8/8/8
f 9/9/9 10/10/10 11/11/11
f 9/9/9 11/11/11 12/12/12
f 9/9/9 12/12/12 13/13/13
f 13/13/13 12/12/12 14/14/14
f 13/13/13 14/14/14 8/8/8
f 8/8/8 14/14/14 7/7/7
f 15/15/15 16/16/15 17/17/15
f 15/15/15 17/17/15 18/18/15
f 19/19/16 20/20/16 21/21/16
f 19/19/16 21/21/16 22/22/16
f 23/23/15 24/24/15 25/25/15
f 23/23/15 25/25/15 26/26/15
f 27/27/17 28/28/18 29/29/19
f 27/27/17 29/29/19 30/30/20
f 30/30/20 29/29/19 31/31/21
f 30/30/20 31/31/21 32/32/22
f 32/32/22 31/31/21 33/33/23
f 32/32/22 33/33/23 34/34/24
f 35/35/25 36/36/26 37/37/27
f 36/36/26 35/35/25 38/38/28
f 38/38/28 35/35/25 39/39/29
f 38/38/28 39/39/29 40/40/30
f 40/40/30 34/34/24 33/33/23
f 40/40/30 39/39/29 34/34/24
f 41/41/31 42/42/32 43/43/33
f 41/41/31 43/43/33 44/44/34
f 44/44/34 43/43/33 45/45/35
f 44/44/34 45/45/35 46/46/36
# 34 faces