# WEngine Wavefront OBJ Exporter
# File Created : Sat Dec 24 01:09:08 2016

# Information about the object:
# Vertices: 22
# Textures: 22
# Normals:  1
# Faces:    31

# Vertices
v -17.7535 -5.1525 -47.9533
v -14.2263 1.7699 -47.9533
v -8.7326 7.2636 -47.9533
v -1.8102 10.7908 -47.9533
v 5.8634 12.0061 -47.9534
v 13.5370 10.7908 -47.9534
v 20.4594 7.2636 -47.9534
v 25.9531 1.7699 -47.9534
v 29.4803 -5.1525 -47.9534
v 30.5988 -12.2142 -47.9534
v -18.8720 -12.2142 -47.9533
v -19.5884 -12.8261 -47.9533
v -18.3427 -4.9611 -47.9533
v -14.7275 2.1341 -47.9533
v -9.0968 7.7648 -47.9533
v -2.0016 11.3800 -47.9533
v 5.8634 12.6257 -47.9534
v 13.7284 11.3800 -47.9534
v 20.8236 7.7648 -47.9534
v 26.4544 2.1341 -47.9534
v 30.0695 -4.9611 -47.9534
v 31.3152 -12.8261 -47.9534
# 22 Vertices

# Texture coordinates
vt 0.9635 0.4077 0.0000
vt 0.8943 0.6286 0.0000
vt 0.7865 0.8039 0.0000
vt 0.6506 0.9165 0.0000
vt 0.5000 0.9553 0.0000
vt 0.3494 0.9165 0.0000
vt 0.2135 0.8039 0.0000
vt 0.1057 0.6286 0.0000
vt 0.0365 0.4077 0.0000
vt 0.0146 0.1824 0.0000
vt 0.9854 0.1824 0.0000
vt 0.9995 0.1629 0.0000
vt 0.9751 0.4138 0.0000
vt 0.9041 0.6402 0.0000
vt 0.7936 0.8199 0.0000
vt 0.6544 0.9353 0.0000
vt 0.5000 0.9750 0.0000
vt 0.3456 0.9353 0.0000
vt 0.2064 0.8199 0.0000
vt 0.0959 0.6403 0.0000
vt 0.0249 0.4138 0.0000
vt 0.0005 0.1629 0.0000
# 22 texture coords

# Vertex normals
vn -0.0000 -0.0000 -1.0000
# 1 normals

# Faces
f 1/1/1 2/2/1 3/3/1
f 3/3/1 4/4/1 5/5/1
f 1/1/1 3/3/1 5/5/1
f 5/5/1 6/6/1 7/7/1
f 7/7/1 8/8/1 9/9/1
f 5/5/1 7/7/1 9/9/1
f 1/1/1 5/5/1 9/9/1
f 1/1/1 9/9/1 10/10/1
f 11/11/1 1/1/1 10/10/1
f 12/12/1 13/13/1 1/1/1
f 1/1/1 11/11/1 12/12/1
f 13/13/1 14/14/1 2/2/1
f 2/2/1 1/1/1 13/13/1
f 14/14/1 15/15/1 3/3/1
f 3/3/1 2/2/1 14/14/1
f 15/15/1 16/16/1 4/4/1
f 4/4/1 3/3/1 15/15/1
f 16/16/1 17/17/1 5/5/1
f 5/5/1 4/4/1 16/16/1
f 17/17/1 18/18/1 6/6/1
f 6/6/1 5/5/1 17/17/1
f 18/18/1 19/19/1 7/7/1
f 7/7/1 6/6/1 18/18/1
f 19/19/1 20/20/1 8/8/1
f 8/8/1 7/7/1 19/19/1
f 20/20/1 21/21/1 9/9/1
f 9/9/1 8/8/1 20/20/1
f 21/21/1 22/22/1 10/10/1
f 10/10/1 9/9/1 21/21/1
f 22/22/1 12/12/1 11/11/1
f 11/11/1 10/10/1 22/22/1
# 31 faces