# 3ds Max Wavefront OBJ Exporter v0.97b - (c)2007 guruware
# File Created: 09.12.2016 19:12:39

mtllib Pallet.mtl

#
# object Palette
#

v  -1.9474 1.8320 -0.3727
v  -1.9506 1.8255 -0.1250
v  -1.9489 1.9824 -0.1209
v  -1.9458 1.9889 -0.3686
v  1.9883 1.7892 -0.3239
v  1.9899 1.9462 -0.3198
v  1.9868 1.9397 -0.0721
v  1.9851 1.7827 -0.0762
v  -1.9673 -0.0538 -0.4224
v  -1.9704 -0.0603 -0.1747
v  -1.9688 0.0966 -0.1706
v  -1.9656 0.1031 -0.4183
v  1.9684 -0.0966 -0.3736
v  1.9701 0.0604 -0.3695
v  1.9669 0.0539 -0.1218
v  1.9653 -0.1031 -0.1259
v  -1.9868 -1.9064 -0.4712
v  -1.9899 -1.9129 -0.2235
v  -1.9883 -1.7559 -0.2194
v  -1.9851 -1.7495 -0.4671
v  1.9489 -1.9491 -0.4224
v  1.9506 -1.7922 -0.4183
v  1.9474 -1.7987 -0.1706
v  1.9458 -1.9556 -0.1747
v  1.3643 -1.9749 -0.5059
v  1.9356 -1.9811 -0.4988
v  1.9347 -1.9829 -0.4296
v  1.3634 -1.9767 -0.4367
v  1.4057 1.9553 -0.4023
v  1.4048 1.9535 -0.3332
v  1.9761 1.9473 -0.3261
v  1.9770 1.9491 -0.3952
v  0.5319 -1.9659 -0.5162
v  1.1032 -1.9721 -0.5091
v  1.1023 -1.9739 -0.4400
v  0.5310 -1.9677 -0.4470
v  0.5733 1.9643 -0.4127
v  0.5724 1.9625 -0.3435
v  1.1437 1.9563 -0.3364
v  1.1446 1.9581 -0.4056
v  -0.3172 -1.9566 -0.5267
v  0.2541 -1.9628 -0.5196
v  0.2533 -1.9647 -0.4505
v  -0.3181 -1.9585 -0.4576
v  -0.2758 1.9735 -0.4232
v  -0.2767 1.9717 -0.3540
v  0.2946 1.9655 -0.3470
v  0.2955 1.9673 -0.4161
v  -1.1330 -1.9478 -0.5368
v  -0.5617 -1.9540 -0.5298
v  -0.5625 -1.9558 -0.4606
v  -1.1339 -1.9496 -0.4677
v  -1.0916 1.9824 -0.4333
v  -1.0925 1.9806 -0.3642
v  -0.5211 1.9744 -0.3571
v  -0.5203 1.9762 -0.4262
v  -1.9675 -1.9387 -0.5472
v  -1.3961 -1.9449 -0.5401
v  -1.3970 -1.9467 -0.4710
v  -1.9683 -1.9405 -0.4780
v  -1.9261 1.9915 -0.4437
v  -1.9270 1.9896 -0.3745
v  -1.3556 1.9834 -0.3674
v  -1.3548 1.9853 -0.4366
v  1.3601 -1.9834 -0.1798
v  1.9315 -1.9896 -0.1727
v  1.9306 -1.9915 -0.1035
v  1.3593 -1.9853 -0.1106
v  1.4015 1.9467 -0.0762
v  1.4006 1.9449 -0.0071
v  1.9720 1.9387 -0.0000
v  1.9728 1.9405 -0.0691
v  0.5277 -1.9744 -0.1901
v  1.0990 -1.9806 -0.1830
v  1.0982 -1.9824 -0.1139
v  0.5268 -1.9762 -0.1209
v  0.5691 1.9558 -0.0866
v  0.5682 1.9540 -0.0174
v  1.1396 1.9478 -0.0103
v  1.1404 1.9496 -0.0795
v  -0.3213 -1.9652 -0.2006
v  0.2500 -1.9714 -0.1935
v  0.2491 -1.9732 -0.1244
v  -0.3222 -1.9670 -0.1315
v  -0.2799 1.9650 -0.0971
v  -0.2808 1.9632 -0.0279
v  0.2905 1.9570 -0.0209
v  0.2914 1.9588 -0.0900
v  -1.1371 -1.9563 -0.2107
v  -0.5658 -1.9625 -0.2037
v  -0.5667 -1.9643 -0.1345
v  -1.1380 -1.9581 -0.1416
v  -1.0957 1.9738 -0.1072
v  -1.0966 1.9720 -0.0381
v  -0.5253 1.9658 -0.0310
v  -0.5244 1.9676 -0.1001
v  -1.9716 -1.9473 -0.2211
v  -1.4003 -1.9535 -0.2140
v  -1.4012 -1.9553 -0.1449
v  -1.9725 -1.9491 -0.1519
v  -1.9302 1.9829 -0.1176
v  -1.9311 1.9811 -0.0484
v  -1.3598 1.9749 -0.0413
v  -1.3589 1.9767 -0.1105
# 104 vertices

vn -0.9999 0.0108 -0.0124
vn 0.9999 -0.0109 0.0124
vn -0.0127 -0.0262 0.9996
vn -0.0105 -0.9996 -0.0264
vn 0.0127 0.0262 -0.9996
vn 0.0105 0.9996 0.0263
vn -0.0105 -0.9996 -0.0263
vn 0.0105 0.9996 0.0264
vn -0.9999 0.0109 -0.0124
# 9 vertex normals

vt -1.0811 0.3100 0.0000
vt -0.9479 0.3099 0.0000
vt -0.9479 0.4280 0.0000
vt -1.0811 0.4280 0.0000
vt 1.3011 0.3099 0.0000
vt 1.3011 0.4280 0.0000
vt 1.1679 0.4280 0.0000
vt 1.1679 0.3099 0.0000
vt 1.1679 0.6829 0.0000
vt 1.1679 0.8086 0.0000
vt -0.9479 0.8086 0.0000
vt -0.9479 0.6829 0.0000
vt 1.1679 0.5612 0.0000
vt -0.9479 0.5612 0.0000
vt 0.9234 0.5577 0.0000
vt 0.9234 0.4311 0.0000
vt 0.9398 0.4311 0.0000
vt 0.9398 0.5577 0.0000
vt 0.0667 0.5577 0.0000
vt 0.0503 0.5577 0.0000
vt 0.0503 0.4311 0.0000
vt 0.0667 0.4311 0.0000
vt 0.9234 0.6857 0.0000
vt 0.0667 0.6857 0.0000
vt 0.9234 0.8058 0.0000
vt 0.0667 0.8058 0.0000
vt 0.9234 0.3061 0.0000
vt 0.0667 0.3061 0.0000
vt 0.9234 0.8065 0.0000
vt 0.9234 0.6800 0.0000
vt 0.9398 0.6800 0.0000
vt 0.9398 0.8065 0.0000
vt 0.0667 0.8065 0.0000
vt 0.0503 0.8065 0.0000
vt 0.0503 0.6800 0.0000
vt 0.0667 0.6800 0.0000
vt 0.9234 0.9345 0.0000
vt 0.0667 0.9345 0.0000
vt 0.9234 1.0546 0.0000
vt 0.0667 1.0546 0.0000
vt 0.9234 0.5550 0.0000
vt 0.0667 0.5550 0.0000
vt 0.9234 0.3049 0.0000
vt 0.9234 0.1784 0.0000
vt 0.9398 0.1784 0.0000
vt 0.9398 0.3049 0.0000
vt 0.0667 0.3049 0.0000
vt 0.0503 0.3049 0.0000
vt 0.0503 0.1784 0.0000
vt 0.0667 0.1784 0.0000
vt 0.9234 0.4329 0.0000
vt 0.0667 0.4329 0.0000
vt 0.9234 0.5531 0.0000
vt 0.0667 0.5531 0.0000
vt 0.9234 0.0534 0.0000
vt 0.0667 0.0534 0.0000
vt 0.9234 1.0552 0.0000
vt 0.9234 0.9287 0.0000
vt 0.9398 0.9287 0.0000
vt 0.9398 1.0552 0.0000
vt 0.0667 1.0552 0.0000
vt 0.0503 1.0552 0.0000
vt 0.0503 0.9287 0.0000
vt 0.0667 0.9287 0.0000
vt 0.9234 1.1833 0.0000
vt 0.0667 1.1833 0.0000
vt 0.9234 1.3034 0.0000
vt 0.0667 1.3034 0.0000
vt 0.9234 0.8037 0.0000
vt 0.0667 0.8037 0.0000
vt 0.9234 0.1807 0.0000
vt 0.9234 0.0542 0.0000
vt 0.9398 0.0542 0.0000
vt 0.9398 0.1807 0.0000
vt 0.0667 0.1807 0.0000
vt 0.0503 0.1807 0.0000
vt 0.0503 0.0542 0.0000
vt 0.0667 0.0542 0.0000
vt 0.9234 0.3087 0.0000
vt 0.0667 0.3087 0.0000
vt 0.9234 0.4288 0.0000
vt 0.0667 0.4288 0.0000
vt 0.9234 -0.0708 0.0000
vt 0.0667 -0.0708 0.0000
# 84 texture coords

g Palette
usemtl Material__258
f 1/1/1 2/2/1 3/3/1 
f 3/3/1 4/4/1 1/1/1 
f 5/5/2 6/6/2 7/7/2 
f 7/7/2 8/8/2 5/5/2 
f 8/8/3 7/7/3 3/3/3 
f 3/3/3 2/2/3 8/8/3 
f 5/9/4 8/10/4 2/11/4 
f 2/11/4 1/12/4 5/9/4 
f 6/13/5 5/9/5 1/12/5 
f 1/12/5 4/14/5 6/13/5 
f 7/7/6 6/13/6 4/14/6 
f 4/14/6 3/3/6 7/7/6 
f 9/1/1 10/2/1 11/3/1 
f 11/3/1 12/4/1 9/1/1 
f 13/5/2 14/6/2 15/7/2 
f 15/7/2 16/8/2 13/5/2 
f 16/8/3 15/7/3 11/3/3 
f 11/3/3 10/2/3 16/8/3 
f 13/9/4 16/10/4 10/11/4 
f 10/11/4 9/12/4 13/9/4 
f 14/13/5 13/9/5 9/12/5 
f 9/12/5 12/14/5 14/13/5 
f 15/7/6 14/13/6 12/14/6 
f 12/14/6 11/3/6 15/7/6 
f 17/1/1 18/2/1 19/3/1 
f 19/3/1 20/4/1 17/1/1 
f 21/5/2 22/6/2 23/7/2 
f 23/7/2 24/8/2 21/5/2 
f 24/8/3 23/7/3 19/3/3 
f 19/3/3 18/2/3 24/8/3 
f 21/9/4 24/10/4 18/11/4 
f 18/11/4 17/12/4 21/9/4 
f 22/13/5 21/9/5 17/12/5 
f 17/12/5 20/14/5 22/13/5 
f 23/7/6 22/13/6 20/14/6 
f 20/14/6 19/3/6 23/7/6 
f 25/15/7 26/16/7 27/17/7 
f 27/17/7 28/18/7 25/15/7 
f 29/19/8 30/20/8 31/21/8 
f 31/21/8 32/22/8 29/19/8 
f 25/15/9 28/23/9 30/24/9 
f 30/24/9 29/19/9 25/15/9 
f 28/23/3 27/25/3 31/26/3 
f 31/26/3 30/24/3 28/23/3 
f 27/27/2 26/16/2 32/22/2 
f 32/22/2 31/28/2 27/27/2 
f 26/16/5 25/15/5 29/19/5 
f 29/19/5 32/22/5 26/16/5 
f 33/29/7 34/30/7 35/31/7 
f 35/31/7 36/32/7 33/29/7 
f 37/33/8 38/34/8 39/35/8 
f 39/35/8 40/36/8 37/33/8 
f 33/29/9 36/37/9 38/38/9 
f 38/38/9 37/33/9 33/29/9 
f 36/37/3 35/39/3 39/40/3 
f 39/40/3 38/38/3 36/37/3 
f 35/41/2 34/30/2 40/36/2 
f 40/36/2 39/42/2 35/41/2 
f 34/30/5 33/29/5 37/33/5 
f 37/33/5 40/36/5 34/30/5 
f 41/43/7 42/44/7 43/45/7 
f 43/45/7 44/46/7 41/43/7 
f 45/47/8 46/48/8 47/49/8 
f 47/49/8 48/50/8 45/47/8 
f 41/43/9 44/51/9 46/52/9 
f 46/52/9 45/47/9 41/43/9 
f 44/51/3 43/53/3 47/54/3 
f 47/54/3 46/52/3 44/51/3 
f 43/55/2 42/44/2 48/50/2 
f 48/50/2 47/56/2 43/55/2 
f 42/44/5 41/43/5 45/47/5 
f 45/47/5 48/50/5 42/44/5 
f 49/57/7 50/58/7 51/59/7 
f 51/59/7 52/60/7 49/57/7 
f 53/61/8 54/62/8 55/63/8 
f 55/63/8 56/64/8 53/61/8 
f 49/57/9 52/65/9 54/66/9 
f 54/66/9 53/61/9 49/57/9 
f 52/65/3 51/67/3 55/68/3 
f 55/68/3 54/66/3 52/65/3 
f 51/69/2 50/58/2 56/64/2 
f 56/64/2 55/70/2 51/69/2 
f 50/58/5 49/57/5 53/61/5 
f 53/61/5 56/64/5 50/58/5 
f 57/71/7 58/72/7 59/73/7 
f 59/73/7 60/74/7 57/71/7 
f 61/75/8 62/76/8 63/77/8 
f 63/77/8 64/78/8 61/75/8 
f 57/71/9 60/79/9 62/80/9 
f 62/80/9 61/75/9 57/71/9 
f 60/79/3 59/81/3 63/82/3 
f 63/82/3 62/80/3 60/79/3 
f 59/83/2 58/72/2 64/78/2 
f 64/78/2 63/84/2 59/83/2 
f 58/72/5 57/71/5 61/75/5 
f 61/75/5 64/78/5 58/72/5 
f 65/15/7 66/16/7 67/17/7 
f 67/17/7 68/18/7 65/15/7 
f 69/19/8 70/20/8 71/21/8 
f 71/21/8 72/22/8 69/19/8 
f 65/15/9 68/23/9 70/24/9 
f 70/24/9 69/19/9 65/15/9 
f 68/23/3 67/25/3 71/26/3 
f 71/26/3 70/24/3 68/23/3 
f 67/27/2 66/16/2 72/22/2 
f 72/22/2 71/28/2 67/27/2 
f 66/16/5 65/15/5 69/19/5 
f 69/19/5 72/22/5 66/16/5 
f 73/29/7 74/30/7 75/31/7 
f 75/31/7 76/32/7 73/29/7 
f 77/33/8 78/34/8 79/35/8 
f 79/35/8 80/36/8 77/33/8 
f 73/29/9 76/37/9 78/38/9 
f 78/38/9 77/33/9 73/29/9 
f 76/37/3 75/39/3 79/40/3 
f 79/40/3 78/38/3 76/37/3 
f 75/41/2 74/30/2 80/36/2 
f 80/36/2 79/42/2 75/41/2 
f 74/30/5 73/29/5 77/33/5 
f 77/33/5 80/36/5 74/30/5 
f 81/43/7 82/44/7 83/45/7 
f 83/45/7 84/46/7 81/43/7 
f 85/47/8 86/48/8 87/49/8 
f 87/49/8 88/50/8 85/47/8 
f 81/43/9 84/51/9 86/52/9 
f 86/52/9 85/47/9 81/43/9 
f 84/51/3 83/53/3 87/54/3 
f 87/54/3 86/52/3 84/51/3 
f 83/55/2 82/44/2 88/50/2 
f 88/50/2 87/56/2 83/55/2 
f 82/44/5 81/43/5 85/47/5 
f 85/47/5 88/50/5 82/44/5 
f 89/57/7 90/58/7 91/59/7 
f 91/59/7 92/60/7 89/57/7 
f 93/61/8 94/62/8 95/63/8 
f 95/63/8 96/64/8 93/61/8 
f 89/57/9 92/65/9 94/66/9 
f 94/66/9 93/61/9 89/57/9 
f 92/65/3 91/67/3 95/68/3 
f 95/68/3 94/66/3 92/65/3 
f 91/69/2 90/58/2 96/64/2 
f 96/64/2 95/70/2 91/69/2 
f 90/58/5 89/57/5 93/61/5 
f 93/61/5 96/64/5 90/58/5 
f 97/71/7 98/72/7 99/73/7 
f 99/73/7 100/74/7 97/71/7 
f 101/75/8 102/76/8 103/77/8 
f 103/77/8 104/78/8 101/75/8 
f 97/71/9 100/79/9 102/80/9 
f 102/80/9 101/75/9 97/71/9 
f 100/79/3 99/81/3 103/82/3 
f 103/82/3 102/80/3 100/79/3 
f 99/83/2 98/72/2 104/78/2 
f 104/78/2 103/84/2 99/83/2 
f 98/72/5 97/71/5 101/75/5 
f 101/75/5 104/78/5 98/72/5 
# 156 faces

