# WEngine Wavefront OBJ Exporter
# File Created : Mon Dec 12 19:42:08 2016

# Information about the object:
# Vertices: 269
# Textures: 84
# Normals:  9
# Faces:    156

# Vertices
v -1.9474 1.8320 -0.3727
v -1.9506 1.8255 -0.1250
v -1.9489 1.9824 -0.1209
v -1.9458 1.9889 -0.3686
v 1.9883 1.7892 -0.3239
v 1.9899 1.9462 -0.3198
v 1.9868 1.9397 -0.0721
v 1.9851 1.7827 -0.0762
v -1.9673 -0.0538 -0.4224
v -1.9704 -0.0603 -0.1747
v -1.9688 0.0966 -0.1706
v -1.9656 0.1031 -0.4183
v 1.9684 -0.0966 -0.3736
v 1.9701 0.0604 -0.3695
v 1.9669 0.0539 -0.1218
v 1.9653 -0.1031 -0.1259
v -1.9868 -1.9064 -0.4712
v -1.9899 -1.9129 -0.2235
v -1.9883 -1.7559 -0.2194
v -1.9851 -1.7495 -0.4671
v 1.9489 -1.9491 -0.4224
v 1.9506 -1.7922 -0.4183
v 1.9474 -1.7987 -0.1706
v 1.9458 -1.9556 -0.1747
v 1.3643 -1.9749 -0.5059
v 1.9356 -1.9811 -0.4988
v 1.9347 -1.9829 -0.4296
v 1.3634 -1.9767 -0.4367
v 1.4057 1.9553 -0.4023
v 1.4048 1.9535 -0.3332
v 1.9761 1.9473 -0.3261
v 1.9770 1.9491 -0.3952
v 0.5319 -1.9659 -0.5162
v 1.1032 -1.9721 -0.5091
v 1.1023 -1.9739 -0.4400
v 0.5310 -1.9677 -0.4470
v 0.5733 1.9643 -0.4127
v 0.5724 1.9625 -0.3435
v 1.1437 1.9563 -0.3364
v 1.1446 1.9581 -0.4056
v -0.3172 -1.9566 -0.5267
v 0.2541 -1.9628 -0.5196
v 0.2533 -1.9647 -0.4505
v -0.3181 -1.9585 -0.4576
v -0.2758 1.9735 -0.4232
v -0.2767 1.9717 -0.3540
v 0.2946 1.9655 -0.3470
v 0.2955 1.9673 -0.4161
v -1.1330 -1.9478 -0.5368
v -0.5617 -1.9540 -0.5298
v -0.5625 -1.9558 -0.4606
v -1.1339 -1.9496 -0.4677
v -1.0916 1.9824 -0.4333
v -1.0925 1.9806 -0.3642
v -0.5211 1.9744 -0.3571
v -0.5203 1.9762 -0.4262
v -1.9675 -1.9387 -0.5472
v -1.3961 -1.9449 -0.5401
v -1.3970 -1.9467 -0.4710
v -1.9683 -1.9405 -0.4780
v -1.9261 1.9915 -0.4437
v -1.9270 1.9896 -0.3745
v -1.3556 1.9834 -0.3674
v -1.3548 1.9853 -0.4366
v 1.3601 -1.9834 -0.1798
v 1.9315 -1.9896 -0.1727
v 1.9306 -1.9915 -0.1035
v 1.3593 -1.9853 -0.1106
v 1.4015 1.9467 -0.0762
v 1.4006 1.9449 -0.0071
v 1.9720 1.9387 -0.0000
v 1.9728 1.9405 -0.0691
v 0.5277 -1.9744 -0.1901
v 1.0990 -1.9806 -0.1830
v 1.0982 -1.9824 -0.1139
v 0.5268 -1.9762 -0.1209
v 0.5691 1.9558 -0.0866
v 0.5682 1.9540 -0.0174
v 1.1396 1.9478 -0.0103
v 1.1404 1.9496 -0.0795
v -0.3213 -1.9652 -0.2006
v 0.2500 -1.9714 -0.1935
v 0.2491 -1.9732 -0.1244
v -0.3222 -1.9670 -0.1315
v -0.2799 1.9650 -0.0971
v -0.2808 1.9632 -0.0279
v 0.2905 1.9570 -0.0209
v 0.2914 1.9588 -0.0900
v -1.1371 -1.9563 -0.2107
v -0.5658 -1.9625 -0.2037
v -0.5667 -1.9643 -0.1345
v -1.1380 -1.9581 -0.1416
v -1.0957 1.9738 -0.1072
v -1.0966 1.9720 -0.0381
v -0.5253 1.9658 -0.0310
v -0.5244 1.9676 -0.1001
v -1.9716 -1.9473 -0.2211
v -1.4003 -1.9535 -0.2140
v -1.4012 -1.9553 -0.1449
v -1.9725 -1.9491 -0.1519
v -1.9302 1.9829 -0.1176
v -1.9311 1.9811 -0.0484
v -1.3598 1.9749 -0.0413
v -1.3589 1.9767 -0.1105
v -1.4012 -1.9553 -0.1449
v -1.3598 1.9749 -0.0413
v -1.4012 -1.9553 -0.1449
v -1.9725 -1.9491 -0.1519
v -1.3598 1.9749 -0.0413
v -1.9311 1.9811 -0.0484
v -1.4012 -1.9553 -0.1449
v -1.9725 -1.9491 -0.1519
v -1.3598 1.9749 -0.0413
v -1.9311 1.9811 -0.0484
v -1.9725 -1.9491 -0.1519
v -1.9311 1.9811 -0.0484
v -0.5667 -1.9643 -0.1345
v -0.5253 1.9658 -0.0310
v -0.5667 -1.9643 -0.1345
v -1.1380 -1.9581 -0.1416
v -0.5253 1.9658 -0.0310
v -1.0966 1.9720 -0.0381
v -0.5667 -1.9643 -0.1345
v -1.1380 -1.9581 -0.1416
v -0.5253 1.9658 -0.0310
v -1.0966 1.9720 -0.0381
v -1.1380 -1.9581 -0.1416
v -1.0966 1.9720 -0.0381
v 0.2491 -1.9732 -0.1244
v 0.2905 1.9570 -0.0209
v 0.2491 -1.9732 -0.1244
v -0.3222 -1.9670 -0.1315
v 0.2905 1.9570 -0.0209
v -0.2808 1.9632 -0.0279
v 0.2491 -1.9732 -0.1244
v -0.3222 -1.9670 -0.1315
v 0.2905 1.9570 -0.0209
v -0.2808 1.9632 -0.0279
v -0.3222 -1.9670 -0.1315
v -0.2808 1.9632 -0.0279
v 1.0982 -1.9824 -0.1139
v 1.1396 1.9478 -0.0103
v 1.0982 -1.9824 -0.1139
v 0.5268 -1.9762 -0.1209
v 1.1396 1.9478 -0.0103
v 0.5682 1.9540 -0.0174
v 1.0982 -1.9824 -0.1139
v 0.5268 -1.9762 -0.1209
v 1.1396 1.9478 -0.0103
v 0.5682 1.9540 -0.0174
v 0.5268 -1.9762 -0.1209
v 0.5682 1.9540 -0.0174
v 1.9306 -1.9915 -0.1035
v 1.9720 1.9387 -0.0000
v 1.9306 -1.9915 -0.1035
v 1.3593 -1.9853 -0.1106
v 1.9720 1.9387 -0.0000
v 1.4006 1.9449 -0.0071
v 1.9306 -1.9915 -0.1035
v 1.3593 -1.9853 -0.1106
v 1.9720 1.9387 -0.0000
v 1.4006 1.9449 -0.0071
v 1.3593 -1.9853 -0.1106
v 1.4006 1.9449 -0.0071
v -1.3970 -1.9467 -0.4710
v -1.3556 1.9834 -0.3674
v -1.3970 -1.9467 -0.4710
v -1.9683 -1.9405 -0.4780
v -1.3556 1.9834 -0.3674
v -1.9270 1.9896 -0.3745
v -1.3970 -1.9467 -0.4710
v -1.9683 -1.9405 -0.4780
v -1.3556 1.9834 -0.3674
v -1.9270 1.9896 -0.3745
v -1.9683 -1.9405 -0.4780
v -1.9270 1.9896 -0.3745
v -0.5625 -1.9558 -0.4606
v -0.5211 1.9744 -0.3571
v -0.5625 -1.9558 -0.4606
v -1.1339 -1.9496 -0.4677
v -0.5211 1.9744 -0.3571
v -1.0925 1.9806 -0.3642
v -0.5625 -1.9558 -0.4606
v -1.1339 -1.9496 -0.4677
v -0.5211 1.9744 -0.3571
v -1.0925 1.9806 -0.3642
v -1.1339 -1.9496 -0.4677
v -1.0925 1.9806 -0.3642
v 0.2533 -1.9647 -0.4505
v 0.2946 1.9655 -0.3470
v 0.2533 -1.9647 -0.4505
v -0.3181 -1.9585 -0.4576
v 0.2946 1.9655 -0.3470
v -0.2767 1.9717 -0.3540
v 0.2533 -1.9647 -0.4505
v -0.3181 -1.9585 -0.4576
v 0.2946 1.9655 -0.3470
v -0.2767 1.9717 -0.3540
v -0.3181 -1.9585 -0.4576
v -0.2767 1.9717 -0.3540
v 1.1023 -1.9739 -0.4400
v 1.1437 1.9563 -0.3364
v 1.1023 -1.9739 -0.4400
v 0.5310 -1.9677 -0.4470
v 1.1437 1.9563 -0.3364
v 0.5724 1.9625 -0.3435
v 1.1023 -1.9739 -0.4400
v 0.5310 -1.9677 -0.4470
v 1.1437 1.9563 -0.3364
v 0.5724 1.9625 -0.3435
v 0.5310 -1.9677 -0.4470
v 0.5724 1.9625 -0.3435
v 1.9347 -1.9829 -0.4296
v 1.9761 1.9473 -0.3261
v 1.9347 -1.9829 -0.4296
v 1.3634 -1.9767 -0.4367
v 1.9761 1.9473 -0.3261
v 1.4048 1.9535 -0.3332
v 1.9347 -1.9829 -0.4296
v 1.3634 -1.9767 -0.4367
v 1.9761 1.9473 -0.3261
v 1.4048 1.9535 -0.3332
v 1.3634 -1.9767 -0.4367
v 1.4048 1.9535 -0.3332
v -1.9851 -1.7495 -0.4671
v -1.9851 -1.7495 -0.4671
v 1.9506 -1.7922 -0.4183
v -1.9868 -1.9064 -0.4712
v -1.9851 -1.7495 -0.4671
v 1.9506 -1.7922 -0.4183
v -1.9868 -1.9064 -0.4712
v 1.9506 -1.7922 -0.4183
v 1.9489 -1.9491 -0.4224
v -1.9899 -1.9129 -0.2235
v -1.9868 -1.9064 -0.4712
v 1.9489 -1.9491 -0.4224
v -1.9899 -1.9129 -0.2235
v 1.9489 -1.9491 -0.4224
v 1.9458 -1.9556 -0.1747
v -1.9656 0.1031 -0.4183
v -1.9656 0.1031 -0.4183
v 1.9701 0.0604 -0.3695
v -1.9673 -0.0538 -0.4224
v -1.9656 0.1031 -0.4183
v 1.9701 0.0604 -0.3695
v -1.9673 -0.0538 -0.4224
v 1.9701 0.0604 -0.3695
v 1.9684 -0.0966 -0.3736
v -1.9704 -0.0603 -0.1747
v -1.9673 -0.0538 -0.4224
v 1.9684 -0.0966 -0.3736
v -1.9704 -0.0603 -0.1747
v 1.9684 -0.0966 -0.3736
v 1.9653 -0.1031 -0.1259
v -1.9458 1.9889 -0.3686
v -1.9458 1.9889 -0.3686
v 1.9899 1.9462 -0.3198
v -1.9474 1.8320 -0.3727
v -1.9458 1.9889 -0.3686
v 1.9899 1.9462 -0.3198
v -1.9474 1.8320 -0.3727
v 1.9899 1.9462 -0.3198
v 1.9883 1.7892 -0.3239
v -1.9506 1.8255 -0.1250
v -1.9474 1.8320 -0.3727
v 1.9883 1.7892 -0.3239
v -1.9506 1.8255 -0.1250
v 1.9883 1.7892 -0.3239
v 1.9851 1.7827 -0.0762
# 269 Vertices

# Texture coordinates
vt -1.0811 0.3100 0.0000
vt -0.9479 0.3099 0.0000
vt -0.9479 0.4280 0.0000
vt -1.0811 0.4280 0.0000
vt 1.3011 0.3099 0.0000
vt 1.3011 0.4280 0.0000
vt 1.1679 0.4280 0.0000
vt 1.1679 0.3099 0.0000
vt 1.1679 0.6829 0.0000
vt 1.1679 0.8086 0.0000
vt -0.9479 0.8086 0.0000
vt -0.9479 0.6829 0.0000
vt 1.1679 0.5612 0.0000
vt -0.9479 0.5612 0.0000
vt 0.9234 0.5577 0.0000
vt 0.9234 0.4311 0.0000
vt 0.9398 0.4311 0.0000
vt 0.9398 0.5577 0.0000
vt 0.0667 0.5577 0.0000
vt 0.0503 0.5577 0.0000
vt 0.0503 0.4311 0.0000
vt 0.0667 0.4311 0.0000
vt 0.9234 0.6857 0.0000
vt 0.0667 0.6857 0.0000
vt 0.9234 0.8058 0.0000
vt 0.0667 0.8058 0.0000
vt 0.9234 0.3061 0.0000
vt 0.0667 0.3061 0.0000
vt 0.9234 0.8065 0.0000
vt 0.9234 0.6800 0.0000
vt 0.9398 0.6800 0.0000
vt 0.9398 0.8065 0.0000
vt 0.0667 0.8065 0.0000
vt 0.0503 0.8065 0.0000
vt 0.0503 0.6800 0.0000
vt 0.0667 0.6800 0.0000
vt 0.9234 0.9345 0.0000
vt 0.0667 0.9345 0.0000
vt 0.9234 1.0546 0.0000
vt 0.0667 1.0546 0.0000
vt 0.9234 0.5550 0.0000
vt 0.0667 0.5550 0.0000
vt 0.9234 0.3049 0.0000
vt 0.9234 0.1784 0.0000
vt 0.9398 0.1784 0.0000
vt 0.9398 0.3049 0.0000
vt 0.0667 0.3049 0.0000
vt 0.0503 0.3049 0.0000
vt 0.0503 0.1784 0.0000
vt 0.0667 0.1784 0.0000
vt 0.9234 0.4329 0.0000
vt 0.0667 0.4329 0.0000
vt 0.9234 0.5531 0.0000
vt 0.0667 0.5531 0.0000
vt 0.9234 0.0534 0.0000
vt 0.0667 0.0534 0.0000
vt 0.9234 1.0552 0.0000
vt 0.9234 0.9287 0.0000
vt 0.9398 0.9287 0.0000
vt 0.9398 1.0552 0.0000
vt 0.0667 1.0552 0.0000
vt 0.0503 1.0552 0.0000
vt 0.0503 0.9287 0.0000
vt 0.0667 0.9287 0.0000
vt 0.9234 1.1833 0.0000
vt 0.0667 1.1833 0.0000
vt 0.9234 1.3034 0.0000
vt 0.0667 1.3034 0.0000
vt 0.9234 0.8037 0.0000
vt 0.0667 0.8037 0.0000
vt 0.9234 0.1807 0.0000
vt 0.9234 0.0542 0.0000
vt 0.9398 0.0542 0.0000
vt 0.9398 0.1807 0.0000
vt 0.0667 0.1807 0.0000
vt 0.0503 0.1807 0.0000
vt 0.0503 0.0542 0.0000
vt 0.0667 0.0542 0.0000
vt 0.9234 0.3087 0.0000
vt 0.0667 0.3087 0.0000
vt 0.9234 0.4288 0.0000
vt 0.0667 0.4288 0.0000
vt 0.9234 -0.0708 0.0000
vt 0.0667 -0.0708 0.0000
# 84 texture coords

# Vertex normals
vn -0.9999 0.0108 -0.0124
vn 0.9999 -0.0109 0.0124
vn -0.0127 -0.0262 0.9996
vn -0.0105 -0.9996 -0.0264
vn 0.0127 0.0262 -0.9996
vn 0.0105 0.9996 0.0263
vn -0.0105 -0.9996 -0.0263
vn 0.0105 0.9996 0.0264
vn -0.9999 0.0109 -0.0124
# 9 normals

# Faces
f 1/1/1 2/2/1 3/3/1
f 3/3/1 4/4/1 1/1/1
f 5/5/2 6/6/2 7/7/2
f 7/7/2 8/8/2 5/5/2
f 8/8/3 7/7/3 3/3/3
f 3/3/3 2/2/3 8/8/3
f 268/9/4 269/10/4 267/11/4
f 264/11/4 265/12/4 266/9/4
f 262/13/5 263/9/5 261/12/5
f 258/12/5 259/14/5 260/13/5
f 7/7/6 257/13/6 256/14/6
f 255/14/6 3/3/6 7/7/6
f 9/1/1 10/2/1 11/3/1
f 11/3/1 12/4/1 9/1/1
f 13/5/2 14/6/2 15/7/2
f 15/7/2 16/8/2 13/5/2
f 16/8/3 15/7/3 11/3/3
f 11/3/3 10/2/3 16/8/3
f 253/9/4 254/10/4 252/11/4
f 249/11/4 250/12/4 251/9/4
f 247/13/5 248/9/5 246/12/5
f 243/12/5 244/14/5 245/13/5
f 15/7/6 242/13/6 241/14/6
f 240/14/6 11/3/6 15/7/6
f 17/1/1 18/2/1 19/3/1
f 19/3/1 20/4/1 17/1/1
f 21/5/2 22/6/2 23/7/2
f 23/7/2 24/8/2 21/5/2
f 24/8/3 23/7/3 19/3/3
f 19/3/3 18/2/3 24/8/3
f 238/9/4 239/10/4 237/11/4
f 234/11/4 235/12/4 236/9/4
f 232/13/5 233/9/5 231/12/5
f 228/12/5 229/14/5 230/13/5
f 23/7/6 227/13/6 226/14/6
f 225/14/6 19/3/6 23/7/6
f 25/15/7 26/16/7 27/17/7
f 27/17/7 28/18/7 25/15/7
f 29/19/8 30/20/8 31/21/8
f 31/21/8 32/22/8 29/19/8
f 25/15/9 223/23/9 224/24/9
f 222/24/9 29/19/9 25/15/9
f 220/23/3 219/25/3 221/26/3
f 217/26/3 218/24/3 216/23/3
f 215/27/2 26/16/2 32/22/2
f 32/22/2 214/28/2 213/27/2
f 26/16/5 25/15/5 29/19/5
f 29/19/5 32/22/5 26/16/5
f 33/29/7 34/30/7 35/31/7
f 35/31/7 36/32/7 33/29/7
f 37/33/8 38/34/8 39/35/8
f 39/35/8 40/36/8 37/33/8
f 33/29/9 211/37/9 212/38/9
f 210/38/9 37/33/9 33/29/9
f 208/37/3 207/39/3 209/40/3
f 205/40/3 206/38/3 204/37/3
f 203/41/2 34/30/2 40/36/2
f 40/36/2 202/42/2 201/41/2
f 34/30/5 33/29/5 37/33/5
f 37/33/5 40/36/5 34/30/5
f 41/43/7 42/44/7 43/45/7
f 43/45/7 44/46/7 41/43/7
f 45/47/8 46/48/8 47/49/8
f 47/49/8 48/50/8 45/47/8
f 41/43/9 199/51/9 200/52/9
f 198/52/9 45/47/9 41/43/9
f 196/51/3 195/53/3 197/54/3
f 193/54/3 194/52/3 192/51/3
f 191/55/2 42/44/2 48/50/2
f 48/50/2 190/56/2 189/55/2
f 42/44/5 41/43/5 45/47/5
f 45/47/5 48/50/5 42/44/5
f 49/57/7 50/58/7 51/59/7
f 51/59/7 52/60/7 49/57/7
f 53/61/8 54/62/8 55/63/8
f 55/63/8 56/64/8 53/61/8
f 49/57/9 187/65/9 188/66/9
f 186/66/9 53/61/9 49/57/9
f 184/65/3 183/67/3 185/68/3
f 181/68/3 182/66/3 180/65/3
f 179/69/2 50/58/2 56/64/2
f 56/64/2 178/70/2 177/69/2
f 50/58/5 49/57/5 53/61/5
f 53/61/5 56/64/5 50/58/5
f 57/71/7 58/72/7 59/73/7
f 59/73/7 60/74/7 57/71/7
f 61/75/8 62/76/8 63/77/8
f 63/77/8 64/78/8 61/75/8
f 57/71/9 175/79/9 176/80/9
f 174/80/9 61/75/9 57/71/9
f 172/79/3 171/81/3 173/82/3
f 169/82/3 170/80/3 168/79/3
f 167/83/2 58/72/2 64/78/2
f 64/78/2 166/84/2 165/83/2
f 58/72/5 57/71/5 61/75/5
f 61/75/5 64/78/5 58/72/5
f 65/15/7 66/16/7 67/17/7
f 67/17/7 68/18/7 65/15/7
f 69/19/8 70/20/8 71/21/8
f 71/21/8 72/22/8 69/19/8
f 65/15/9 163/23/9 164/24/9
f 162/24/9 69/19/9 65/15/9
f 160/23/3 159/25/3 161/26/3
f 157/26/3 158/24/3 156/23/3
f 155/27/2 66/16/2 72/22/2
f 72/22/2 154/28/2 153/27/2
f 66/16/5 65/15/5 69/19/5
f 69/19/5 72/22/5 66/16/5
f 73/29/7 74/30/7 75/31/7
f 75/31/7 76/32/7 73/29/7
f 77/33/8 78/34/8 79/35/8
f 79/35/8 80/36/8 77/33/8
f 73/29/9 151/37/9 152/38/9
f 150/38/9 77/33/9 73/29/9
f 148/37/3 147/39/3 149/40/3
f 145/40/3 146/38/3 144/37/3
f 143/41/2 74/30/2 80/36/2
f 80/36/2 142/42/2 141/41/2
f 74/30/5 73/29/5 77/33/5
f 77/33/5 80/36/5 74/30/5
f 81/43/7 82/44/7 83/45/7
f 83/45/7 84/46/7 81/43/7
f 85/47/8 86/48/8 87/49/8
f 87/49/8 88/50/8 85/47/8
f 81/43/9 139/51/9 140/52/9
f 138/52/9 85/47/9 81/43/9
f 136/51/3 135/53/3 137/54/3
f 133/54/3 134/52/3 132/51/3
f 131/55/2 82/44/2 88/50/2
f 88/50/2 130/56/2 129/55/2
f 82/44/5 81/43/5 85/47/5
f 85/47/5 88/50/5 82/44/5
f 89/57/7 90/58/7 91/59/7
f 91/59/7 92/60/7 89/57/7
f 93/61/8 94/62/8 95/63/8
f 95/63/8 96/64/8 93/61/8
f 89/57/9 127/65/9 128/66/9
f 126/66/9 93/61/9 89/57/9
f 124/65/3 123/67/3 125/68/3
f 121/68/3 122/66/3 120/65/3
f 119/69/2 90/58/2 96/64/2
f 96/64/2 118/70/2 117/69/2
f 90/58/5 89/57/5 93/61/5
f 93/61/5 96/64/5 90/58/5
f 97/71/7 98/72/7 99/73/7
f 99/73/7 100/74/7 97/71/7
f 101/75/8 102/76/8 103/77/8
f 103/77/8 104/78/8 101/75/8
f 97/71/9 115/79/9 116/80/9
f 114/80/9 101/75/9 97/71/9
f 112/79/3 111/81/3 113/82/3
f 109/82/3 110/80/3 108/79/3
f 107/83/2 98/72/2 104/78/2
f 104/78/2 106/84/2 105/83/2
f 98/72/5 97/71/5 101/75/5
f 101/75/5 104/78/5 98/72/5
# 156 faces