# WEngine Wavefront OBJ Exporter
# File Created : Sat Dec 24 01:12:50 2016

# Information about the object:
# Vertices: 4
# Textures: 4
# Normals:  1
# Faces:    2

# Vertices
v -736.4418 0.0000 -671.4846
v -736.4418 0.0000 671.4846
v 736.4418 0.0000 -671.4846
v 736.4418 0.0000 671.4846
# 4 Vertices

# Texture coordinates
vt 0.0000 1.0000 0.0000
vt 0.0000 0.0000 0.0000
vt 1.0000 1.0000 0.0000
vt 1.0000 0.0000 0.0000
# 4 texture coords

# Vertex normals
vn 0.0000 1.0000 -0.0000
# 1 normals

# Faces
f 1/1/1 2/2/1 3/3/1
f 4/4/1 3/3/1 2/2/1
# 2 faces