# WEngine Wavefront OBJ Exporter
# File Created : Sat Dec 24 01:03:56 2016

# Information about the object:
# Vertices: 359
# Textures: 173
# Normals:  73
# Faces:    139

# Vertices
v 1.2160 24.7947 15.8894
v 0.5845 24.7947 15.8894
v 1.0037 24.3448 15.5745
v 11.7467 8.3220 -16.5465
v 11.7467 8.3220 1.8983
v 11.2473 8.1494 -16.3215
v 11.2473 8.1494 1.8983
v 11.7467 8.3220 15.8894
v 11.2473 8.1494 15.5745
v 1.2160 24.2279 5.0474
v 1.2160 24.2279 -3.6453
v 0.5845 24.2279 -3.6453
v 0.5845 24.7947 -16.5465
v -9.9462 8.2770 -16.5465
v -9.9462 8.2770 15.8894
v 0.5845 24.2279 5.0474
v 1.2160 24.7947 -16.5465
v 5.5175 17.7364 -9.0438
v 5.6213 17.5739 -9.0423
v 7.6392 14.5260 -9.0132
v -9.4468 8.2169 15.5745
v -7.5756 10.8274 15.5745
v -5.6222 14.2385 15.5745
v 11.1349 8.0433 16.5193
v -9.3344 8.0433 16.5193
v 10.9999 7.9205 16.4801
v 7.4909 14.1794 16.4046
v 7.5809 14.3525 16.5071
v -5.6454 14.1794 16.4046
v 5.9496 16.6194 15.6122
v -5.7354 14.3525 16.5071
v -3.9348 16.6970 15.5745
v -4.5177 15.9775 15.5745
v 7.5809 14.4073 15.7368
v -5.6454 14.2375 15.5877
v 9.4871 10.8274 15.5745
v -9.2768 8.2163 15.5745
v -9.3344 8.1280 15.5745
v 11.1349 8.1280 15.5745
v 11.1215 8.1498 15.5745
v -9.1994 7.9205 16.4801
v -9.1994 7.9969 15.5745
v 10.9999 7.9969 15.5745
v -5.7354 14.4096 15.7044
v 7.4909 14.2348 15.6257
v -3.7530 16.6970 -16.5465
v 5.7521 16.6970 -16.5465
v -5.2115 14.3303 -17.4791
v -5.2115 14.8893 -16.2130
v -3.7530 17.0344 -16.0966
v 5.7521 17.0344 -16.0966
v 7.1861 14.3303 -17.4791
v 6.9949 14.2153 -17.1825
v 6.9949 14.5926 -16.3279
v -5.0293 14.2153 -17.1825
v -7.5337 10.8486 -16.4340
v 9.4478 10.8486 -16.4340
v -9.3344 8.1811 -17.4915
v -9.3344 8.8350 -16.2572
v -7.5337 11.1861 -15.9841
v 9.4478 11.1861 -15.9841
v 11.1349 8.1811 -17.4915
v 10.9099 8.0876 -17.1874
v 10.9099 8.5310 -16.3506
v -9.1094 8.0876 -17.1874
v -9.1094 8.5310 -16.3506
v 11.1349 8.8350 -16.2572
v -5.0293 14.5926 -16.3279
v 7.1861 14.8893 -16.2130
v 1.2812 23.5852 -16.3215
v 1.2812 23.9061 -16.3215
v 1.0096 24.3572 -16.3277
v 0.7909 24.3572 -16.3277
v 0.5123 24.3572 -16.4536
v 0.5123 23.8970 -16.3215
v 0.5123 24.3123 15.7409
v 1.2812 24.3572 -16.4500
v 0.7968 24.3448 15.5745
v 1.0243 24.3123 15.5745
v 0.5123 23.8970 15.5745
v 7.3960 14.2385 15.5745
v 0.5123 23.9194 15.5828
v 7.4285 14.8443 -11.2563
v 5.5175 17.8326 -11.2328
v 7.6392 14.5260 -11.2588
v 5.8410 16.6970 15.5745
v 0.5123 23.5852 -16.3215
v -9.4468 8.2169 -16.3215
v 0.7750 24.3123 15.5751
v 1.2812 23.9309 -16.3274
v 1.2812 24.3123 15.7373
v 7.4909 14.2351 15.6332
v 1.2812 23.9061 15.5745
v -9.9462 8.2770 15.8894
v -5.6454 14.2375 15.5877
v -5.7354 14.4096 15.7044
v -4.5177 15.9775 15.5745
v -5.7354 14.4096 15.7044
v -9.9462 8.2770 15.8894
v -5.6222 14.2385 15.5745
v -5.6454 14.2375 15.5877
v -4.5177 15.9775 15.5745
v 0.5123 23.8970 15.5745
v -9.9462 8.2770 15.8894
v -5.6222 14.2385 15.5745
v -9.4468 8.2169 15.5745
v 11.7467 8.3220 15.8894
v 7.5809 14.4073 15.7368
v 1.2160 24.7947 15.8894
v 5.9496 16.6194 15.6122
v 7.5809 14.4073 15.7368
v 1.2160 24.7947 15.8894
v 5.9496 16.6194 15.6122
v 5.8410 16.6970 15.5745
v 1.2160 24.7947 15.8894
v 5.8410 16.6970 15.5745
v 5.8410 16.6970 15.5745
v 1.2160 24.7947 15.8894
v 1.0037 24.3448 15.5745
v 11.7467 8.3220 15.8894
v 7.3960 14.2385 15.5745
v 1.0037 24.3448 15.5745
v 1.0243 24.3123 15.5745
v 11.7467 8.3220 15.8894
v 1.2160 24.7947 15.8894
v 7.5809 14.4073 15.7368
v 0.7968 24.3448 15.5745
v 0.7750 24.3123 15.5751
v 11.7467 8.3220 -16.5465
v 1.2160 24.7947 -16.5465
v 11.7467 8.3220 -16.5465
v 1.2812 23.9061 -16.3215
v -9.9462 8.2770 15.8894
v 0.5845 24.7947 15.8894
v 0.5845 24.7947 15.8894
v 0.7968 24.3448 15.5745
v -9.9462 8.2770 -16.5465
v 0.5123 23.8970 -16.3215
v -9.4468 8.2169 -16.3215
v 0.5845 24.7947 -16.5465
v -9.9462 8.2770 -16.5465
v 0.5845 24.7947 -16.5465
v 0.5845 24.7947 -16.5465
v 1.2160 24.7947 -16.5465
v 0.5123 23.8970 -16.3215
v 6.9949 14.5926 -16.3279
v 6.9949 14.2153 -17.1825
v 7.1861 14.8893 -16.2130
v -5.2115 14.8893 -16.2130
v -5.0293 14.5926 -16.3279
v 7.1861 14.8893 -16.2130
v -5.2115 14.3303 -17.4791
v -5.0293 14.2153 -17.1825
v 7.1861 14.3303 -17.4791
v -5.0293 14.2153 -17.1825
v 6.9949 14.2153 -17.1825
v 10.9099 8.5310 -16.3506
v 10.9099 8.0876 -17.1874
v 11.1349 8.8350 -16.2572
v -9.3344 8.8350 -16.2572
v 10.9099 8.5310 -16.3506
v -9.1094 8.5310 -16.3506
v -9.3344 8.1811 -17.4915
v -9.1094 8.0876 -17.1874
v -9.3344 8.8350 -16.2572
v 11.1349 8.1811 -17.4915
v -9.1094 8.0876 -17.1874
v 10.9099 8.0876 -17.1874
v -9.1094 8.5310 -16.3506
v -9.1094 8.0876 -17.1874
v 10.9099 8.5310 -16.3506
v 9.4478 11.1861 -15.9841
v 11.1349 8.1811 -17.4915
v 11.1349 8.8350 -16.2572
v 9.4478 10.8486 -16.4340
v -7.5337 10.8486 -16.4340
v 9.4478 11.1861 -15.9841
v -7.5337 10.8486 -16.4340
v -9.3344 8.1811 -17.4915
v -7.5337 11.1861 -15.9841
v -9.3344 8.1811 -17.4915
v 9.4478 10.8486 -16.4340
v 11.1349 8.1811 -17.4915
v -5.0293 14.5926 -16.3279
v -5.0293 14.2153 -17.1825
v 6.9949 14.5926 -16.3279
v 5.7521 17.0344 -16.0966
v 7.1861 14.3303 -17.4791
v 7.1861 14.8893 -16.2130
v 5.7521 16.6970 -16.5465
v -3.7530 16.6970 -16.5465
v 5.7521 17.0344 -16.0966
v -3.7530 16.6970 -16.5465
v -5.2115 14.3303 -17.4791
v -3.7530 17.0344 -16.0966
v -5.2115 14.3303 -17.4791
v 5.7521 16.6970 -16.5465
v 7.1861 14.3303 -17.4791
v 7.5809 14.3525 16.5071
v 7.4909 14.1794 16.4046
v -5.6454 14.1794 16.4046
v -5.6454 14.2375 15.5877
v -5.7354 14.4096 15.7044
v 11.1349 8.0433 16.5193
v 11.1349 8.1280 15.5745
v 10.9999 7.9969 15.5745
v -9.3344 8.0433 16.5193
v -9.3344 8.1280 15.5745
v -9.1994 7.9205 16.4801
v 10.9999 7.9205 16.4801
v 10.9999 7.9969 15.5745
v -9.1994 7.9969 15.5745
v 11.1349 8.0433 16.5193
v 9.4871 10.8274 15.5745
v 11.1215 8.1498 15.5745
v -7.5756 10.8274 15.5745
v -9.3344 8.0433 16.5193
v -9.2768 8.2163 15.5745
v -7.5756 10.8274 15.5745
v -9.3344 8.0433 16.5193
v 9.4871 10.8274 15.5745
v -5.6222 14.2385 15.5745
v -5.6454 14.1794 16.4046
v 7.3960 14.2385 15.5745
v -5.6454 14.1794 16.4046
v 7.4909 14.2348 15.6257
v 7.3960 14.2385 15.5745
v 7.4909 14.1794 16.4046
v -5.6454 14.1794 16.4046
v 7.4909 14.2348 15.6257
v -5.7354 14.3525 16.5071
v -4.5177 15.9775 15.5745
v -5.7354 14.4096 15.7044
v -5.7354 14.3525 16.5071
v 5.9496 16.6194 15.6122
v -3.9348 16.6970 15.5745
v -5.7354 14.3525 16.5071
v 7.5809 14.3525 16.5071
v -5.7354 14.3525 16.5071
v -5.6454 14.1794 16.4046
v -9.3344 8.0433 16.5193
v -9.1994 7.9205 16.4801
v 10.9999 7.9205 16.4801
v -9.3344 8.1280 15.5745
v -9.1994 7.9969 15.5745
v 11.2473 8.1494 15.5745
v 11.1349 8.1280 15.5745
v 10.9999 7.9969 15.5745
v 11.2473 8.1494 15.5745
v 11.1349 8.1280 15.5745
v 11.1215 8.1498 15.5745
v -9.3344 8.1280 15.5745
v -9.2768 8.2163 15.5745
v -9.2768 8.2163 15.5745
v 11.2473 8.1494 15.5745
v 9.4871 10.8274 15.5745
v 11.1215 8.1498 15.5745
v 11.2473 8.1494 15.5745
v 9.4871 10.8274 15.5745
v 7.3960 14.2385 15.5745
v 5.5175 17.7364 -9.0438
v 5.6213 17.5739 -9.0423
v 7.6392 14.5260 -9.0132
v 11.7467 8.3220 -16.5465
v 11.7467 8.3220 15.8894
v 11.7467 8.3220 -16.5465
v 1.2160 24.2279 -3.6453
v 11.7467 8.3220 -16.5465
v 1.2160 24.7947 -16.5465
v 1.2160 24.2279 -3.6453
v 1.2160 24.7947 -16.5465
v 1.2160 24.2279 -3.6453
v 11.7467 8.3220 -16.5465
v 1.2160 24.7947 -16.5465
v 1.2160 24.2279 -3.6453
v 0.5845 24.7947 -16.5465
v 0.5845 24.2279 -3.6453
v 1.2160 24.2279 5.0474
v 0.5845 24.2279 -3.6453
v 0.5845 24.2279 5.0474
v 0.5845 24.7947 15.8894
v 1.2160 24.7947 15.8894
v 0.5845 24.2279 5.0474
v 0.5845 24.7947 15.8894
v 0.7968 24.3448 15.5745
v 1.0037 24.3448 15.5745
v -9.9462 8.2770 15.8894
v -5.7354 14.4096 15.7044
v 11.7467 8.3220 15.8894
v 11.2473 8.1494 15.5745
v -3.9348 16.6970 15.5745
v -4.5177 15.9775 15.5745
v 1.0037 24.3448 15.5745
v 11.7467 8.3220 -16.5465
v 1.2160 24.7947 -16.5465
v 11.2473 8.1494 -16.3215
v 11.7467 8.3220 -16.5465
v 1.2812 23.9061 -16.3215
v -9.9462 8.2770 15.8894
v 0.5845 24.7947 15.8894
v -9.9462 8.2770 -16.5465
v 1.2160 24.7947 -16.5465
v 11.2473 8.1494 -16.3215
v 6.9949 14.2153 -17.1825
v 7.1861 14.3303 -17.4791
v 7.1861 14.8893 -16.2130
v 6.9949 14.5926 -16.3279
v -5.0293 14.5926 -16.3279
v -5.0293 14.2153 -17.1825
v -5.2115 14.3303 -17.4791
v 7.1861 14.3303 -17.4791
v 10.9099 8.0876 -17.1874
v 11.1349 8.1811 -17.4915
v 11.1349 8.8350 -16.2572
v -9.3344 8.8350 -16.2572
v 10.9099 8.5310 -16.3506
v -9.1094 8.0876 -17.1874
v -9.3344 8.1811 -17.4915
v 11.1349 8.1811 -17.4915
v 9.4478 10.8486 -16.4340
v 9.4478 11.1861 -15.9841
v -7.5337 10.8486 -16.4340
v -7.5337 11.1861 -15.9841
v -9.3344 8.1811 -17.4915
v 5.7521 16.6970 -16.5465
v 5.7521 17.0344 -16.0966
v -3.7530 16.6970 -16.5465
v -3.7530 17.0344 -16.0966
v -5.2115 14.3303 -17.4791
v 7.4909 14.1794 16.4046
v -5.6454 14.1794 16.4046
v -5.7354 14.3525 16.5071
v 10.9999 7.9205 16.4801
v 11.1349 8.0433 16.5193
v -9.3344 8.1280 15.5745
v 10.9999 7.9205 16.4801
v 11.1349 8.0433 16.5193
v -9.3344 8.0433 16.5193
v -5.6222 14.2385 15.5745
v -5.6454 14.1794 16.4046
v 7.5809 14.3525 16.5071
v 5.9496 16.6194 15.6122
v -5.7354 14.3525 16.5071
v 7.5809 14.3525 16.5071
v 11.7467 8.3220 15.8894
v 1.2160 24.2279 -3.6453
v 1.2160 24.2279 -3.6453
v 1.2160 24.2279 -3.6453
v 0.5845 24.7947 -16.5465
v 1.2160 24.2279 5.0474
v 1.2160 24.2279 -3.6453
v 0.5845 24.2279 -3.6453
v 1.2160 24.7947 15.8894
v 1.2160 24.2279 5.0474
v 0.5845 24.2279 5.0474
v 0.5845 24.7947 15.8894
v 11.7467 8.3220 15.8894
v 1.2160 24.7947 15.8894
v 11.7467 8.3220 15.8894
# 359 Vertices

# Texture coordinates
vt 0.4901 1.0203 0.0000
vt 0.4433 1.0203 0.0000
vt 0.4743 0.9932 0.0000
vt 1.2703 1.5217 0.0000
vt 1.2703 0.1550 0.0000
vt 1.2333 1.5050 0.0000
vt 1.2333 0.1550 0.0000
vt 1.2703 -0.8817 0.0000
vt 1.2333 -0.8583 0.0000
vt -0.0783 0.9862 0.0000
vt -0.8817 1.0203 0.0000
vt -0.8817 0.0288 0.0000
vt 0.5658 0.9862 0.0000
vt 1.5217 1.0203 0.0000
vt 1.5217 0.0261 0.0000
vt -0.8817 0.0261 0.0000
vt 0.4901 -0.0783 0.0000
vt 0.4433 -0.0783 0.0000
vt 0.4901 -0.8817 0.0000
vt 0.4901 0.5658 0.0000
vt 0.4433 0.5658 0.0000
vt 0.4901 1.5217 0.0000
vt 0.4433 1.5217 0.0000
vt 0.9658 0.5955 0.0000
vt 0.9657 0.5857 0.0000
vt 0.9635 0.4022 0.0000
vt 0.1696 0.3373 0.0000
vt 0.2439 0.4356 0.0000
vt 0.3215 0.5642 0.0000
vt 1.2250 0.0120 0.0000
vt -0.2917 0.0120 0.0000
vt 1.2150 0.0046 0.0000
vt 0.9550 0.3814 0.0000
vt 0.9617 0.3918 0.0000
vt -0.0183 0.3814 0.0000
vt 1.0940 0.4649 0.0000
vt 0.9490 0.6013 0.0000
vt -0.0900 0.4649 0.0000
vt -0.8583 0.5329 0.0000
vt -0.8583 0.4896 0.0000
vt -0.9274 0.3918 0.0000
vt -0.8704 0.3951 0.0000
vt -0.8611 0.5282 0.0000
vt -0.0183 -0.8593 0.0000
vt -0.0166 -0.8583 0.0000
vt -0.0183 -0.9198 0.0000
vt 1.1029 0.1796 0.0000
vt -0.9283 0.0120 0.0000
vt -0.8583 0.0224 0.0000
vt -0.8583 0.0171 0.0000
vt -0.8583 0.0184 0.0000
vt -0.2817 -0.9254 0.0000
vt -0.2817 -0.8583 0.0000
vt 1.2150 -0.9254 0.0000
vt -0.2917 -0.8583 0.0000
vt 1.2150 -0.8583 0.0000
vt 1.2250 -0.9283 0.0000
vt -0.8680 0.3952 0.0000
vt -0.9198 0.3814 0.0000
vt -0.8621 0.3847 0.0000
vt 0.1219 0.5329 0.0000
vt 0.8262 0.5329 0.0000
vt 0.0138 0.3904 0.0000
vt 1.4970 0.4241 0.0000
vt 1.4883 0.5532 0.0000
vt 1.5908 0.3904 0.0000
vt 0.1219 1.4883 0.0000
vt 0.8262 1.4883 0.0000
vt 0.1219 1.5217 0.0000
vt 1.5217 0.5329 0.0000
vt 0.9183 1.5688 0.0000
vt 0.9183 1.5055 0.0000
vt 0.0273 1.5688 0.0000
vt -0.1583 0.1809 0.0000
vt 1.1000 0.1809 0.0000
vt -0.2917 0.0203 0.0000
vt 1.5002 0.0597 0.0000
vt 1.4800 0.2012 0.0000
vt 1.5917 0.0203 0.0000
vt -0.1583 1.4800 0.0000
vt 1.1000 1.4800 0.0000
vt -0.1583 1.5133 0.0000
vt 1.5133 0.1809 0.0000
vt 1.2083 1.5692 0.0000
vt 1.2083 1.5072 0.0000
vt -0.2750 1.5692 0.0000
vt -0.2917 1.5917 0.0000
vt 1.2250 1.5917 0.0000
vt 1.5072 0.0414 0.0000
vt 1.5692 0.0147 0.0000
vt 1.2250 0.0597 0.0000
vt -0.2917 0.0597 0.0000
vt 1.2083 0.0414 0.0000
vt 0.0138 1.5908 0.0000
vt 0.9324 1.5908 0.0000
vt 1.5055 0.4062 0.0000
vt 1.5688 0.3835 0.0000
vt 0.9183 0.4062 0.0000
vt 0.9324 0.4241 0.0000
vt 0.0273 0.4062 0.0000
vt 0.9911 0.3347 0.0000
vt 0.5955 0.9163 0.0000
vt 0.5955 0.9284 0.0000
vt 0.4748 0.9940 0.0000
vt 0.4586 0.9940 0.0000
vt -0.3370 0.0261 0.0000
vt 0.4379 0.9940 0.0000
vt 0.4379 0.9663 0.0000
vt 0.4379 0.9913 0.0000
vt 1.2333 0.0184 0.0000
vt 0.4949 0.9668 0.0000
vt 1.2703 0.0288 0.0000
vt 0.4949 0.9940 0.0000
vt 0.5845 0.9449 0.0000
vt 0.5763 0.9449 0.0000
vt 0.5853 0.9437 0.0000
vt 0.3884 0.6568 0.0000
vt 0.5650 0.9280 0.0000
vt 0.3653 0.6297 0.0000
vt 0.9480 0.3849 0.0000
vt -0.0250 0.3952 0.0000
vt 0.4379 0.9676 0.0000
vt 0.4590 0.9932 0.0000
vt 0.4433 -0.8817 0.0000
vt 1.1297 0.4214 0.0000
vt 1.5217 0.0288 0.0000
vt 1.1280 0.6012 0.0000
vt 1.1299 0.4022 0.0000
vt 0.0381 0.1698 0.0000
vt 0.0420 0.1650 0.0000
vt 0.1167 0.0747 0.0000
vt 0.9212 0.4356 0.0000
vt 0.8382 0.5642 0.0000
vt 0.9861 0.3348 0.0000
vt 0.1764 0.3373 0.0000
vt 0.1741 0.3339 0.0000
vt 0.9866 0.3339 0.0000
vt 0.9813 0.3290 0.0000
vt 0.1795 0.3290 0.0000
vt -0.2817 0.0046 0.0000
vt -0.0250 0.3918 0.0000
vt 0.9393 0.6060 0.0000
vt 0.0701 0.6060 0.0000
vt 0.9550 -0.8621 0.0000
vt 0.9550 -0.9198 0.0000
vt 0.9480 -0.8583 0.0000
vt -0.1614 0.1796 0.0000
vt -0.8583 0.1796 0.0000
vt -0.2917 -0.9283 0.0000
vt 1.2250 -0.8583 0.0000
vt -0.8593 0.3849 0.0000
vt 0.9324 0.3904 0.0000
vt 0.8262 1.5217 0.0000
vt 0.0273 1.5055 0.0000
vt 1.2250 0.0203 0.0000
vt 1.1000 1.5133 0.0000
vt -0.2750 1.5072 0.0000
vt -0.2750 0.0414 0.0000
vt 0.0138 0.4241 0.0000
vt 0.5650 0.9163 0.0000
vt -0.3000 0.0225 0.0000
vt 0.4574 0.9913 0.0000
vt 0.4949 0.9683 0.0000
vt 0.5754 0.9437 0.0000
vt 0.9617 0.3951 0.0000
vt 0.4949 0.9913 0.0000
vt 0.4759 0.9913 0.0000
vt 0.9550 0.3847 0.0000
vt 0.8328 0.5329 0.0000
vt 0.8408 0.5282 0.0000
vt -0.0166 0.3849 0.0000
vt 0.0652 0.4896 0.0000
vt -0.0183 0.3849 0.0000
# 173 texture coords

# Vertex normals
vn 0.0000 -0.5735 0.8192
vn 0.3266 -0.9452 -0.0000
vn 0.8422 0.5384 -0.0281
vn 0.8338 0.5520 -0.0000
vn -0.8430 0.5374 0.0236
vn -0.8345 0.5510 -0.0000
vn -0.8429 0.5374 -0.0281
vn 0.0000 0.9986 -0.0522
vn 0.0000 1.0000 -0.0000
vn 0.0000 0.9990 0.0439
vn 0.8423 0.5385 0.0237
vn 0.8338 0.5520 0.0000
vn 0.0000 0.0000 1.0000
vn 0.0000 -0.3046 0.9525
vn 0.0000 -0.5096 0.8604
vn 0.0000 0.3672 0.9302
vn -0.7744 0.6274 0.0822
vn 0.8030 0.5945 0.0423
vn 0.0000 -0.9975 -0.0711
vn 0.0000 0.3214 0.9470
vn -0.8368 0.5452 0.0489
vn 0.8526 0.5205 0.0467
vn 0.0000 -0.9965 -0.0840
vn -0.6955 -0.7160 -0.0603
vn 0.6813 -0.7295 -0.0615
vn -0.8944 -0.4461 -0.0318
vn 0.8944 -0.4461 -0.0318
vn 0.0000 0.3666 -0.9304
vn -0.7956 0.5542 -0.2447
vn 0.0000 0.8000 -0.6000
vn 0.6811 0.5858 -0.4393
vn 0.0000 -0.9148 0.4039
vn 0.0000 0.3685 -0.9296
vn -0.7346 0.5995 -0.3176
vn 0.6644 0.5979 -0.4484
vn 0.0000 -0.8836 0.4681
vn 0.0000 -0.9559 -0.2938
vn -0.7071 -0.6248 0.3310
vn 0.0000 -0.2938 0.9559
vn 0.7071 -0.6248 0.3310
vn 0.0000 -0.9325 -0.3613
vn -0.7771 -0.5758 0.2542
vn 0.0000 -0.3613 0.9325
vn 0.7619 -0.5925 0.2616
vn 0.0000 0.0000 -1.0000
vn 0.0000 -0.4472 -0.8944
vn 0.3970 -0.2531 -0.8822
vn 0.5052 -0.3221 0.8006
vn -0.3387 -0.2142 -0.9162
vn -0.3969 -0.2538 -0.8821
vn -0.4413 -0.2791 0.8528
vn 0.4813 -0.3057 0.8215
vn 0.0020 0.0109 0.9999
vn 0.0000 0.3696 0.9292
vn -0.0128 0.4234 0.9058
vn -0.7873 0.6151 0.0438
vn -0.0000 -0.9975 -0.0711
vn -0.8369 0.5452 0.0489
vn -0.6817 -0.7287 -0.0653
vn 0.6954 -0.7158 -0.0642
vn -0.6749 0.5904 -0.4428
vn 0.8005 0.5483 -0.2421
vn -0.6399 0.6147 -0.4611
vn 0.7562 0.5782 -0.3063
vn 0.3966 -0.2528 -0.8825
vn 0.3983 -0.2530 -0.8817
vn 0.3749 -0.2381 -0.8960
vn 0.0026 0.0179 0.9998
vn -0.4626 -0.2957 0.8358
vn -0.5071 -0.3207 0.8000
vn -0.5058 -0.3295 0.7973
vn -0.4720 -0.3014 0.8285
vn -0.4421 -0.2813 0.8517
# 73 normals

# Faces
f 1/1/1 2/2/1 3/3/1
f 4/4/2 5/5/2 6/6/2
f 6/6/2 5/5/2 7/7/2
f 5/5/2 8/8/2 9/9/2
f 7/7/2 5/5/2 9/9/2
f 10/10/3 358/11/3 359/12/3
f 11/13/4 10/10/4 357/12/4
f 12/13/5 13/14/5 14/15/5
f 12/13/6 14/15/6 15/16/6
f 356/11/7 16/10/7 15/16/7
f 16/10/6 12/13/6 15/16/6
f 354/17/8 355/18/8 353/19/8
f 351/20/9 352/21/9 350/17/9
f 17/22/10 349/23/10 348/20/10
f 18/24/11 347/13/11 19/25/11
f 345/12/12 20/26/12 346/13/12
f 21/27/13 22/28/13 23/29/13
f 24/30/14 25/31/14 26/32/14
f 27/33/15 28/34/15 29/35/15
f 344/36/16 30/37/16 31/38/16
f 32/39/17 33/40/17 343/41/17
f 34/42/18 342/43/18 341/41/18
f 35/44/19 339/45/19 340/46/19
f 24/30/20 36/47/20 25/31/20
f 338/48/21 37/49/21 38/50/21
f 39/50/22 40/51/22 337/48/22
f 41/52/23 42/53/23 336/54/23
f 42/53/24 41/52/24 335/55/24
f 333/54/25 43/56/25 334/57/25
f 332/41/26 44/58/26 331/59/26
f 45/60/27 34/42/27 330/59/27
f 46/61/28 47/62/28 48/63/28
f 49/64/29 50/65/29 329/66/29
f 328/67/30 51/68/30 327/69/30
f 325/70/31 326/65/31 52/66/31
f 53/71/32 54/72/32 55/73/32
f 56/74/33 57/75/33 58/76/33
f 59/77/34 60/78/34 324/79/34
f 323/80/30 61/81/30 322/82/30
f 320/83/35 321/78/35 62/79/35
f 63/84/36 64/85/36 65/86/36
f 318/87/37 319/88/37 65/86/37
f 66/89/38 59/77/38 317/90/38
f 67/91/39 315/92/39 316/93/39
f 313/79/40 314/77/40 312/90/40
f 310/94/41 311/95/41 55/73/41
f 68/96/42 49/64/42 309/97/42
f 307/98/43 69/99/43 308/100/43
f 305/66/44 306/64/44 304/97/44
f 303/101/45 70/102/45 71/103/45
f 72/104/46 73/105/46 302/1/46
f 301/106/47 74/107/47 75/108/47
f 299/106/48 76/109/48 300/2/48
f 296/110/49 298/111/49 297/112/49
f 294/112/50 77/113/50 295/1/50
f 293/114/13 78/115/13 79/116/13
f 291/117/13 80/118/13 292/119/13
f 289/112/51 81/120/51 290/110/51
f 287/106/52 288/121/52 82/122/52
f 284/2/1 285/123/1 286/3/1
f 283/18/8 281/124/8 282/19/8
f 279/21/9 280/18/9 278/17/9
f 276/23/10 277/21/10 275/20/10
f 274/14/11 83/125/11 273/126/11
f 272/13/11 18/24/11 84/127/11
f 84/127/11 271/14/11 270/13/11
f 83/125/11 269/14/11 84/127/11
f 85/128/4 268/126/4 83/125/4
f 267/13/4 20/26/4 19/25/4
f 266/126/4 85/128/4 20/26/4
f 20/26/4 265/12/4 264/126/4
f 261/129/53 262/130/53 263/131/53
f 259/132/13 258/101/13 260/133/13
f 255/101/13 256/132/13 257/134/13
f 22/28/13 21/27/13 254/135/13
f 21/27/13 252/136/13 253/135/13
f 250/137/13 249/101/13 251/134/13
f 248/138/13 246/101/13 247/137/13
f 21/27/13 245/139/13 244/136/13
f 241/31/14 242/140/14 243/32/14
f 238/34/15 239/141/15 240/35/15
f 86/142/54 236/143/54 237/38/54
f 235/37/55 86/142/55 234/38/55
f 232/40/56 233/58/56 231/41/56
f 230/144/19 228/145/19 229/46/19
f 227/146/57 226/144/57 225/46/57
f 222/45/19 224/146/19 223/46/19
f 221/47/20 219/147/20 220/31/20
f 218/49/58 217/48/58 216/148/58
f 215/51/22 214/148/22 213/48/22
f 212/53/23 211/56/23 210/54/23
f 209/52/59 207/149/59 208/55/59
f 206/56/60 205/150/60 204/57/60
f 203/58/26 202/151/26 201/59/26
f 34/42/27 199/41/27 200/59/27
f 197/62/28 198/152/28 196/63/28
f 195/65/61 193/70/61 194/66/61
f 192/68/30 190/153/30 191/69/30
f 187/65/62 189/64/62 188/66/62
f 186/72/32 184/154/32 185/73/32
f 182/75/33 183/155/33 181/76/33
f 180/78/63 178/83/63 179/79/63
f 177/81/30 175/156/30 176/82/30
f 172/78/64 174/77/64 173/79/64
f 171/85/36 169/157/36 170/86/36
f 166/88/37 168/84/37 167/86/37
f 165/77/38 163/79/38 164/90/38
f 160/92/39 162/158/39 161/93/39
f 159/77/40 157/89/40 158/90/40
f 154/95/41 156/71/41 155/73/41
f 49/64/42 152/66/42 153/97/42
f 151/99/43 149/159/43 150/100/43
f 148/64/44 146/96/44 147/97/44
f 87/160/45 88/27/45 145/118/45
f 73/105/46 143/2/46 144/1/46
f 74/107/65 141/106/65 142/2/65
f 74/107/66 140/2/66 73/105/66
f 137/106/67 138/108/67 139/161/67
f 135/2/48 89/162/48 136/123/48
f 134/2/48 76/109/48 89/162/48
f 76/109/48 133/106/48 82/122/48
f 132/111/49 90/163/49 131/112/49
f 130/1/50 77/113/50 72/104/50
f 77/113/50 129/112/50 90/163/50
f 127/115/68 128/164/68 79/116/68
f 126/165/69 124/112/69 125/1/69
f 91/166/70 122/3/70 123/167/70
f 121/120/71 120/112/71 92/168/71
f 91/166/70 118/1/70 119/3/70
f 117/169/70 91/166/70 93/111/70
f 116/169/70 115/1/70 91/166/70
f 113/170/70 112/1/70 114/169/70
f 111/165/72 109/1/72 110/170/72
f 107/112/73 108/165/73 92/168/73
f 105/171/52 104/106/52 106/161/52
f 82/122/52 102/172/52 103/108/52
f 99/106/52 100/171/52 101/173/52
f 82/122/52 98/121/52 97/172/52
f 96/121/52 94/106/52 95/173/52
# 139 faces