# 3ds Max Wavefront OBJ Exporter v0.97b - (c)2007 guruware
# File Created: 12.12.2016 11:52:12

mtllib Building_Wood.mtl

#
# object Wood
#

v  1.2160 24.7947 15.8894
v  0.5845 24.7947 15.8894
v  1.0037 24.3448 15.5745
v  1.0096 24.3572 -16.3277
v  0.7909 24.3572 -16.3277
v  1.2160 24.7947 -16.5465
v  0.7968 24.3448 15.5745
v  1.0243 24.3123 15.5745
v  1.2812 23.5402 18.0861
v  1.2812 24.3123 18.0861
v  0.5123 23.5402 18.0861
v  0.5123 24.3572 -19.2381
v  1.2812 24.3572 -19.2381
v  0.5123 23.5852 -19.2381
v  1.1365 23.5683 17.3382
v  1.1365 24.0541 16.7382
v  0.6597 23.5683 17.3382
v  0.6597 24.0991 -17.8452
v  1.1365 24.0991 -17.8452
v  0.6597 23.6133 -18.4452
v  0.5123 23.5402 15.5745
v  1.2812 23.5402 15.5745
v  1.2812 23.9061 15.5745
v  0.5123 24.3123 18.0861
v  0.5123 24.3123 15.7409
v  1.2812 24.3123 15.7373
v  1.2812 23.5852 -19.2381
v  1.2812 23.5852 -16.3215
v  1.2812 24.3572 -16.4500
v  0.5123 23.5852 -16.3215
v  0.5123 23.8970 -16.3215
v  0.5123 24.3572 -16.4536
v  0.6597 21.1310 15.5745
v  1.1365 22.4460 15.5745
v  1.1365 21.1310 15.5745
v  0.6597 24.0541 16.7382
v  1.1365 23.6133 -18.4452
v  1.1365 20.6271 -16.3215
v  0.6597 21.9566 -16.3215
v  0.6597 20.6271 -16.3215
v  0.5845 24.7947 -16.5465
v  0.7750 24.3123 15.5751
v  0.5123 23.8970 15.5745
v  0.5123 23.9194 15.5828
v  1.2812 23.9061 -16.3215
v  1.2812 23.9309 -16.3274
v  0.6597 22.4460 15.5745
v  1.1365 21.9566 -16.3215
# 48 vertices

vn 0.0000 -0.5735 0.8192
vn 0.0000 -0.4472 -0.8944
vn 0.0000 0.0000 1.0000
vn 0.0000 0.0000 -1.0000
vn 0.0000 0.7771 0.6293
vn 0.0000 0.7771 -0.6293
vn 0.0000 -1.0000 -0.0000
vn 1.0000 0.0000 -0.0000
vn -1.0000 0.0000 -0.0000
vn 0.0000 1.0000 -0.0000
vn 0.0000 -0.5863 0.8101
vn 0.0000 0.5863 -0.8101
vn 0.0000 -0.5795 -0.8149
vn 0.0000 0.5795 0.8149
vn 0.3983 -0.2530 -0.8817
vn 0.5052 -0.3221 0.8006
vn -0.3969 -0.2538 -0.8821
vn 0.0026 0.0179 0.9998
vn -0.5071 -0.3207 0.8000
# 19 vertex normals

vt 0.4901 1.0203 0.0000
vt 0.4433 1.0203 0.0000
vt 0.4743 0.9932 0.0000
vt 0.4748 0.9940 0.0000
vt 0.4586 0.9940 0.0000
vt 0.5845 0.9449 0.0000
vt 0.5763 0.9449 0.0000
vt 0.5853 0.9437 0.0000
vt 0.5753 0.7176 0.0000
vt 0.5753 0.8494 0.0000
vt 0.4247 0.7176 0.0000
vt 0.4247 0.8570 0.0000
vt 0.5753 0.8570 0.0000
vt 0.4247 0.7253 0.0000
vt 0.5469 0.2103 0.0000
vt 0.5469 0.1023 0.0000
vt 0.4536 0.2103 0.0000
vt 0.4536 0.0923 0.0000
vt 0.5469 0.0923 0.0000
vt 0.4536 0.2003 0.0000
vt 0.4247 -3.6483 0.0000
vt 0.4247 -3.0900 0.0000
vt 0.5753 -3.6483 0.0000
vt 0.2166 -2.2562 0.0000
vt 0.1353 -2.2562 0.0000
vt 0.2166 -2.6849 0.0000
vt 0.0450 -2.6849 0.0000
vt 0.0450 -2.2846 0.0000
vt 0.5753 -3.1262 0.0000
vt 0.5250 -3.0900 0.0000
vt 0.5753 4.6483 0.0000
vt 0.5753 4.0000 0.0000
vt 0.4247 4.6483 0.0000
vt 0.0350 3.6849 0.0000
vt 0.0350 3.2091 0.0000
vt 0.2066 3.6849 0.0000
vt 0.2066 3.1871 0.0000
vt 0.1373 3.1871 0.0000
vt 0.4247 4.0294 0.0000
vt 0.4536 -2.5572 0.0000
vt 0.4536 -2.2562 0.0000
vt 0.5469 -2.5572 0.0000
vt 0.4598 -2.2562 0.0000
vt 0.1023 -2.4548 0.0000
vt 0.7521 -2.2562 0.0000
vt 0.2103 -2.5572 0.0000
vt 0.5469 -2.4548 0.0000
vt 0.5469 -2.2562 0.0000
vt 0.4536 -2.4548 0.0000
vt 0.5469 3.5496 0.0000
vt 0.5469 3.1871 0.0000
vt 0.4536 3.5496 0.0000
vt 0.2003 3.5496 0.0000
vt 0.0923 3.4472 0.0000
vt 0.8641 3.1871 0.0000
vt 0.5686 3.1871 0.0000
vt 0.4536 3.4472 0.0000
vt 0.4536 3.1871 0.0000
vt 0.5469 3.4472 0.0000
vt 0.4590 0.9932 0.0000
vt 0.4379 0.9940 0.0000
vt 0.4574 0.9913 0.0000
vt 0.4379 0.9913 0.0000
vt 0.4949 0.9940 0.0000
vt 0.5754 0.9437 0.0000
vt 0.4949 0.9913 0.0000
vt 0.4759 0.9913 0.0000
vt 0.4247 0.8494 0.0000
vt 0.5753 0.7253 0.0000
vt 0.4536 0.1023 0.0000
vt 0.5469 0.2003 0.0000
vt 0.5753 -3.0900 0.0000
vt 0.0450 -2.2840 0.0000
vt 0.1373 -2.2562 0.0000
vt 0.1323 -2.2577 0.0000
vt 0.4247 -3.1270 0.0000
vt 0.4761 -3.0901 0.0000
vt 0.4247 4.0000 0.0000
vt 0.1353 3.1871 0.0000
vt 0.1297 3.1881 0.0000
vt 0.0350 3.2097 0.0000
vt 0.5221 4.0014 0.0000
vt 0.5753 4.0286 0.0000
vt 0.4793 4.0014 0.0000
# 84 texture coords

g Wood
usemtl Material__185
s 1
f 1/1/1 2/2/1 3/3/1 
f 4/4/2 5/5/2 6/1/2 
s off
f 3/6/3 7/7/3 8/8/3 
f 9/9/3 10/10/3 11/11/3 
f 12/12/4 13/13/4 14/14/4 
f 15/15/5 16/16/5 17/17/5 
f 18/18/6 19/19/6 20/20/6 
f 11/21/7 21/22/7 9/23/7 
f 22/24/8 23/25/8 9/26/8 
f 24/27/9 25/28/9 11/26/9 
f 26/29/10 8/30/10 10/23/10 
f 27/31/7 28/32/7 14/33/7 
f 13/34/8 29/35/8 27/36/8 
f 30/37/9 31/38/9 14/36/9 
f 12/33/10 32/39/10 13/31/10 
f 17/40/11 33/41/11 15/42/11 
f 34/43/8 16/44/8 35/45/8 
f 17/46/9 36/44/9 33/45/9 
f 16/47/12 34/48/12 36/49/12 
f 37/50/13 38/51/13 20/52/13 
f 37/53/8 19/54/8 38/55/8 
f 39/56/9 18/54/9 40/55/9 
f 18/57/14 39/58/14 19/59/14 
s 1
f 2/2/1 7/60/1 3/3/1 
f 5/5/2 41/2/2 6/1/2 
f 32/61/15 41/2/15 5/5/15 
f 2/2/16 42/62/16 7/60/16 
f 2/2/16 25/63/16 42/62/16 
f 6/1/17 29/64/17 4/4/17 
s off
f 7/7/18 42/65/18 8/8/18 
s 1
f 26/66/19 3/3/19 8/67/19 
f 26/66/19 1/1/19 3/3/19 
s off
f 10/10/3 24/68/3 11/11/3 
f 13/13/4 27/69/4 14/14/4 
f 16/16/5 36/70/5 17/17/5 
f 19/19/6 37/71/6 20/20/6 
f 21/22/7 22/72/7 9/23/7 
f 26/73/8 10/27/8 9/26/8 
f 23/25/8 26/73/8 9/26/8 
f 43/74/9 21/24/9 11/26/9 
f 44/75/9 43/74/9 11/26/9 
f 25/28/9 44/75/9 11/26/9 
f 25/76/10 24/21/10 10/23/10 
f 42/77/10 25/76/10 10/23/10 
f 8/30/10 42/77/10 10/23/10 
f 28/32/7 30/78/7 14/33/7 
f 45/79/8 28/37/8 27/36/8 
f 46/80/8 45/79/8 27/36/8 
f 29/35/8 46/80/8 27/36/8 
f 32/81/9 12/34/9 14/36/9 
f 31/38/9 32/81/9 14/36/9 
f 4/82/10 29/83/10 13/31/10 
f 5/84/10 4/82/10 13/31/10 
f 32/39/10 5/84/10 13/31/10 
f 33/41/11 35/48/11 15/42/11 
f 16/44/8 15/46/8 35/45/8 
f 36/44/9 47/43/9 33/45/9 
f 34/48/12 47/41/12 36/49/12 
f 38/51/13 40/58/13 20/52/13 
f 19/54/8 48/56/8 38/55/8 
f 18/54/9 20/53/9 40/55/9 
f 39/58/14 48/51/14 19/59/14 
# 62 faces

