# WEngine Wavefront OBJ Exporter
# File Created : Mon Dec 12 19:40:51 2016

# Information about the object:
# Vertices: 44
# Textures: 21
# Normals:  5
# Faces:    16

# Vertices
v -1.4987 6.0226 15.5745
v -1.4987 -0.6231 15.5745
v -1.4987 5.9808 15.1921
v 3.2621 6.0226 15.5745
v 3.2621 5.9808 15.1921
v 3.2621 -0.6231 15.1921
v 3.2621 -0.6231 15.5745
v -1.4987 -0.6231 15.1921
v 8.8180 3.8756 15.5745
v 8.8180 -0.6231 15.5745
v 8.8180 3.8756 15.2371
v 10.5500 3.8756 15.5745
v 10.5500 3.8756 15.2371
v 10.5500 -0.6231 15.2371
v 10.5500 -0.6231 15.5745
v 8.8180 -0.6231 15.2371
v 10.5500 3.8756 15.2371
v 10.5500 -0.6231 15.2371
v 8.8180 -0.6231 15.2371
v 10.5500 3.8756 15.5745
v 10.5500 3.8756 15.2371
v 8.8180 3.8756 15.5745
v 8.8180 3.8756 15.2371
v 10.5500 3.8756 15.2371
v 8.8180 -0.6231 15.2371
v 8.8180 3.8756 15.2371
v 3.2621 5.9808 15.1921
v 3.2621 -0.6231 15.1921
v -1.4987 -0.6231 15.1921
v 3.2621 6.0226 15.5745
v 3.2621 5.9808 15.1921
v -1.4987 6.0226 15.5745
v -1.4987 5.9808 15.1921
v 3.2621 5.9808 15.1921
v -1.4987 -0.6231 15.1921
v -1.4987 5.9808 15.1921
v 8.8180 3.8756 15.2371
v 10.5500 3.8756 15.2371
v 10.5500 3.8756 15.2371
v 8.8180 3.8756 15.5745
v -1.4987 5.9808 15.1921
v 3.2621 5.9808 15.1921
v 3.2621 5.9808 15.1921
v -1.4987 6.0226 15.5745
# 44 Vertices

# Texture coordinates
vt 0.3415 0.2546 0.0000
vt 0.3415 0.0042 0.0000
vt 0.3567 0.2530 0.0000
vt -5.6357 0.0914 0.0000
vt -5.6357 0.9150 0.0000
vt -5.4819 0.0914 0.0000
vt 0.3567 0.0042 0.0000
vt 0.0315 0.8908 0.0000
vt 0.0315 0.6029 0.0000
vt 0.2667 0.8908 0.0000
vt 0.3415 0.1737 0.0000
vt 0.3549 0.1737 0.0000
vt 0.9634 0.1737 0.0000
vt 0.8946 0.1737 0.0000
vt 0.3549 0.0042 0.0000
vt 0.3090 0.9657 0.0000
vt 0.3090 0.7696 0.0000
vt 0.3968 0.9657 0.0000
vt -5.4819 0.9150 0.0000
vt 0.2667 0.6029 0.0000
vt 0.3968 0.7696 0.0000
# 21 texture coords

# Vertex normals
vn 1.0000 0.0000 -0.0000
vn 0.0000 -0.9941 0.1088
vn -1.0000 0.0000 -0.0000
vn 0.0000 0.0000 1.0000
vn 0.0000 -1.0000 -0.0000
# 5 normals

# Faces
f 1/1/1 2/2/1 3/3/1
f 4/4/2 44/5/2 5/6/2
f 6/7/3 7/2/3 43/3/3
f 41/8/4 8/9/4 42/10/4
f 9/11/1 10/2/1 11/12/1
f 12/13/5 40/14/5 13/13/5
f 14/15/3 15/2/3 39/12/3
f 37/16/4 16/17/4 38/18/4
f 2/2/1 35/7/1 36/3/1
f 32/5/2 33/19/2 34/6/2
f 7/2/3 30/1/3 31/3/3
f 29/9/4 28/20/4 27/10/4
f 10/2/1 25/15/1 26/12/1
f 22/14/5 23/14/5 24/13/5
f 15/2/3 20/11/3 21/12/3
f 19/17/4 18/21/4 17/18/4
# 16 faces